%TF.GenerationSoftware,KiCad,Pcbnew,7.0.5*%
%TF.CreationDate,2023-09-16T15:31:54-07:00*%
%TF.ProjectId,ADS1219Module,41445331-3231-4394-9d6f-64756c652e6b,rev?*%
%TF.SameCoordinates,Original*%
%TF.FileFunction,Copper,L2,Bot*%
%TF.FilePolarity,Positive*%
%FSLAX46Y46*%
G04 Gerber Fmt 4.6, Leading zero omitted, Abs format (unit mm)*
G04 Created by KiCad (PCBNEW 7.0.5) date 2023-09-16 15:31:54*
%MOMM*%
%LPD*%
G01*
G04 APERTURE LIST*
%TA.AperFunction,ComponentPad*%
%ADD10R,1.700000X1.700000*%
%TD*%
%TA.AperFunction,ComponentPad*%
%ADD11O,1.700000X1.700000*%
%TD*%
%TA.AperFunction,ComponentPad*%
%ADD12C,5.600000*%
%TD*%
%TA.AperFunction,ComponentPad*%
%ADD13R,3.000000X3.000000*%
%TD*%
%TA.AperFunction,ComponentPad*%
%ADD14C,3.000000*%
%TD*%
%TA.AperFunction,ViaPad*%
%ADD15C,0.700000*%
%TD*%
%TA.AperFunction,ViaPad*%
%ADD16C,0.800000*%
%TD*%
%TA.AperFunction,Conductor*%
%ADD17C,1.000000*%
%TD*%
G04 APERTURE END LIST*
D10*
%TO.P,J11,1,Pin_1*%
%TO.N,Net-(J11-Pin_1)*%
X152400000Y-76200000D03*
D11*
%TO.P,J11,2,Pin_2*%
%TO.N,/ADS1219/AnalogueConnection/V_{SS}*%
X152400000Y-78740000D03*
%TO.P,J11,3,Pin_3*%
%TO.N,GND*%
X152400000Y-81280000D03*
%TO.P,J11,4,Pin_4*%
%TO.N,/ADS1219/AnalogueConnection/V_{DD}*%
X152400000Y-83820000D03*
%TD*%
D12*
%TO.P,J3,1,Pin_1*%
%TO.N,GND*%
X152400000Y-120650000D03*
%TD*%
%TO.P,J1,1,Pin_1*%
%TO.N,GND*%
X152400000Y-50800000D03*
%TD*%
D10*
%TO.P,J14,1,Pin_1*%
%TO.N,Net-(J14-Pin_1)*%
X203200000Y-81280000D03*
D11*
%TO.P,J14,2,Pin_2*%
%TO.N,/ADS1219/AnalogueConnection/V_{SS}*%
X203200000Y-78740000D03*
%TO.P,J14,3,Pin_3*%
%TO.N,GND*%
X203200000Y-76200000D03*
%TO.P,J14,4,Pin_4*%
%TO.N,/ADS1219/AnalogueConnection/V_{DD}*%
X203200000Y-73660000D03*
%TD*%
D10*
%TO.P,J9,1,Pin_1*%
%TO.N,GND*%
X183040000Y-75500000D03*
D11*
%TO.P,J9,2,Pin_2*%
%TO.N,/ADS1219/~{INT}*%
X180500000Y-75500000D03*
%TO.P,J9,3,Pin_3*%
%TO.N,Net-(J9-Pin_3)*%
X177960000Y-75500000D03*
%TD*%
D10*
%TO.P,J7,1,Pin_1*%
%TO.N,GND*%
X189230000Y-50800000D03*
D11*
%TO.P,J7,2,Pin_2*%
%TO.N,/I2CConnector/VI2C*%
X186690000Y-50800000D03*
%TO.P,J7,3,Pin_3*%
%TO.N,Net-(D3-A)*%
X184150000Y-50800000D03*
%TO.P,J7,4,Pin_4*%
%TO.N,Net-(D2-A)*%
X181610000Y-50800000D03*
%TO.P,J7,5,Pin_5*%
%TO.N,/ADS1219/~{INT}*%
X179070000Y-50800000D03*
%TD*%
D13*
%TO.P,J8,1,Pin_1*%
%TO.N,Net-(J8-Pin_1)*%
X182880000Y-120650000D03*
D14*
%TO.P,J8,2,Pin_2*%
%TO.N,Net-(J8-Pin_2)*%
X177800000Y-120650000D03*
%TO.P,J8,3,Pin_3*%
%TO.N,Net-(J8-Pin_3)*%
X172720000Y-120650000D03*
%TD*%
D10*
%TO.P,J10,1,Pin_1*%
%TO.N,/ADS1219/REFP*%
X182080000Y-98125000D03*
D11*
%TO.P,J10,2,Pin_2*%
%TO.N,/ADS1219/REFN*%
X179540000Y-98125000D03*
%TO.P,J10,3,Pin_3*%
%TO.N,GND*%
X177000000Y-98125000D03*
%TD*%
D10*
%TO.P,J12,1,Pin_1*%
%TO.N,Net-(J12-Pin_1)*%
X152400000Y-96520000D03*
D11*
%TO.P,J12,2,Pin_2*%
%TO.N,/ADS1219/AnalogueConnection/V_{SS}*%
X152400000Y-99060000D03*
%TO.P,J12,3,Pin_3*%
%TO.N,GND*%
X152400000Y-101600000D03*
%TO.P,J12,4,Pin_4*%
%TO.N,/ADS1219/AnalogueConnection/V_{DD}*%
X152400000Y-104140000D03*
%TD*%
D10*
%TO.P,J6,1,Pin_1*%
%TO.N,GND*%
X165100000Y-50800000D03*
D11*
%TO.P,J6,2,Pin_2*%
%TO.N,Net-(J6-Pin_2)*%
X162560000Y-50800000D03*
%TD*%
D10*
%TO.P,J13,1,Pin_1*%
%TO.N,Net-(J13-Pin_1)*%
X203200000Y-100330000D03*
D11*
%TO.P,J13,2,Pin_2*%
%TO.N,/ADS1219/AnalogueConnection/V_{SS}*%
X203200000Y-97790000D03*
%TO.P,J13,3,Pin_3*%
%TO.N,GND*%
X203200000Y-95250000D03*
%TO.P,J13,4,Pin_4*%
%TO.N,/ADS1219/AnalogueConnection/V_{DD}*%
X203200000Y-92710000D03*
%TD*%
D12*
%TO.P,J4,1,Pin_1*%
%TO.N,GND*%
X203200000Y-120650000D03*
%TD*%
%TO.P,J2,1,Pin_1*%
%TO.N,GND*%
X203200000Y-50800000D03*
%TD*%
D15*
%TO.N,/I2CConnector/VI2C*%
X180500000Y-63000000D03*
X173000000Y-58500000D03*
X190500000Y-63000000D03*
X198550000Y-62950000D03*
%TO.N,GND*%
X195250000Y-107000000D03*
X182500000Y-91000000D03*
X192000000Y-58500000D03*
X160500000Y-95500000D03*
X181000000Y-81500000D03*
X204000000Y-84000000D03*
X185000000Y-69500000D03*
X167500000Y-100500000D03*
X173000000Y-93000000D03*
X175000000Y-67250000D03*
X171500000Y-55050000D03*
X171500000Y-107000000D03*
X178000000Y-82500000D03*
X188500000Y-75500000D03*
X197500000Y-91000000D03*
X185000000Y-95500000D03*
X192000000Y-80000000D03*
X195000000Y-87500000D03*
X201000000Y-58000000D03*
X169500000Y-114000000D03*
X194000000Y-70000000D03*
X180000000Y-59000000D03*
X178000000Y-95000000D03*
X187000000Y-114000000D03*
X166000000Y-84500000D03*
X181500000Y-86500000D03*
X191000000Y-93500000D03*
X181000000Y-106750000D03*
X178000000Y-90500000D03*
X176662500Y-110837500D03*
X190500000Y-101500000D03*
X162000000Y-87000000D03*
X199000000Y-88500000D03*
X206000000Y-99000000D03*
X156000000Y-101500000D03*
X159750000Y-55000000D03*
D16*
X160500000Y-58750000D03*
X166250000Y-57750000D03*
D15*
X156000000Y-87500000D03*
X174750000Y-85250000D03*
X176500000Y-107000000D03*
X186500000Y-58250000D03*
X162500000Y-107000000D03*
X179000000Y-66500000D03*
X185000000Y-107500000D03*
X195000000Y-103500000D03*
X171500000Y-110500000D03*
X177500000Y-55000000D03*
X164500000Y-96000000D03*
X198000000Y-58000000D03*
X183500000Y-55000000D03*
X184000000Y-83500000D03*
%TO.N,+5V*%
X170500000Y-79000000D03*
X175500000Y-73000000D03*
X187000000Y-95500000D03*
X183500000Y-57000000D03*
X168000000Y-85000000D03*
X175500000Y-61000000D03*
X177500000Y-57000000D03*
X192500000Y-66000000D03*
X185050000Y-71950000D03*
X188600000Y-82500000D03*
X174500000Y-65000000D03*
%TO.N,VSS*%
X176000000Y-87350000D03*
X175000000Y-94500000D03*
%TO.N,VAA*%
X188500000Y-95000000D03*
X189000000Y-86000000D03*
%TO.N,/ADS1219/AnalogueConnection/V_{SS}*%
X161000000Y-100000000D03*
X199965000Y-100465000D03*
X195500000Y-75000000D03*
X155347500Y-78740000D03*
X175000000Y-102000000D03*
X156027500Y-99060000D03*
X160500000Y-79000000D03*
X200456250Y-79456250D03*
X195500000Y-99500000D03*
%TO.N,/ADS1219/AnalogueConnection/V_{DD}*%
X155907500Y-83820000D03*
X160500000Y-103000000D03*
X160500000Y-83000000D03*
X179055000Y-105500000D03*
X200250000Y-94250000D03*
X155500000Y-104140000D03*
X195500000Y-95500000D03*
X195000000Y-72000000D03*
%TO.N,Net-(J6-Pin_2)*%
X164000000Y-54000000D03*
X190500000Y-56500000D03*
%TO.N,Net-(J9-Pin_3)*%
X172150000Y-84650000D03*
X172500000Y-79000000D03*
%TO.N,/ADS1219/SCL*%
X189000000Y-69500000D03*
X179000000Y-68500000D03*
X185250000Y-80000000D03*
X188000000Y-66500000D03*
%TO.N,/ADS1219/SDA*%
X179000000Y-70500000D03*
X186500000Y-83000000D03*
X192112500Y-68000000D03*
%TD*%
D17*
%TO.N,/I2CConnector/VI2C*%
X174500000Y-63000000D02*
X173500000Y-62000000D01*
X190500000Y-63000000D02*
X180500000Y-63000000D01*
X190550000Y-62950000D02*
X190500000Y-63000000D01*
X173500000Y-62000000D02*
X173500000Y-59000000D01*
X198550000Y-62950000D02*
X190550000Y-62950000D01*
X180500000Y-63000000D02*
X174500000Y-63000000D01*
X173500000Y-59000000D02*
X173000000Y-58500000D01*
%TO.N,GND*%
X177000000Y-98125000D02*
X169875000Y-98125000D01*
X183040000Y-79460000D02*
X181000000Y-81500000D01*
X179000000Y-66500000D02*
X175750000Y-66500000D01*
X175750000Y-66500000D02*
X175000000Y-67250000D01*
X179625000Y-95500000D02*
X177000000Y-98125000D01*
X169875000Y-98125000D02*
X167500000Y-100500000D01*
X185000000Y-95500000D02*
X179625000Y-95500000D01*
X177500000Y-55000000D02*
X183500000Y-55000000D01*
X199000000Y-88500000D02*
X196000000Y-88500000D01*
X183040000Y-75500000D02*
X188500000Y-75500000D01*
X196000000Y-88500000D02*
X195000000Y-87500000D01*
X177450000Y-55050000D02*
X177500000Y-55000000D01*
X183040000Y-75500000D02*
X183040000Y-79460000D01*
X171500000Y-55050000D02*
X177450000Y-55050000D01*
X176662500Y-110837500D02*
X171837500Y-110837500D01*
X171837500Y-110837500D02*
X171500000Y-110500000D01*
%TO.N,+5V*%
X188600000Y-83400000D02*
X187000000Y-85000000D01*
X184000000Y-73000000D02*
X185050000Y-71950000D01*
X188600000Y-82500000D02*
X188600000Y-83400000D01*
X168000000Y-81500000D02*
X170500000Y-79000000D01*
X175500000Y-61000000D02*
X175500000Y-59000000D01*
X168000000Y-85000000D02*
X168000000Y-81500000D01*
X175500000Y-59000000D02*
X177500000Y-57000000D01*
X174500000Y-65000000D02*
X191500000Y-65000000D01*
X175500000Y-73000000D02*
X184000000Y-73000000D01*
X191500000Y-65000000D02*
X192500000Y-66000000D01*
X177500000Y-57000000D02*
X183500000Y-57000000D01*
X187000000Y-85000000D02*
X187000000Y-95500000D01*
%TO.N,VSS*%
X176000000Y-87414214D02*
X175967893Y-87382107D01*
X176000000Y-88000000D02*
X176000000Y-87414214D01*
X175000000Y-94500000D02*
X175000000Y-89000000D01*
X175000000Y-89000000D02*
X176000000Y-88000000D01*
%TO.N,VAA*%
X189000000Y-86000000D02*
X189000000Y-94500000D01*
X189000000Y-94500000D02*
X188500000Y-95000000D01*
%TO.N,/ADS1219/AnalogueConnection/V_{SS}*%
X205500000Y-79837919D02*
X204402081Y-78740000D01*
X205500000Y-97000000D02*
X205500000Y-79837919D01*
X156027500Y-99060000D02*
X160060000Y-99060000D01*
X196000000Y-75000000D02*
X200456250Y-79456250D01*
X156027500Y-89972500D02*
X162500000Y-83500000D01*
X203200000Y-97790000D02*
X204710000Y-97790000D01*
X162500000Y-81000000D02*
X160500000Y-79000000D01*
X175000000Y-102000000D02*
X176500000Y-103500000D01*
X161000000Y-100000000D02*
X164500000Y-103500000D01*
X162500000Y-83500000D02*
X162500000Y-81000000D01*
X195500000Y-99500000D02*
X199000000Y-99500000D01*
X199000000Y-99500000D02*
X199965000Y-100465000D01*
X164500000Y-103500000D02*
X173500000Y-103500000D01*
X195500000Y-75000000D02*
X196000000Y-75000000D01*
X191500000Y-103500000D02*
X195500000Y-99500000D01*
X176500000Y-103500000D02*
X191500000Y-103500000D01*
X155347500Y-78740000D02*
X160240000Y-78740000D01*
X173500000Y-103500000D02*
X175000000Y-102000000D01*
X156027500Y-99060000D02*
X156027500Y-89972500D01*
X160240000Y-78740000D02*
X160500000Y-79000000D01*
X160060000Y-99060000D02*
X161000000Y-100000000D01*
X204402081Y-78740000D02*
X203200000Y-78740000D01*
X204710000Y-97790000D02*
X205500000Y-97000000D01*
%TO.N,/ADS1219/AnalogueConnection/V_{DD}*%
X201165000Y-97665000D02*
X199000000Y-95500000D01*
X179055000Y-105500000D02*
X179555000Y-105000000D01*
X199000000Y-95500000D02*
X200250000Y-94250000D01*
X159680000Y-83820000D02*
X160500000Y-83000000D01*
X162500000Y-105000000D02*
X160500000Y-103000000D01*
X154500000Y-85227500D02*
X155907500Y-83820000D01*
X154500000Y-103000000D02*
X154500000Y-85227500D01*
X195500000Y-95500000D02*
X199000000Y-95500000D01*
X201165000Y-101835000D02*
X201165000Y-97665000D01*
X194000000Y-76500000D02*
X203200000Y-85700000D01*
X194000000Y-73000000D02*
X194000000Y-76500000D01*
X179555000Y-105000000D02*
X198000000Y-105000000D01*
X159360000Y-104140000D02*
X160500000Y-103000000D01*
X198000000Y-105000000D02*
X201165000Y-101835000D01*
X178555000Y-105000000D02*
X162500000Y-105000000D01*
X179055000Y-105500000D02*
X178555000Y-105000000D01*
X155500000Y-104000000D02*
X154500000Y-103000000D01*
X155500000Y-104140000D02*
X155500000Y-104000000D01*
X203200000Y-85700000D02*
X203200000Y-92710000D01*
X155907500Y-83820000D02*
X159680000Y-83820000D01*
X195000000Y-72000000D02*
X194000000Y-73000000D01*
X155500000Y-104140000D02*
X159360000Y-104140000D01*
%TO.N,Net-(J6-Pin_2)*%
X187500000Y-53500000D02*
X164500000Y-53500000D01*
X190500000Y-56500000D02*
X187500000Y-53500000D01*
X164500000Y-53500000D02*
X164000000Y-54000000D01*
%TO.N,Net-(J9-Pin_3)*%
X172150000Y-79350000D02*
X172500000Y-79000000D01*
X172150000Y-84650000D02*
X172150000Y-79350000D01*
%TO.N,/ADS1219/SCL*%
X190500000Y-76000000D02*
X190500000Y-71000000D01*
X190500000Y-71000000D02*
X189000000Y-69500000D01*
X185250000Y-80000000D02*
X186500000Y-80000000D01*
X186500000Y-80000000D02*
X190500000Y-76000000D01*
X188000000Y-66500000D02*
X181000000Y-66500000D01*
X181000000Y-66500000D02*
X179000000Y-68500000D01*
%TO.N,/ADS1219/SDA*%
X181500000Y-68000000D02*
X179000000Y-70500000D01*
X192112500Y-76387500D02*
X192112500Y-68000000D01*
X186500000Y-82000000D02*
X192112500Y-76387500D01*
X192112500Y-68000000D02*
X181500000Y-68000000D01*
X186500000Y-83000000D02*
X186500000Y-82000000D01*
%TD*%
%TA.AperFunction,Conductor*%
%TO.N,GND*%
G36*
X155672154Y-100001345D02*
G01*
X155672329Y-100000875D01*
X155678222Y-100003056D01*
X155678229Y-100003060D01*
X155693816Y-100007095D01*
X155711628Y-100013182D01*
X155726442Y-100019540D01*
X155799765Y-100034607D01*
X155802760Y-100035302D01*
X155875211Y-100054062D01*
X155875215Y-100054063D01*
X155891307Y-100054879D01*
X155909980Y-100057257D01*
X155918913Y-100059093D01*
X155925758Y-100060500D01*
X155925759Y-100060500D01*
X156000571Y-100060500D01*
X156003711Y-100060580D01*
X156030342Y-100061930D01*
X156078436Y-100064369D01*
X156094356Y-100061930D01*
X156113133Y-100060500D01*
X159594217Y-100060500D01*
X159661256Y-100080185D01*
X159681898Y-100096819D01*
X163372898Y-103787819D01*
X163406383Y-103849142D01*
X163401399Y-103918834D01*
X163359527Y-103974767D01*
X163294063Y-103999184D01*
X163285217Y-103999500D01*
X162965783Y-103999500D01*
X162898744Y-103979815D01*
X162878102Y-103963181D01*
X162489423Y-103574502D01*
X161226493Y-102311573D01*
X161224349Y-102309317D01*
X161174181Y-102253788D01*
X161113871Y-102209501D01*
X161111388Y-102207579D01*
X161053408Y-102160302D01*
X161039127Y-102152843D01*
X161023143Y-102142880D01*
X161010167Y-102133351D01*
X160942190Y-102102117D01*
X160939370Y-102100734D01*
X160911513Y-102086183D01*
X160873049Y-102066091D01*
X160873048Y-102066091D01*
X160857556Y-102061657D01*
X160839909Y-102055121D01*
X160825273Y-102048397D01*
X160825270Y-102048396D01*
X160825268Y-102048395D01*
X160825264Y-102048394D01*
X160825261Y-102048393D01*
X160752401Y-102031485D01*
X160749367Y-102030699D01*
X160730820Y-102025392D01*
X160677420Y-102010113D01*
X160671286Y-102009645D01*
X160661343Y-102008888D01*
X160642742Y-102006038D01*
X160636756Y-102004649D01*
X160627050Y-102002397D01*
X160552268Y-102000502D01*
X160549131Y-102000343D01*
X160474520Y-101994662D01*
X160474517Y-101994663D01*
X160458531Y-101996698D01*
X160439738Y-101997651D01*
X160423642Y-101997243D01*
X160423630Y-101997244D01*
X160349997Y-102010441D01*
X160346893Y-102010917D01*
X160272674Y-102020369D01*
X160272671Y-102020370D01*
X160257421Y-102025582D01*
X160239205Y-102030299D01*
X160223345Y-102033142D01*
X160153880Y-102060889D01*
X160150936Y-102061979D01*
X160080129Y-102086183D01*
X160080127Y-102086184D01*
X160066242Y-102094357D01*
X160049350Y-102102643D01*
X160034384Y-102108622D01*
X159971915Y-102149792D01*
X159969251Y-102151452D01*
X159904773Y-102189409D01*
X159892814Y-102200213D01*
X159877930Y-102211734D01*
X159864483Y-102220596D01*
X159811582Y-102273496D01*
X159809306Y-102275659D01*
X159753783Y-102325824D01*
X159744250Y-102338806D01*
X159731987Y-102353090D01*
X158981899Y-103103181D01*
X158920576Y-103136666D01*
X158894218Y-103139500D01*
X156105782Y-103139500D01*
X156038743Y-103119815D01*
X156018101Y-103103181D01*
X155536819Y-102621899D01*
X155503334Y-102560576D01*
X155500500Y-102534218D01*
X155500500Y-100114819D01*
X155520185Y-100047780D01*
X155572989Y-100002025D01*
X155642147Y-99992081D01*
X155672154Y-100001345D01*
G37*
%TD.AperFunction*%
%TA.AperFunction,Conductor*%
G36*
X198601256Y-100520185D02*
G01*
X198621898Y-100536819D01*
X199293420Y-101208340D01*
X199411593Y-101304698D01*
X199591951Y-101398909D01*
X199787582Y-101454886D01*
X199836854Y-101458638D01*
X199902202Y-101483355D01*
X199943816Y-101539480D01*
X199948480Y-101609194D01*
X199915117Y-101669960D01*
X197621899Y-103963181D01*
X197560576Y-103996666D01*
X197534218Y-103999500D01*
X192714783Y-103999500D01*
X192647744Y-103979815D01*
X192601989Y-103927011D01*
X192592045Y-103857853D01*
X192621070Y-103794297D01*
X192627102Y-103787819D01*
X195878101Y-100536819D01*
X195939424Y-100503334D01*
X195965782Y-100500500D01*
X198534217Y-100500500D01*
X198601256Y-100520185D01*
G37*
%TD.AperFunction*%
%TA.AperFunction,Conductor*%
G36*
X159532255Y-84840185D02*
G01*
X159578010Y-84892989D01*
X159587954Y-84962147D01*
X159558929Y-85025703D01*
X159552897Y-85032181D01*
X155712181Y-88872897D01*
X155650858Y-88906382D01*
X155581166Y-88901398D01*
X155525233Y-88859526D01*
X155500816Y-88794062D01*
X155500500Y-88785216D01*
X155500500Y-85693283D01*
X155520185Y-85626244D01*
X155536819Y-85605602D01*
X156285602Y-84856819D01*
X156346925Y-84823334D01*
X156373283Y-84820500D01*
X159465216Y-84820500D01*
X159532255Y-84840185D01*
G37*
%TD.AperFunction*%
%TA.AperFunction,Conductor*%
G36*
X203201132Y-44450542D02*
G01*
X203467225Y-44460498D01*
X203677583Y-44468764D01*
X203682032Y-44469102D01*
X203935974Y-44497715D01*
X204161099Y-44524360D01*
X204165303Y-44525006D01*
X204413451Y-44571958D01*
X204638986Y-44616819D01*
X204642853Y-44617721D01*
X204885652Y-44682779D01*
X205108288Y-44745569D01*
X205111911Y-44746713D01*
X205348532Y-44829511D01*
X205566363Y-44909873D01*
X205569661Y-44911200D01*
X205798568Y-45011071D01*
X205799704Y-45011581D01*
X206010484Y-45108752D01*
X206013428Y-45110207D01*
X206234014Y-45226790D01*
X206235262Y-45227469D01*
X206438027Y-45341023D01*
X206440662Y-45342587D01*
X206646667Y-45472028D01*
X206651743Y-45475218D01*
X206653185Y-45476152D01*
X206846495Y-45605318D01*
X206848867Y-45606984D01*
X207049333Y-45754935D01*
X207050874Y-45756110D01*
X207233553Y-45900123D01*
X207235549Y-45901767D01*
X207424378Y-46064267D01*
X207426007Y-46065721D01*
X207596852Y-46223648D01*
X207598594Y-46225324D01*
X207774674Y-46401404D01*
X207776362Y-46403159D01*
X207934277Y-46573991D01*
X207935738Y-46575628D01*
X208098223Y-46764440D01*
X208099883Y-46766456D01*
X208243868Y-46949099D01*
X208245063Y-46950665D01*
X208393014Y-47151131D01*
X208394680Y-47153503D01*
X208523834Y-47346795D01*
X208524780Y-47348255D01*
X208657390Y-47559301D01*
X208658988Y-47561993D01*
X208772508Y-47764698D01*
X208773228Y-47766022D01*
X208889777Y-47986542D01*
X208891259Y-47989541D01*
X208988414Y-48200288D01*
X208988936Y-48201451D01*
X209088796Y-48430333D01*
X209090138Y-48433668D01*
X209170486Y-48651463D01*
X209253284Y-48888086D01*
X209254436Y-48891735D01*
X209317221Y-49114353D01*
X209382270Y-49357118D01*
X209383188Y-49361057D01*
X209428039Y-49586534D01*
X209474989Y-49834677D01*
X209475640Y-49838917D01*
X209502279Y-50063983D01*
X209530894Y-50317950D01*
X209531237Y-50322459D01*
X209539521Y-50533300D01*
X209549457Y-50798868D01*
X209549500Y-50801152D01*
X209549500Y-120648847D01*
X209549457Y-120651132D01*
X209540985Y-120877555D01*
X209539521Y-120916699D01*
X209531237Y-121127539D01*
X209530894Y-121132048D01*
X209502279Y-121386015D01*
X209475640Y-121611081D01*
X209474989Y-121615321D01*
X209428039Y-121863464D01*
X209383192Y-122088927D01*
X209382270Y-122092880D01*
X209317221Y-122335645D01*
X209254436Y-122558263D01*
X209253284Y-122561912D01*
X209170486Y-122798535D01*
X209090138Y-123016330D01*
X209088796Y-123019665D01*
X208988936Y-123248547D01*
X208988414Y-123249710D01*
X208891259Y-123460457D01*
X208889769Y-123463472D01*
X208773228Y-123683976D01*
X208772508Y-123685300D01*
X208658988Y-123888005D01*
X208657390Y-123890697D01*
X208524780Y-124101743D01*
X208523834Y-124103203D01*
X208394680Y-124296495D01*
X208393014Y-124298867D01*
X208245063Y-124499333D01*
X208243868Y-124500899D01*
X208099906Y-124683515D01*
X208098210Y-124685574D01*
X207935743Y-124874364D01*
X207934277Y-124876007D01*
X207776362Y-125046839D01*
X207774674Y-125048594D01*
X207598594Y-125224674D01*
X207596839Y-125226362D01*
X207426007Y-125384277D01*
X207424364Y-125385743D01*
X207235574Y-125548210D01*
X207233515Y-125549906D01*
X207050899Y-125693868D01*
X207049333Y-125695063D01*
X206848867Y-125843014D01*
X206846495Y-125844680D01*
X206653203Y-125973834D01*
X206651743Y-125974780D01*
X206440697Y-126107390D01*
X206438005Y-126108988D01*
X206235300Y-126222508D01*
X206233976Y-126223228D01*
X206013472Y-126339769D01*
X206010457Y-126341259D01*
X205799710Y-126438414D01*
X205798547Y-126438936D01*
X205569665Y-126538796D01*
X205566330Y-126540138D01*
X205348535Y-126620486D01*
X205111912Y-126703284D01*
X205108263Y-126704436D01*
X204885645Y-126767221D01*
X204642880Y-126832270D01*
X204638927Y-126833192D01*
X204413464Y-126878039D01*
X204165321Y-126924989D01*
X204161081Y-126925640D01*
X203936015Y-126952279D01*
X203682048Y-126980894D01*
X203677538Y-126981237D01*
X203466889Y-126989513D01*
X203303648Y-126995621D01*
X203201132Y-126999457D01*
X203198848Y-126999500D01*
X152401152Y-126999500D01*
X152398867Y-126999457D01*
X152291409Y-126995436D01*
X152133109Y-126989513D01*
X151922460Y-126981237D01*
X151917950Y-126980894D01*
X151663983Y-126952279D01*
X151438917Y-126925640D01*
X151434677Y-126924989D01*
X151186534Y-126878039D01*
X150961057Y-126833188D01*
X150957118Y-126832270D01*
X150714353Y-126767221D01*
X150491735Y-126704436D01*
X150488086Y-126703284D01*
X150251463Y-126620486D01*
X150033668Y-126540138D01*
X150030333Y-126538796D01*
X149801451Y-126438936D01*
X149800288Y-126438414D01*
X149589541Y-126341259D01*
X149586542Y-126339777D01*
X149451687Y-126268504D01*
X149366022Y-126223228D01*
X149364698Y-126222508D01*
X149161993Y-126108988D01*
X149159313Y-126107397D01*
X149037545Y-126030885D01*
X148948255Y-125974780D01*
X148946795Y-125973834D01*
X148753503Y-125844680D01*
X148751131Y-125843014D01*
X148550665Y-125695063D01*
X148549099Y-125693868D01*
X148366456Y-125549883D01*
X148364440Y-125548223D01*
X148175628Y-125385738D01*
X148173991Y-125384277D01*
X148003159Y-125226362D01*
X148001404Y-125224674D01*
X147825324Y-125048594D01*
X147823648Y-125046852D01*
X147665721Y-124876007D01*
X147664255Y-124874364D01*
X147501767Y-124685549D01*
X147500123Y-124683553D01*
X147356110Y-124500874D01*
X147354935Y-124499333D01*
X147206984Y-124298867D01*
X147205318Y-124296495D01*
X147076164Y-124103203D01*
X147075218Y-124101743D01*
X147072028Y-124096667D01*
X146942587Y-123890662D01*
X146941023Y-123888027D01*
X146827469Y-123685262D01*
X146826790Y-123684014D01*
X146710207Y-123463428D01*
X146708752Y-123460484D01*
X146611581Y-123249704D01*
X146611062Y-123248547D01*
X146511202Y-123019665D01*
X146509873Y-123016363D01*
X146429507Y-122798521D01*
X146346714Y-122561912D01*
X146345569Y-122558288D01*
X146282779Y-122335652D01*
X146217721Y-122092853D01*
X146216819Y-122088986D01*
X146171958Y-121863451D01*
X146125006Y-121615303D01*
X146124360Y-121611099D01*
X146097715Y-121385974D01*
X146069102Y-121132032D01*
X146068764Y-121127581D01*
X146060489Y-120916983D01*
X146050542Y-120651131D01*
X146050521Y-120650001D01*
X170714390Y-120650001D01*
X170734804Y-120935433D01*
X170795628Y-121215037D01*
X170795630Y-121215043D01*
X170795631Y-121215046D01*
X170895633Y-121483161D01*
X170895635Y-121483166D01*
X171032770Y-121734309D01*
X171032775Y-121734317D01*
X171204254Y-121963387D01*
X171204270Y-121963405D01*
X171406594Y-122165729D01*
X171406612Y-122165745D01*
X171635682Y-122337224D01*
X171635690Y-122337229D01*
X171886833Y-122474364D01*
X171886832Y-122474364D01*
X171886836Y-122474365D01*
X171886839Y-122474367D01*
X172154954Y-122574369D01*
X172154960Y-122574370D01*
X172154962Y-122574371D01*
X172434566Y-122635195D01*
X172434568Y-122635195D01*
X172434572Y-122635196D01*
X172688220Y-122653337D01*
X172719999Y-122655610D01*
X172720000Y-122655610D01*
X172720001Y-122655610D01*
X172748595Y-122653564D01*
X173005428Y-122635196D01*
X173195742Y-122593796D01*
X173285037Y-122574371D01*
X173285037Y-122574370D01*
X173285046Y-122574369D01*
X173553161Y-122474367D01*
X173804315Y-122337226D01*
X174033395Y-122165739D01*
X174235739Y-121963395D01*
X174407226Y-121734315D01*
X174544367Y-121483161D01*
X174644369Y-121215046D01*
X174705196Y-120935428D01*
X174725610Y-120650001D01*
X175794390Y-120650001D01*
X175814804Y-120935433D01*
X175875628Y-121215037D01*
X175875630Y-121215043D01*
X175875631Y-121215046D01*
X175975633Y-121483161D01*
X175975635Y-121483166D01*
X176112770Y-121734309D01*
X176112775Y-121734317D01*
X176284254Y-121963387D01*
X176284270Y-121963405D01*
X176486594Y-122165729D01*
X176486612Y-122165745D01*
X176715682Y-122337224D01*
X176715690Y-122337229D01*
X176966833Y-122474364D01*
X176966832Y-122474364D01*
X176966836Y-122474365D01*
X176966839Y-122474367D01*
X177234954Y-122574369D01*
X177234960Y-122574370D01*
X177234962Y-122574371D01*
X177514566Y-122635195D01*
X177514568Y-122635195D01*
X177514572Y-122635196D01*
X177768220Y-122653337D01*
X177799999Y-122655610D01*
X177800000Y-122655610D01*
X177800001Y-122655610D01*
X177828595Y-122653564D01*
X178085428Y-122635196D01*
X178275742Y-122593796D01*
X178365037Y-122574371D01*
X178365037Y-122574370D01*
X178365046Y-122574369D01*
X178633161Y-122474367D01*
X178884315Y-122337226D01*
X179070473Y-122197870D01*
X180879500Y-122197870D01*
X180879501Y-122197876D01*
X180885908Y-122257483D01*
X180936202Y-122392328D01*
X180936206Y-122392335D01*
X181022452Y-122507544D01*
X181022455Y-122507547D01*
X181137664Y-122593793D01*
X181137671Y-122593797D01*
X181272517Y-122644091D01*
X181272516Y-122644091D01*
X181279444Y-122644835D01*
X181332127Y-122650500D01*
X184427872Y-122650499D01*
X184487483Y-122644091D01*
X184622331Y-122593796D01*
X184737546Y-122507546D01*
X184823796Y-122392331D01*
X184874091Y-122257483D01*
X184880500Y-122197873D01*
X184880499Y-119102128D01*
X184874091Y-119042517D01*
X184844347Y-118962770D01*
X184823797Y-118907671D01*
X184823793Y-118907664D01*
X184737547Y-118792455D01*
X184737544Y-118792452D01*
X184622335Y-118706206D01*
X184622328Y-118706202D01*
X184487482Y-118655908D01*
X184487483Y-118655908D01*
X184427883Y-118649501D01*
X184427881Y-118649500D01*
X184427873Y-118649500D01*
X184427864Y-118649500D01*
X181332129Y-118649500D01*
X181332123Y-118649501D01*
X181272516Y-118655908D01*
X181137671Y-118706202D01*
X181137664Y-118706206D01*
X181022455Y-118792452D01*
X181022452Y-118792455D01*
X180936206Y-118907664D01*
X180936202Y-118907671D01*
X180885908Y-119042517D01*
X180879501Y-119102116D01*
X180879501Y-119102123D01*
X180879500Y-119102135D01*
X180879500Y-122197870D01*
X179070473Y-122197870D01*
X179113395Y-122165739D01*
X179315739Y-121963395D01*
X179487226Y-121734315D01*
X179624367Y-121483161D01*
X179724369Y-121215046D01*
X179785196Y-120935428D01*
X179805610Y-120650000D01*
X179785196Y-120364572D01*
X179724369Y-120084954D01*
X179624367Y-119816839D01*
X179487226Y-119565685D01*
X179487224Y-119565682D01*
X179315745Y-119336612D01*
X179315729Y-119336594D01*
X179113405Y-119134270D01*
X179113387Y-119134254D01*
X178884317Y-118962775D01*
X178884309Y-118962770D01*
X178633166Y-118825635D01*
X178633167Y-118825635D01*
X178525914Y-118785632D01*
X178365046Y-118725631D01*
X178365043Y-118725630D01*
X178365037Y-118725628D01*
X178085433Y-118664804D01*
X177800001Y-118644390D01*
X177799999Y-118644390D01*
X177514566Y-118664804D01*
X177234962Y-118725628D01*
X176966833Y-118825635D01*
X176715690Y-118962770D01*
X176715682Y-118962775D01*
X176486612Y-119134254D01*
X176486594Y-119134270D01*
X176284270Y-119336594D01*
X176284254Y-119336612D01*
X176112775Y-119565682D01*
X176112770Y-119565690D01*
X175975635Y-119816833D01*
X175875628Y-120084962D01*
X175814804Y-120364566D01*
X175794390Y-120649998D01*
X175794390Y-120650001D01*
X174725610Y-120650001D01*
X174725610Y-120650000D01*
X174705196Y-120364572D01*
X174644369Y-120084954D01*
X174544367Y-119816839D01*
X174407226Y-119565685D01*
X174407224Y-119565682D01*
X174235745Y-119336612D01*
X174235729Y-119336594D01*
X174033405Y-119134270D01*
X174033387Y-119134254D01*
X173804317Y-118962775D01*
X173804309Y-118962770D01*
X173553166Y-118825635D01*
X173553167Y-118825635D01*
X173445914Y-118785632D01*
X173285046Y-118725631D01*
X173285043Y-118725630D01*
X173285037Y-118725628D01*
X173005433Y-118664804D01*
X172720001Y-118644390D01*
X172719999Y-118644390D01*
X172434566Y-118664804D01*
X172154962Y-118725628D01*
X171886833Y-118825635D01*
X171635690Y-118962770D01*
X171635682Y-118962775D01*
X171406612Y-119134254D01*
X171406594Y-119134270D01*
X171204270Y-119336594D01*
X171204254Y-119336612D01*
X171032775Y-119565682D01*
X171032770Y-119565690D01*
X170895635Y-119816833D01*
X170795628Y-120084962D01*
X170734804Y-120364566D01*
X170714390Y-120649998D01*
X170714390Y-120650001D01*
X146050521Y-120650001D01*
X146050500Y-120648848D01*
X146050500Y-104140000D01*
X151044341Y-104140000D01*
X151064936Y-104375403D01*
X151064938Y-104375413D01*
X151126094Y-104603655D01*
X151126096Y-104603659D01*
X151126097Y-104603663D01*
X151196931Y-104755567D01*
X151225965Y-104817830D01*
X151225967Y-104817834D01*
X151329295Y-104965401D01*
X151361505Y-105011401D01*
X151528599Y-105178495D01*
X151625384Y-105246265D01*
X151722165Y-105314032D01*
X151722167Y-105314033D01*
X151722170Y-105314035D01*
X151936337Y-105413903D01*
X152164592Y-105475063D01*
X152352918Y-105491539D01*
X152399999Y-105495659D01*
X152400000Y-105495659D01*
X152400001Y-105495659D01*
X152439234Y-105492226D01*
X152635408Y-105475063D01*
X152863663Y-105413903D01*
X153077830Y-105314035D01*
X153271401Y-105178495D01*
X153438495Y-105011401D01*
X153574035Y-104817830D01*
X153673903Y-104603663D01*
X153735063Y-104375408D01*
X153755659Y-104140000D01*
X153740344Y-103964959D01*
X153754110Y-103896463D01*
X153802725Y-103846280D01*
X153870754Y-103830346D01*
X153936597Y-103853721D01*
X153951553Y-103866474D01*
X154533367Y-104448288D01*
X154563999Y-104498847D01*
X154575838Y-104536581D01*
X154575842Y-104536591D01*
X154583657Y-104550670D01*
X154591517Y-104567777D01*
X154597111Y-104582881D01*
X154597114Y-104582887D01*
X154636694Y-104646390D01*
X154638288Y-104649096D01*
X154674592Y-104714503D01*
X154674593Y-104714504D01*
X154685078Y-104726718D01*
X154696222Y-104741894D01*
X154704745Y-104755567D01*
X154704745Y-104755568D01*
X154704748Y-104755571D01*
X154756315Y-104809819D01*
X154758392Y-104812118D01*
X154776204Y-104832866D01*
X154807132Y-104868894D01*
X154807133Y-104868895D01*
X154819869Y-104878753D01*
X154833844Y-104891379D01*
X154844940Y-104903052D01*
X154906340Y-104945789D01*
X154908873Y-104947648D01*
X154930502Y-104964390D01*
X154968042Y-104993448D01*
X154982515Y-105000547D01*
X154998726Y-105010090D01*
X155011951Y-105019295D01*
X155069788Y-105044115D01*
X155080696Y-105048796D01*
X155083552Y-105050108D01*
X155150724Y-105083058D01*
X155150726Y-105083058D01*
X155150729Y-105083060D01*
X155166316Y-105087095D01*
X155184128Y-105093182D01*
X155198942Y-105099540D01*
X155272265Y-105114607D01*
X155275260Y-105115302D01*
X155347711Y-105134062D01*
X155347715Y-105134063D01*
X155363807Y-105134879D01*
X155382480Y-105137257D01*
X155391413Y-105139093D01*
X155398258Y-105140500D01*
X155398259Y-105140500D01*
X155473071Y-105140500D01*
X155476211Y-105140580D01*
X155502842Y-105141930D01*
X155550936Y-105144369D01*
X155566856Y-105141930D01*
X155585633Y-105140500D01*
X159346507Y-105140500D01*
X159348069Y-105140519D01*
X159385283Y-105141462D01*
X159436358Y-105142757D01*
X159436358Y-105142756D01*
X159436363Y-105142757D01*
X159496753Y-105131932D01*
X159501412Y-105131280D01*
X159543607Y-105126988D01*
X159562438Y-105125074D01*
X159595227Y-105114786D01*
X159602840Y-105112918D01*
X159636653Y-105106858D01*
X159693621Y-105084101D01*
X159698053Y-105082524D01*
X159756588Y-105064159D01*
X159786627Y-105047484D01*
X159793708Y-105044122D01*
X159825617Y-105031377D01*
X159876854Y-104997608D01*
X159880851Y-104995187D01*
X159934502Y-104965409D01*
X159960568Y-104943030D01*
X159966843Y-104938300D01*
X159995519Y-104919402D01*
X160038917Y-104876002D01*
X160042336Y-104872834D01*
X160088895Y-104832866D01*
X160109931Y-104805688D01*
X160115101Y-104799818D01*
X160412318Y-104502601D01*
X160473642Y-104469116D01*
X160543334Y-104474100D01*
X160587681Y-104502601D01*
X161782987Y-105697907D01*
X161784052Y-105698998D01*
X161819252Y-105736028D01*
X161844940Y-105763052D01*
X161844947Y-105763058D01*
X161879053Y-105786795D01*
X161895303Y-105798106D01*
X161899044Y-105800926D01*
X161946593Y-105839698D01*
X161977045Y-105855604D01*
X161983756Y-105859671D01*
X162011951Y-105879295D01*
X162068332Y-105903490D01*
X162072567Y-105905501D01*
X162126951Y-105933909D01*
X162159973Y-105943356D01*
X162167365Y-105945989D01*
X162198940Y-105959539D01*
X162198941Y-105959540D01*
X162212054Y-105962234D01*
X162259055Y-105971892D01*
X162263595Y-105973006D01*
X162322582Y-105989886D01*
X162356841Y-105992494D01*
X162364609Y-105993585D01*
X162398255Y-106000500D01*
X162398259Y-106000500D01*
X162459601Y-106000500D01*
X162464308Y-106000678D01*
X162491597Y-106002757D01*
X162525475Y-106005337D01*
X162525475Y-106005336D01*
X162525476Y-106005337D01*
X162559559Y-106000996D01*
X162567389Y-106000500D01*
X178089217Y-106000500D01*
X178156256Y-106020185D01*
X178176897Y-106036818D01*
X178328513Y-106188434D01*
X178330658Y-106190691D01*
X178380815Y-106246207D01*
X178380816Y-106246208D01*
X178380821Y-106246213D01*
X178417768Y-106273344D01*
X178441121Y-106290493D01*
X178443604Y-106292415D01*
X178501588Y-106339694D01*
X178501591Y-106339697D01*
X178501593Y-106339698D01*
X178515870Y-106347155D01*
X178531852Y-106357117D01*
X178544831Y-106366648D01*
X178544834Y-106366650D01*
X178583144Y-106384252D01*
X178612821Y-106397887D01*
X178615629Y-106399265D01*
X178681950Y-106433909D01*
X178697436Y-106438340D01*
X178715097Y-106444880D01*
X178729732Y-106451605D01*
X178802616Y-106468518D01*
X178805650Y-106469304D01*
X178877578Y-106489886D01*
X178877582Y-106489887D01*
X178893641Y-106491109D01*
X178912248Y-106493959D01*
X178927946Y-106497603D01*
X179002753Y-106499498D01*
X179005885Y-106499656D01*
X179080477Y-106505337D01*
X179096445Y-106503302D01*
X179115257Y-106502348D01*
X179131363Y-106502757D01*
X179205031Y-106489552D01*
X179208084Y-106489084D01*
X179282328Y-106479630D01*
X179297567Y-106474420D01*
X179315802Y-106469698D01*
X179331653Y-106466858D01*
X179401138Y-106439101D01*
X179404047Y-106438024D01*
X179474872Y-106413816D01*
X179488759Y-106405640D01*
X179505658Y-106397351D01*
X179520617Y-106391377D01*
X179583116Y-106350185D01*
X179585725Y-106348560D01*
X179650227Y-106310591D01*
X179662177Y-106299793D01*
X179677071Y-106288264D01*
X179690519Y-106279402D01*
X179743459Y-106226460D01*
X179745666Y-106224362D01*
X179801213Y-106174179D01*
X179810750Y-106161189D01*
X179823011Y-106146909D01*
X179933104Y-106036818D01*
X179994427Y-106003334D01*
X180020784Y-106000500D01*
X197986507Y-106000500D01*
X197988069Y-106000519D01*
X198025283Y-106001462D01*
X198076358Y-106002757D01*
X198076358Y-106002756D01*
X198076363Y-106002757D01*
X198136753Y-105991932D01*
X198141412Y-105991280D01*
X198183607Y-105986988D01*
X198202438Y-105985074D01*
X198235227Y-105974786D01*
X198242840Y-105972918D01*
X198276653Y-105966858D01*
X198333621Y-105944101D01*
X198338053Y-105942524D01*
X198396588Y-105924159D01*
X198426627Y-105907484D01*
X198433708Y-105904122D01*
X198465617Y-105891377D01*
X198516854Y-105857608D01*
X198520851Y-105855187D01*
X198574502Y-105825409D01*
X198600568Y-105803030D01*
X198606843Y-105798300D01*
X198607145Y-105798101D01*
X198635519Y-105779402D01*
X198678892Y-105736027D01*
X198682350Y-105732823D01*
X198685613Y-105730020D01*
X198728895Y-105692866D01*
X198749928Y-105665691D01*
X198755098Y-105659821D01*
X201862981Y-102551937D01*
X201863994Y-102550950D01*
X201928053Y-102490059D01*
X201963099Y-102439706D01*
X201965938Y-102435941D01*
X201969612Y-102431435D01*
X202004698Y-102388407D01*
X202020601Y-102357960D01*
X202024674Y-102351239D01*
X202033327Y-102338806D01*
X202044295Y-102323049D01*
X202068492Y-102266660D01*
X202070498Y-102262435D01*
X202098909Y-102208049D01*
X202108360Y-102175015D01*
X202110991Y-102167628D01*
X202114135Y-102160302D01*
X202124540Y-102136058D01*
X202136893Y-102075940D01*
X202138006Y-102071412D01*
X202154887Y-102012418D01*
X202157495Y-101978155D01*
X202158587Y-101970376D01*
X202165500Y-101936741D01*
X202165500Y-101875375D01*
X202165676Y-101870721D01*
X202170337Y-101809524D01*
X202170335Y-101809513D01*
X202170283Y-101807408D01*
X202170584Y-101806274D01*
X202170815Y-101803251D01*
X202171378Y-101803293D01*
X202188257Y-101739889D01*
X202239880Y-101692807D01*
X202298806Y-101680855D01*
X202298806Y-101680500D01*
X202300560Y-101680499D01*
X202300891Y-101680433D01*
X202302098Y-101680496D01*
X202302127Y-101680500D01*
X204097872Y-101680499D01*
X204157483Y-101674091D01*
X204292331Y-101623796D01*
X204407546Y-101537546D01*
X204493796Y-101422331D01*
X204544091Y-101287483D01*
X204550500Y-101227873D01*
X204550499Y-99432128D01*
X204544091Y-99372517D01*
X204529183Y-99332547D01*
X204493797Y-99237671D01*
X204493793Y-99237664D01*
X204407547Y-99122455D01*
X204407544Y-99122452D01*
X204292335Y-99036206D01*
X204292328Y-99036202D01*
X204277527Y-99030682D01*
X204221593Y-98988811D01*
X204197176Y-98923346D01*
X204212028Y-98855073D01*
X204261433Y-98805668D01*
X204320860Y-98790500D01*
X204696507Y-98790500D01*
X204698069Y-98790519D01*
X204735283Y-98791462D01*
X204786358Y-98792757D01*
X204786358Y-98792756D01*
X204786363Y-98792757D01*
X204846753Y-98781932D01*
X204851412Y-98781280D01*
X204893607Y-98776988D01*
X204912438Y-98775074D01*
X204945227Y-98764786D01*
X204952840Y-98762918D01*
X204986653Y-98756858D01*
X205043621Y-98734101D01*
X205048053Y-98732524D01*
X205106588Y-98714159D01*
X205136627Y-98697484D01*
X205143708Y-98694122D01*
X205175617Y-98681377D01*
X205226854Y-98647608D01*
X205230851Y-98645187D01*
X205284502Y-98615409D01*
X205310568Y-98593030D01*
X205316843Y-98588300D01*
X205345519Y-98569402D01*
X205388917Y-98526002D01*
X205392336Y-98522834D01*
X205438895Y-98482866D01*
X205459931Y-98455688D01*
X205465101Y-98449818D01*
X206198001Y-97716918D01*
X206199014Y-97715931D01*
X206263053Y-97655059D01*
X206298112Y-97604686D01*
X206300925Y-97600957D01*
X206339698Y-97553407D01*
X206355607Y-97522948D01*
X206359667Y-97516248D01*
X206379295Y-97488049D01*
X206403492Y-97431660D01*
X206405498Y-97427435D01*
X206433909Y-97373049D01*
X206443360Y-97340015D01*
X206445991Y-97332628D01*
X206459540Y-97301058D01*
X206471893Y-97240940D01*
X206473006Y-97236412D01*
X206489887Y-97177418D01*
X206492495Y-97143155D01*
X206493587Y-97135376D01*
X206493623Y-97135205D01*
X206500500Y-97101741D01*
X206500500Y-97040401D01*
X206500679Y-97035692D01*
X206505337Y-96974525D01*
X206500997Y-96940441D01*
X206500500Y-96932602D01*
X206500500Y-79851410D01*
X206500520Y-79849840D01*
X206502757Y-79761560D01*
X206502756Y-79761559D01*
X206502757Y-79761556D01*
X206491933Y-79701168D01*
X206491280Y-79696506D01*
X206485074Y-79635482D01*
X206485074Y-79635481D01*
X206474784Y-79602687D01*
X206472917Y-79595074D01*
X206466858Y-79561266D01*
X206466857Y-79561264D01*
X206463719Y-79553409D01*
X206444100Y-79504293D01*
X206442521Y-79499857D01*
X206432539Y-79468042D01*
X206424159Y-79441331D01*
X206424158Y-79441329D01*
X206424157Y-79441326D01*
X206411117Y-79417834D01*
X206407485Y-79411290D01*
X206404117Y-79404197D01*
X206391378Y-79372305D01*
X206391377Y-79372302D01*
X206357620Y-79321082D01*
X206355180Y-79317053D01*
X206344379Y-79297594D01*
X206325409Y-79263417D01*
X206325407Y-79263414D01*
X206303033Y-79237353D01*
X206298302Y-79231078D01*
X206279402Y-79202400D01*
X206236012Y-79159010D01*
X206232822Y-79155567D01*
X206192867Y-79109025D01*
X206192863Y-79109021D01*
X206165698Y-79087993D01*
X206159811Y-79082809D01*
X205119091Y-78042090D01*
X205117995Y-78040966D01*
X205057142Y-77976949D01*
X205057141Y-77976948D01*
X205057140Y-77976947D01*
X205029285Y-77957559D01*
X205006790Y-77941902D01*
X205003027Y-77939064D01*
X204955494Y-77900305D01*
X204955487Y-77900300D01*
X204925040Y-77884397D01*
X204918332Y-77880334D01*
X204890130Y-77860705D01*
X204890127Y-77860703D01*
X204890126Y-77860703D01*
X204890122Y-77860701D01*
X204833761Y-77836514D01*
X204829505Y-77834493D01*
X204775138Y-77806094D01*
X204775131Y-77806091D01*
X204775130Y-77806091D01*
X204769089Y-77804362D01*
X204742111Y-77796642D01*
X204734711Y-77794008D01*
X204703138Y-77780459D01*
X204703139Y-77780459D01*
X204643047Y-77768109D01*
X204638472Y-77766986D01*
X204579501Y-77750113D01*
X204579506Y-77750113D01*
X204545239Y-77747503D01*
X204537461Y-77746412D01*
X204503823Y-77739500D01*
X204503822Y-77739500D01*
X204442483Y-77739500D01*
X204437776Y-77739321D01*
X204432202Y-77738896D01*
X204376605Y-77734662D01*
X204356670Y-77737201D01*
X204342521Y-77739003D01*
X204334692Y-77739500D01*
X204160758Y-77739500D01*
X204093719Y-77719815D01*
X204073077Y-77703181D01*
X204071402Y-77701506D01*
X204071395Y-77701501D01*
X203877834Y-77565967D01*
X203877830Y-77565965D01*
X203828174Y-77542810D01*
X203663663Y-77466097D01*
X203663659Y-77466096D01*
X203663655Y-77466094D01*
X203435413Y-77404938D01*
X203435403Y-77404936D01*
X203200001Y-77384341D01*
X203199999Y-77384341D01*
X202964596Y-77404936D01*
X202964586Y-77404938D01*
X202736344Y-77466094D01*
X202736335Y-77466098D01*
X202522171Y-77565964D01*
X202522169Y-77565965D01*
X202328597Y-77701505D01*
X202161505Y-77868597D01*
X202025965Y-78062169D01*
X202025964Y-78062171D01*
X201926098Y-78276335D01*
X201926094Y-78276344D01*
X201864938Y-78504586D01*
X201864936Y-78504596D01*
X201844341Y-78739999D01*
X201844341Y-78740000D01*
X201864936Y-78975403D01*
X201864938Y-78975413D01*
X201926094Y-79203655D01*
X201926096Y-79203659D01*
X201926097Y-79203663D01*
X202008272Y-79379887D01*
X202025965Y-79417830D01*
X202025967Y-79417834D01*
X202161501Y-79611395D01*
X202161506Y-79611402D01*
X202283430Y-79733326D01*
X202316915Y-79794649D01*
X202311931Y-79864341D01*
X202270059Y-79920274D01*
X202239083Y-79937189D01*
X202107669Y-79986203D01*
X202107664Y-79986206D01*
X201992455Y-80072452D01*
X201992452Y-80072455D01*
X201906206Y-80187664D01*
X201906202Y-80187671D01*
X201855908Y-80322517D01*
X201849501Y-80382116D01*
X201849500Y-80382135D01*
X201849500Y-82177870D01*
X201849501Y-82177876D01*
X201855908Y-82237483D01*
X201906202Y-82372328D01*
X201906206Y-82372335D01*
X201992452Y-82487544D01*
X201992455Y-82487547D01*
X202107664Y-82573793D01*
X202107671Y-82573797D01*
X202242517Y-82624091D01*
X202242516Y-82624091D01*
X202249444Y-82624835D01*
X202302127Y-82630500D01*
X204097872Y-82630499D01*
X204157483Y-82624091D01*
X204292331Y-82573796D01*
X204301186Y-82567166D01*
X204366649Y-82542747D01*
X204434923Y-82557596D01*
X204484330Y-82607000D01*
X204499500Y-82666431D01*
X204499500Y-91818074D01*
X204479815Y-91885113D01*
X204427011Y-91930868D01*
X204357853Y-91940812D01*
X204294297Y-91911787D01*
X204273926Y-91889198D01*
X204238495Y-91838598D01*
X204236819Y-91836922D01*
X204236315Y-91836000D01*
X204235014Y-91834449D01*
X204235325Y-91834187D01*
X204203334Y-91775599D01*
X204200500Y-91749241D01*
X204200500Y-85713491D01*
X204200520Y-85711921D01*
X204202757Y-85623641D01*
X204202756Y-85623640D01*
X204202757Y-85623637D01*
X204191933Y-85563249D01*
X204191280Y-85558587D01*
X204186198Y-85508620D01*
X204185074Y-85497562D01*
X204174784Y-85464768D01*
X204172917Y-85457155D01*
X204170783Y-85445250D01*
X204166858Y-85423347D01*
X204144095Y-85366361D01*
X204142527Y-85361955D01*
X204133367Y-85332760D01*
X204124161Y-85303416D01*
X204124160Y-85303414D01*
X204107492Y-85273385D01*
X204104124Y-85266295D01*
X204091378Y-85234383D01*
X204057612Y-85183150D01*
X204055183Y-85179142D01*
X204025409Y-85125498D01*
X204003034Y-85099434D01*
X203998306Y-85093163D01*
X203979404Y-85064484D01*
X203979399Y-85064478D01*
X203947101Y-85032181D01*
X203936019Y-85021099D01*
X203932828Y-85017655D01*
X203908088Y-84988836D01*
X203892866Y-84971105D01*
X203881293Y-84962147D01*
X203865694Y-84950072D01*
X203859807Y-84944887D01*
X195082905Y-76167985D01*
X195049420Y-76106662D01*
X195054404Y-76036970D01*
X195096276Y-75981037D01*
X195161740Y-75956620D01*
X195195547Y-75958842D01*
X195198940Y-75959539D01*
X195198942Y-75959540D01*
X195398259Y-76000500D01*
X195534217Y-76000500D01*
X195601256Y-76020185D01*
X195621898Y-76036819D01*
X197718429Y-78133349D01*
X199784670Y-80199590D01*
X199902843Y-80295948D01*
X200083201Y-80390159D01*
X200278832Y-80446136D01*
X200467367Y-80460493D01*
X200481725Y-80461587D01*
X200481726Y-80461587D01*
X200683571Y-80435881D01*
X200683571Y-80435880D01*
X200683578Y-80435880D01*
X200876122Y-80370066D01*
X201051477Y-80266840D01*
X201202463Y-80130429D01*
X201322899Y-79966417D01*
X201407855Y-79781518D01*
X201408946Y-79776819D01*
X201453852Y-79583304D01*
X201454609Y-79553409D01*
X201459006Y-79379887D01*
X201423108Y-79179597D01*
X201347627Y-78990633D01*
X201347622Y-78990626D01*
X201347620Y-78990621D01*
X201235653Y-78820732D01*
X201235650Y-78820728D01*
X196717012Y-74302092D01*
X196715915Y-74300967D01*
X196655061Y-74236949D01*
X196655060Y-74236948D01*
X196655059Y-74236947D01*
X196627204Y-74217559D01*
X196604709Y-74201902D01*
X196600946Y-74199064D01*
X196553413Y-74160305D01*
X196553406Y-74160300D01*
X196522959Y-74144397D01*
X196516251Y-74140334D01*
X196488049Y-74120705D01*
X196488046Y-74120703D01*
X196488045Y-74120703D01*
X196488041Y-74120701D01*
X196431680Y-74096514D01*
X196427424Y-74094493D01*
X196373057Y-74066094D01*
X196373050Y-74066091D01*
X196373049Y-74066091D01*
X196367008Y-74064362D01*
X196340030Y-74056642D01*
X196332630Y-74054008D01*
X196301057Y-74040459D01*
X196301058Y-74040459D01*
X196240966Y-74028109D01*
X196236391Y-74026986D01*
X196177420Y-74010113D01*
X196177425Y-74010113D01*
X196143158Y-74007503D01*
X196135380Y-74006412D01*
X196101742Y-73999500D01*
X196101741Y-73999500D01*
X196040402Y-73999500D01*
X196035695Y-73999321D01*
X196030121Y-73998896D01*
X195974524Y-73994662D01*
X195954589Y-73997201D01*
X195940440Y-73999003D01*
X195932611Y-73999500D01*
X195449257Y-73999500D01*
X195297560Y-74014925D01*
X195161621Y-74057577D01*
X195091763Y-74058865D01*
X195032299Y-74022179D01*
X195002108Y-73959169D01*
X195000500Y-73939264D01*
X195000500Y-73660000D01*
X201844341Y-73660000D01*
X201864936Y-73895403D01*
X201864938Y-73895413D01*
X201926094Y-74123655D01*
X201926096Y-74123659D01*
X201926097Y-74123663D01*
X202009039Y-74301532D01*
X202025965Y-74337830D01*
X202025967Y-74337834D01*
X202112560Y-74461501D01*
X202161505Y-74531401D01*
X202328599Y-74698495D01*
X202425384Y-74766265D01*
X202522165Y-74834032D01*
X202522167Y-74834033D01*
X202522170Y-74834035D01*
X202736337Y-74933903D01*
X202964592Y-74995063D01*
X203152918Y-75011539D01*
X203199999Y-75015659D01*
X203200000Y-75015659D01*
X203200001Y-75015659D01*
X203239234Y-75012226D01*
X203435408Y-74995063D01*
X203663663Y-74933903D01*
X203877830Y-74834035D01*
X204071401Y-74698495D01*
X204238495Y-74531401D01*
X204374035Y-74337830D01*
X204473903Y-74123663D01*
X204535063Y-73895408D01*
X204555659Y-73660000D01*
X204535063Y-73424592D01*
X204473903Y-73196337D01*
X204374035Y-72982171D01*
X204279889Y-72847715D01*
X204238494Y-72788597D01*
X204071402Y-72621506D01*
X204071395Y-72621501D01*
X203877834Y-72485967D01*
X203877830Y-72485965D01*
X203839383Y-72468037D01*
X203663663Y-72386097D01*
X203663659Y-72386096D01*
X203663655Y-72386094D01*
X203435413Y-72324938D01*
X203435403Y-72324936D01*
X203200001Y-72304341D01*
X203199999Y-72304341D01*
X202964596Y-72324936D01*
X202964586Y-72324938D01*
X202736344Y-72386094D01*
X202736335Y-72386098D01*
X202522171Y-72485964D01*
X202522169Y-72485965D01*
X202328597Y-72621505D01*
X202161505Y-72788597D01*
X202025965Y-72982169D01*
X202025964Y-72982171D01*
X201926098Y-73196335D01*
X201926094Y-73196344D01*
X201864938Y-73424586D01*
X201864936Y-73424596D01*
X201844341Y-73659999D01*
X201844341Y-73660000D01*
X195000500Y-73660000D01*
X195000500Y-73465783D01*
X195020185Y-73398744D01*
X195036819Y-73378102D01*
X195363985Y-73050936D01*
X195743341Y-72671580D01*
X195839698Y-72553407D01*
X195933909Y-72373049D01*
X195989887Y-72177418D01*
X196005337Y-71974523D01*
X195998969Y-71924524D01*
X195979631Y-71772678D01*
X195979630Y-71772676D01*
X195979630Y-71772672D01*
X195913816Y-71580127D01*
X195847139Y-71466859D01*
X195810593Y-71404776D01*
X195810592Y-71404775D01*
X195810591Y-71404773D01*
X195674179Y-71253786D01*
X195674178Y-71253785D01*
X195674177Y-71253784D01*
X195510170Y-71133353D01*
X195510163Y-71133348D01*
X195325273Y-71048395D01*
X195325264Y-71048392D01*
X195127054Y-71002396D01*
X194923639Y-70997243D01*
X194923636Y-70997243D01*
X194723351Y-71033139D01*
X194723345Y-71033141D01*
X194534387Y-71108619D01*
X194534377Y-71108625D01*
X194364481Y-71220597D01*
X193324681Y-72260397D01*
X193263358Y-72293882D01*
X193193666Y-72288898D01*
X193137733Y-72247026D01*
X193113316Y-72181562D01*
X193113000Y-72172716D01*
X193113000Y-68026928D01*
X193113080Y-68023788D01*
X193114394Y-67997851D01*
X193116869Y-67949064D01*
X193105539Y-67875113D01*
X193105143Y-67871999D01*
X193097574Y-67797563D01*
X193097572Y-67797556D01*
X193092751Y-67782189D01*
X193088494Y-67763849D01*
X193086056Y-67747929D01*
X193060053Y-67677720D01*
X193059065Y-67674825D01*
X193036659Y-67603412D01*
X193028839Y-67589324D01*
X193020982Y-67572225D01*
X193015386Y-67557113D01*
X192975796Y-67493597D01*
X192974225Y-67490929D01*
X192937909Y-67425498D01*
X192927421Y-67413281D01*
X192916273Y-67398100D01*
X192915989Y-67397645D01*
X192907752Y-67384429D01*
X192856201Y-67330197D01*
X192854100Y-67327872D01*
X192805373Y-67271112D01*
X192805368Y-67271108D01*
X192805366Y-67271105D01*
X192792626Y-67261243D01*
X192778655Y-67248620D01*
X192767563Y-67236951D01*
X192767562Y-67236950D01*
X192767559Y-67236947D01*
X192706265Y-67194285D01*
X192703962Y-67192601D01*
X192702769Y-67191687D01*
X192661543Y-67135276D01*
X192657359Y-67065532D01*
X192691546Y-67004598D01*
X192738109Y-66975945D01*
X192766943Y-66966089D01*
X192919873Y-66913816D01*
X193095227Y-66810591D01*
X193246214Y-66674179D01*
X193366649Y-66510167D01*
X193451606Y-66325269D01*
X193497603Y-66127054D01*
X193502757Y-65923637D01*
X193479793Y-65795515D01*
X193466860Y-65723351D01*
X193466858Y-65723345D01*
X193391380Y-65534387D01*
X193391374Y-65534377D01*
X193279402Y-65364481D01*
X193279401Y-65364480D01*
X192217012Y-64302092D01*
X192215915Y-64300967D01*
X192155061Y-64236949D01*
X192155060Y-64236948D01*
X192155059Y-64236947D01*
X192127204Y-64217559D01*
X192104709Y-64201902D01*
X192100946Y-64199065D01*
X192066039Y-64170602D01*
X192026522Y-64112981D01*
X192024430Y-64043143D01*
X192060428Y-63983260D01*
X192123086Y-63952345D01*
X192144400Y-63950500D01*
X198600743Y-63950500D01*
X198752439Y-63935074D01*
X198946579Y-63874162D01*
X198946580Y-63874161D01*
X198946588Y-63874159D01*
X199124502Y-63775409D01*
X199278895Y-63642866D01*
X199403448Y-63481958D01*
X199493060Y-63299271D01*
X199544063Y-63102285D01*
X199554369Y-62899064D01*
X199523556Y-62697929D01*
X199477843Y-62574500D01*
X199452888Y-62507118D01*
X199452887Y-62507117D01*
X199452886Y-62507113D01*
X199345252Y-62334429D01*
X199205059Y-62186947D01*
X199106587Y-62118409D01*
X199038050Y-62070705D01*
X198851056Y-61990459D01*
X198651741Y-61949500D01*
X190563493Y-61949500D01*
X190561930Y-61949480D01*
X190473637Y-61947243D01*
X190473628Y-61947243D01*
X190413260Y-61958064D01*
X190408595Y-61958718D01*
X190347563Y-61964925D01*
X190347557Y-61964927D01*
X190314778Y-61975210D01*
X190307154Y-61977081D01*
X190273344Y-61983142D01*
X190254546Y-61990652D01*
X190208547Y-61999500D01*
X176211130Y-61999500D01*
X176144091Y-61979815D01*
X176098336Y-61927011D01*
X176088392Y-61857853D01*
X176117417Y-61794297D01*
X176125698Y-61785626D01*
X176185378Y-61728895D01*
X176263053Y-61655059D01*
X176379295Y-61488049D01*
X176459540Y-61301058D01*
X176500500Y-61101741D01*
X176500500Y-59465781D01*
X176520185Y-59398743D01*
X176536819Y-59378101D01*
X177878101Y-58036819D01*
X177939424Y-58003334D01*
X177965782Y-58000500D01*
X183550743Y-58000500D01*
X183702439Y-57985074D01*
X183896579Y-57924162D01*
X183896580Y-57924161D01*
X183896588Y-57924159D01*
X184074502Y-57825409D01*
X184228895Y-57692866D01*
X184353448Y-57531958D01*
X184443060Y-57349271D01*
X184494063Y-57152285D01*
X184504369Y-56949064D01*
X184473556Y-56747929D01*
X184402886Y-56557113D01*
X184295252Y-56384429D01*
X184155059Y-56236947D01*
X184022699Y-56144822D01*
X183988050Y-56120705D01*
X183801056Y-56040459D01*
X183601741Y-55999500D01*
X177513476Y-55999500D01*
X177511914Y-55999480D01*
X177502556Y-55999242D01*
X177423638Y-55997242D01*
X177423635Y-55997242D01*
X177371823Y-56006529D01*
X177363254Y-56008064D01*
X177358595Y-56008718D01*
X177297564Y-56014925D01*
X177297562Y-56014926D01*
X177264780Y-56025210D01*
X177257156Y-56027081D01*
X177249308Y-56028488D01*
X177223349Y-56033141D01*
X177166381Y-56055895D01*
X177161945Y-56057474D01*
X177103414Y-56075840D01*
X177103410Y-56075842D01*
X177073378Y-56092510D01*
X177066284Y-56095879D01*
X177034382Y-56108623D01*
X177034377Y-56108625D01*
X176983156Y-56142381D01*
X176979128Y-56144822D01*
X176925501Y-56174588D01*
X176899434Y-56196965D01*
X176893165Y-56201692D01*
X176864484Y-56220595D01*
X176864478Y-56220600D01*
X176821109Y-56263968D01*
X176817655Y-56267169D01*
X176771102Y-56307136D01*
X176750076Y-56334298D01*
X176744885Y-56340192D01*
X174802090Y-58282988D01*
X174800966Y-58284084D01*
X174736946Y-58344942D01*
X174701899Y-58395294D01*
X174699062Y-58399056D01*
X174660302Y-58446592D01*
X174660299Y-58446597D01*
X174644392Y-58477047D01*
X174640324Y-58483761D01*
X174620702Y-58511955D01*
X174614957Y-58525342D01*
X174570428Y-58579184D01*
X174503859Y-58600405D01*
X174436385Y-58582267D01*
X174395871Y-58538954D01*
X174394839Y-58539635D01*
X174376593Y-58511951D01*
X174357612Y-58483150D01*
X174355183Y-58479142D01*
X174325409Y-58425498D01*
X174303034Y-58399434D01*
X174298306Y-58393163D01*
X174279404Y-58364484D01*
X174279399Y-58364478D01*
X174257715Y-58342795D01*
X174236019Y-58321099D01*
X174232828Y-58317655D01*
X174192865Y-58271104D01*
X174165694Y-58250072D01*
X174159807Y-58244887D01*
X173671580Y-57756660D01*
X173553407Y-57660302D01*
X173373049Y-57566091D01*
X173177418Y-57510113D01*
X173177417Y-57510112D01*
X173177416Y-57510112D01*
X172974525Y-57494662D01*
X172974522Y-57494662D01*
X172772678Y-57520368D01*
X172772670Y-57520370D01*
X172580129Y-57586183D01*
X172580117Y-57586189D01*
X172404778Y-57689406D01*
X172404771Y-57689411D01*
X172253787Y-57825820D01*
X172253787Y-57825821D01*
X172133353Y-57989828D01*
X172133349Y-57989835D01*
X172048397Y-58174725D01*
X172048393Y-58174737D01*
X172002396Y-58372945D01*
X171997242Y-58576358D01*
X172033140Y-58776648D01*
X172033142Y-58776653D01*
X172084595Y-58905465D01*
X172108623Y-58965616D01*
X172108629Y-58965628D01*
X172220595Y-59135516D01*
X172220597Y-59135518D01*
X172220598Y-59135519D01*
X172463182Y-59378102D01*
X172496666Y-59439423D01*
X172499500Y-59465782D01*
X172499500Y-61986506D01*
X172499480Y-61988070D01*
X172497857Y-62052123D01*
X172497243Y-62076362D01*
X172497243Y-62076370D01*
X172508064Y-62136739D01*
X172508718Y-62141404D01*
X172514925Y-62202430D01*
X172514927Y-62202444D01*
X172525208Y-62235213D01*
X172527079Y-62242837D01*
X172533142Y-62276652D01*
X172533142Y-62276655D01*
X172555894Y-62333612D01*
X172557474Y-62338051D01*
X172575841Y-62396588D01*
X172575844Y-62396595D01*
X172592509Y-62426619D01*
X172595879Y-62433714D01*
X172608622Y-62465614D01*
X172608627Y-62465624D01*
X172630808Y-62499280D01*
X172635969Y-62507111D01*
X172642377Y-62516833D01*
X172644818Y-62520863D01*
X172674588Y-62574498D01*
X172674589Y-62574499D01*
X172674591Y-62574502D01*
X172696968Y-62600567D01*
X172701693Y-62606835D01*
X172714263Y-62625906D01*
X172720598Y-62635519D01*
X172763978Y-62678899D01*
X172767169Y-62682343D01*
X172807131Y-62728892D01*
X172807134Y-62728895D01*
X172834294Y-62749918D01*
X172840190Y-62755110D01*
X173783042Y-63697963D01*
X173784101Y-63699050D01*
X173844937Y-63763050D01*
X173844941Y-63763053D01*
X173895281Y-63798092D01*
X173899043Y-63800928D01*
X173946587Y-63839694D01*
X173946590Y-63839695D01*
X173946593Y-63839698D01*
X173977045Y-63855604D01*
X173983758Y-63859672D01*
X174011952Y-63879296D01*
X174030931Y-63887440D01*
X174084775Y-63931966D01*
X174105999Y-63998534D01*
X174087864Y-64066009D01*
X174042210Y-64109810D01*
X173925496Y-64174591D01*
X173925495Y-64174592D01*
X173771106Y-64307132D01*
X173771104Y-64307134D01*
X173646554Y-64468037D01*
X173646553Y-64468040D01*
X173556940Y-64650728D01*
X173505937Y-64847714D01*
X173495631Y-65050936D01*
X173526442Y-65252063D01*
X173526445Y-65252075D01*
X173597111Y-65442881D01*
X173597115Y-65442888D01*
X173704745Y-65615567D01*
X173704747Y-65615569D01*
X173704748Y-65615571D01*
X173844941Y-65763053D01*
X173973344Y-65852424D01*
X174011949Y-65879294D01*
X174011950Y-65879294D01*
X174011951Y-65879295D01*
X174198942Y-65959540D01*
X174398259Y-66000500D01*
X179785217Y-66000500D01*
X179852256Y-66020185D01*
X179898011Y-66072989D01*
X179907955Y-66142147D01*
X179878930Y-66205703D01*
X179872898Y-66212181D01*
X178256662Y-67828417D01*
X178221126Y-67871999D01*
X178160302Y-67946593D01*
X178119979Y-68023788D01*
X178066090Y-68126953D01*
X178010112Y-68322584D01*
X177994662Y-68525474D01*
X177994662Y-68525477D01*
X178020368Y-68727321D01*
X178020370Y-68727329D01*
X178086183Y-68919870D01*
X178086189Y-68919882D01*
X178189406Y-69095221D01*
X178189411Y-69095228D01*
X178325820Y-69246212D01*
X178489828Y-69366646D01*
X178495249Y-69369837D01*
X178493816Y-69372271D01*
X178537289Y-69410130D01*
X178556807Y-69477219D01*
X178536955Y-69544209D01*
X178520488Y-69564591D01*
X178256662Y-69828417D01*
X178256660Y-69828420D01*
X178160302Y-69946593D01*
X178150365Y-69965617D01*
X178066090Y-70126953D01*
X178010112Y-70322584D01*
X177994662Y-70525474D01*
X177994662Y-70525477D01*
X178020368Y-70727321D01*
X178020370Y-70727329D01*
X178086183Y-70919870D01*
X178086189Y-70919882D01*
X178182420Y-71083353D01*
X178189410Y-71095227D01*
X178325821Y-71246213D01*
X178336134Y-71253786D01*
X178489828Y-71366646D01*
X178489832Y-71366648D01*
X178489833Y-71366649D01*
X178674732Y-71451605D01*
X178735828Y-71465783D01*
X178872945Y-71497603D01*
X179076358Y-71502757D01*
X179076358Y-71502756D01*
X179076363Y-71502757D01*
X179255852Y-71470586D01*
X179276648Y-71466859D01*
X179276648Y-71466858D01*
X179276653Y-71466858D01*
X179465617Y-71391377D01*
X179485760Y-71378102D01*
X179635517Y-71279403D01*
X179635519Y-71279402D01*
X181878101Y-69036818D01*
X181939424Y-69003334D01*
X181965782Y-69000500D01*
X187935012Y-69000500D01*
X188002051Y-69020185D01*
X188047806Y-69072989D01*
X188057750Y-69142147D01*
X188049945Y-69168616D01*
X188050429Y-69168782D01*
X188048393Y-69174737D01*
X188002396Y-69372945D01*
X187997242Y-69576358D01*
X188033140Y-69776648D01*
X188033142Y-69776654D01*
X188108623Y-69965616D01*
X188108629Y-69965628D01*
X188220596Y-70135517D01*
X188220599Y-70135521D01*
X189463181Y-71378102D01*
X189496666Y-71439425D01*
X189499500Y-71465783D01*
X189499500Y-75534217D01*
X189479815Y-75601256D01*
X189463181Y-75621898D01*
X186121899Y-78963181D01*
X186060576Y-78996666D01*
X186034218Y-78999500D01*
X185199257Y-78999500D01*
X185047560Y-79014925D01*
X184853420Y-79075837D01*
X184853405Y-79075844D01*
X184675500Y-79174589D01*
X184675495Y-79174592D01*
X184521106Y-79307132D01*
X184521104Y-79307134D01*
X184396554Y-79468037D01*
X184396553Y-79468040D01*
X184306940Y-79650728D01*
X184255937Y-79847714D01*
X184245631Y-80050936D01*
X184276442Y-80252063D01*
X184276445Y-80252075D01*
X184347111Y-80442881D01*
X184347113Y-80442884D01*
X184347114Y-80442887D01*
X184349139Y-80446136D01*
X184454745Y-80615567D01*
X184454747Y-80615569D01*
X184454748Y-80615571D01*
X184594941Y-80763053D01*
X184712589Y-80844938D01*
X184761949Y-80879294D01*
X184761950Y-80879294D01*
X184761951Y-80879295D01*
X184948942Y-80959540D01*
X185148259Y-81000500D01*
X185785217Y-81000500D01*
X185852256Y-81020185D01*
X185898011Y-81072989D01*
X185907955Y-81142147D01*
X185878930Y-81205703D01*
X185872908Y-81212171D01*
X185826060Y-81259019D01*
X185802091Y-81282988D01*
X185800967Y-81284083D01*
X185736946Y-81344942D01*
X185701899Y-81395294D01*
X185699062Y-81399056D01*
X185660302Y-81446592D01*
X185660299Y-81446597D01*
X185644392Y-81477047D01*
X185640324Y-81483761D01*
X185620702Y-81511954D01*
X185596509Y-81568330D01*
X185594488Y-81572584D01*
X185566091Y-81626951D01*
X185566090Y-81626952D01*
X185556640Y-81659975D01*
X185554007Y-81667371D01*
X185540459Y-81698943D01*
X185528113Y-81759019D01*
X185526990Y-81763595D01*
X185510113Y-81822577D01*
X185510113Y-81822579D01*
X185507503Y-81856841D01*
X185506414Y-81864608D01*
X185500980Y-81891052D01*
X185499500Y-81898258D01*
X185499500Y-81959597D01*
X185499321Y-81964306D01*
X185494663Y-82025476D01*
X185499002Y-82059553D01*
X185499499Y-82067392D01*
X185499499Y-83050743D01*
X185514925Y-83202439D01*
X185575837Y-83396579D01*
X185575844Y-83396594D01*
X185674589Y-83574499D01*
X185674592Y-83574504D01*
X185807132Y-83728893D01*
X185807134Y-83728895D01*
X185968037Y-83853445D01*
X185968038Y-83853445D01*
X185968042Y-83853448D01*
X186150729Y-83943060D01*
X186331017Y-83989739D01*
X186390981Y-84025599D01*
X186422040Y-84088186D01*
X186414331Y-84157629D01*
X186387616Y-84197462D01*
X186302091Y-84282987D01*
X186300967Y-84284083D01*
X186236946Y-84344942D01*
X186201899Y-84395294D01*
X186199062Y-84399056D01*
X186160302Y-84446592D01*
X186160299Y-84446597D01*
X186144392Y-84477047D01*
X186140324Y-84483761D01*
X186120702Y-84511954D01*
X186096509Y-84568330D01*
X186094488Y-84572584D01*
X186066091Y-84626951D01*
X186066090Y-84626952D01*
X186056640Y-84659975D01*
X186054007Y-84667371D01*
X186040459Y-84698943D01*
X186028113Y-84759019D01*
X186026990Y-84763595D01*
X186010113Y-84822577D01*
X186010113Y-84822579D01*
X186007503Y-84856841D01*
X186006414Y-84864608D01*
X186005141Y-84870808D01*
X185999500Y-84898258D01*
X185999500Y-84959597D01*
X185999321Y-84964306D01*
X185994662Y-85025474D01*
X185996640Y-85040999D01*
X185999003Y-85059560D01*
X185999500Y-85067388D01*
X185999500Y-95550743D01*
X186014925Y-95702439D01*
X186075837Y-95896579D01*
X186075844Y-95896594D01*
X186174589Y-96074499D01*
X186174592Y-96074504D01*
X186307132Y-96228893D01*
X186307134Y-96228895D01*
X186468037Y-96353445D01*
X186468038Y-96353445D01*
X186468042Y-96353448D01*
X186650729Y-96443060D01*
X186847715Y-96494063D01*
X187050936Y-96504369D01*
X187252071Y-96473556D01*
X187442887Y-96402886D01*
X187615571Y-96295252D01*
X187763053Y-96155059D01*
X187879295Y-95988049D01*
X187890861Y-95961096D01*
X187935385Y-95907252D01*
X188001952Y-95886027D01*
X188056583Y-95897318D01*
X188078202Y-95907252D01*
X188174729Y-95951604D01*
X188174730Y-95951604D01*
X188174732Y-95951605D01*
X188215639Y-95961098D01*
X188372945Y-95997603D01*
X188576358Y-96002757D01*
X188576358Y-96002756D01*
X188576363Y-96002757D01*
X188755852Y-95970586D01*
X188776648Y-95966859D01*
X188776648Y-95966858D01*
X188776653Y-95966858D01*
X188965617Y-95891377D01*
X189135519Y-95779402D01*
X189698001Y-95216918D01*
X189699014Y-95215931D01*
X189763053Y-95155059D01*
X189798112Y-95104686D01*
X189800925Y-95100957D01*
X189839698Y-95053407D01*
X189855607Y-95022948D01*
X189859667Y-95016248D01*
X189879295Y-94988049D01*
X189903492Y-94931660D01*
X189905498Y-94927435D01*
X189933909Y-94873049D01*
X189943360Y-94840015D01*
X189945991Y-94832628D01*
X189956933Y-94807132D01*
X189959540Y-94801058D01*
X189971893Y-94740940D01*
X189973006Y-94736412D01*
X189989887Y-94677418D01*
X189992495Y-94643155D01*
X189993587Y-94635376D01*
X189996121Y-94623049D01*
X190000500Y-94601741D01*
X190000500Y-94540401D01*
X190000679Y-94535692D01*
X190005337Y-94474525D01*
X190000997Y-94440441D01*
X190000500Y-94432602D01*
X190000500Y-85949256D01*
X189985074Y-85797560D01*
X189924162Y-85603420D01*
X189924160Y-85603416D01*
X189924159Y-85603412D01*
X189825409Y-85425498D01*
X189825408Y-85425497D01*
X189825407Y-85425495D01*
X189692867Y-85271106D01*
X189692865Y-85271104D01*
X189531962Y-85146554D01*
X189531959Y-85146553D01*
X189531958Y-85146552D01*
X189349271Y-85056940D01*
X189152285Y-85005937D01*
X189152287Y-85005937D01*
X189016804Y-84999066D01*
X188949064Y-84995631D01*
X188949063Y-84995631D01*
X188949061Y-84995631D01*
X188747936Y-85026442D01*
X188747925Y-85026445D01*
X188708628Y-85040999D01*
X188638925Y-85045822D01*
X188577680Y-85012195D01*
X188544337Y-84950794D01*
X188549483Y-84881114D01*
X188577881Y-84837038D01*
X189298001Y-84116918D01*
X189299014Y-84115931D01*
X189363053Y-84055059D01*
X189398112Y-84004686D01*
X189400925Y-84000957D01*
X189439698Y-83953407D01*
X189455607Y-83922948D01*
X189459667Y-83916248D01*
X189479295Y-83888049D01*
X189503492Y-83831660D01*
X189505498Y-83827435D01*
X189533909Y-83773049D01*
X189543360Y-83740015D01*
X189545991Y-83732628D01*
X189547594Y-83728893D01*
X189559540Y-83701058D01*
X189571893Y-83640940D01*
X189573006Y-83636412D01*
X189589887Y-83577418D01*
X189592495Y-83543155D01*
X189593587Y-83535376D01*
X189600500Y-83501739D01*
X189600500Y-83440401D01*
X189600679Y-83435692D01*
X189605337Y-83374525D01*
X189600997Y-83340441D01*
X189600500Y-83332602D01*
X189600500Y-82449256D01*
X189585074Y-82297560D01*
X189524162Y-82103420D01*
X189524160Y-82103416D01*
X189524159Y-82103412D01*
X189425409Y-81925498D01*
X189425408Y-81925497D01*
X189425407Y-81925495D01*
X189292867Y-81771106D01*
X189292865Y-81771104D01*
X189131962Y-81646554D01*
X189131959Y-81646553D01*
X189131958Y-81646552D01*
X188949271Y-81556940D01*
X188752285Y-81505937D01*
X188752287Y-81505937D01*
X188704335Y-81503505D01*
X188638379Y-81480449D01*
X188595358Y-81425395D01*
X188588931Y-81355821D01*
X188621138Y-81293818D01*
X188622887Y-81292032D01*
X192810501Y-77104418D01*
X192811514Y-77103431D01*
X192875553Y-77042559D01*
X192910600Y-76992204D01*
X192913418Y-76988466D01*
X192922987Y-76976730D01*
X192980609Y-76937216D01*
X193050448Y-76935126D01*
X193110329Y-76971126D01*
X193122623Y-76986860D01*
X193142377Y-77016833D01*
X193144818Y-77020863D01*
X193174588Y-77074498D01*
X193174589Y-77074499D01*
X193174591Y-77074502D01*
X193196968Y-77100567D01*
X193201693Y-77106835D01*
X193214263Y-77125906D01*
X193220598Y-77135519D01*
X193263978Y-77178899D01*
X193267169Y-77182343D01*
X193307131Y-77228892D01*
X193307134Y-77228895D01*
X193334294Y-77249918D01*
X193340190Y-77255111D01*
X197752450Y-81667371D01*
X202163181Y-86078101D01*
X202196666Y-86139424D01*
X202199500Y-86165782D01*
X202199500Y-91749241D01*
X202179815Y-91816280D01*
X202163181Y-91836922D01*
X202161505Y-91838597D01*
X202025965Y-92032169D01*
X202025964Y-92032171D01*
X201926098Y-92246335D01*
X201926094Y-92246344D01*
X201864938Y-92474586D01*
X201864936Y-92474596D01*
X201844341Y-92709999D01*
X201844341Y-92710000D01*
X201864936Y-92945403D01*
X201864938Y-92945413D01*
X201926094Y-93173655D01*
X201926096Y-93173659D01*
X201926097Y-93173663D01*
X201977147Y-93283140D01*
X202025965Y-93387830D01*
X202025967Y-93387834D01*
X202107159Y-93503787D01*
X202161505Y-93581401D01*
X202328599Y-93748495D01*
X202425384Y-93816265D01*
X202522165Y-93884032D01*
X202522167Y-93884033D01*
X202522170Y-93884035D01*
X202736337Y-93983903D01*
X202964592Y-94045063D01*
X203152918Y-94061539D01*
X203199999Y-94065659D01*
X203200000Y-94065659D01*
X203200001Y-94065659D01*
X203239234Y-94062226D01*
X203435408Y-94045063D01*
X203663663Y-93983903D01*
X203877830Y-93884035D01*
X204071401Y-93748495D01*
X204238495Y-93581401D01*
X204273925Y-93530800D01*
X204328499Y-93487177D01*
X204397998Y-93479983D01*
X204460353Y-93511505D01*
X204495767Y-93571734D01*
X204499499Y-93601925D01*
X204499499Y-96534218D01*
X204479814Y-96601257D01*
X204463184Y-96621894D01*
X204331897Y-96753182D01*
X204270577Y-96786666D01*
X204244218Y-96789500D01*
X204160758Y-96789500D01*
X204093719Y-96769815D01*
X204073077Y-96753181D01*
X204071402Y-96751506D01*
X204071395Y-96751501D01*
X203877834Y-96615967D01*
X203877830Y-96615965D01*
X203812669Y-96585580D01*
X203663663Y-96516097D01*
X203663659Y-96516096D01*
X203663655Y-96516094D01*
X203435413Y-96454938D01*
X203435403Y-96454936D01*
X203200001Y-96434341D01*
X203199999Y-96434341D01*
X202964596Y-96454936D01*
X202964586Y-96454938D01*
X202736344Y-96516094D01*
X202736335Y-96516098D01*
X202522171Y-96615964D01*
X202522169Y-96615965D01*
X202328597Y-96751505D01*
X202161508Y-96918594D01*
X202111190Y-96990456D01*
X202056612Y-97034081D01*
X201987114Y-97041273D01*
X201924759Y-97009751D01*
X201921934Y-97007013D01*
X201901012Y-96986091D01*
X201897822Y-96982648D01*
X201857867Y-96936106D01*
X201857863Y-96936102D01*
X201830698Y-96915074D01*
X201824803Y-96909882D01*
X200502601Y-95587680D01*
X200469116Y-95526357D01*
X200474100Y-95456665D01*
X200502599Y-95412320D01*
X200993340Y-94921580D01*
X201089698Y-94803407D01*
X201183909Y-94623049D01*
X201239887Y-94427418D01*
X201255337Y-94224524D01*
X201232481Y-94045061D01*
X201229631Y-94022678D01*
X201229630Y-94022676D01*
X201229630Y-94022672D01*
X201163816Y-93830128D01*
X201060590Y-93654773D01*
X200924179Y-93503787D01*
X200901559Y-93487177D01*
X200760171Y-93383353D01*
X200760164Y-93383349D01*
X200575274Y-93298397D01*
X200575262Y-93298393D01*
X200377054Y-93252396D01*
X200173641Y-93247242D01*
X199973351Y-93283140D01*
X199973345Y-93283142D01*
X199784383Y-93358623D01*
X199784371Y-93358629D01*
X199614482Y-93470596D01*
X199614478Y-93470599D01*
X198621899Y-94463181D01*
X198560576Y-94496666D01*
X198534218Y-94499500D01*
X195449257Y-94499500D01*
X195297560Y-94514925D01*
X195103420Y-94575837D01*
X195103405Y-94575844D01*
X194925500Y-94674589D01*
X194925495Y-94674592D01*
X194771106Y-94807132D01*
X194771104Y-94807134D01*
X194646554Y-94968037D01*
X194646553Y-94968040D01*
X194556940Y-95150728D01*
X194505937Y-95347714D01*
X194495631Y-95550936D01*
X194526442Y-95752063D01*
X194526445Y-95752075D01*
X194597111Y-95942881D01*
X194597113Y-95942884D01*
X194597114Y-95942887D01*
X194631219Y-95997603D01*
X194704745Y-96115567D01*
X194704747Y-96115569D01*
X194704748Y-96115571D01*
X194844941Y-96263053D01*
X194973344Y-96352424D01*
X195011949Y-96379294D01*
X195011950Y-96379294D01*
X195011951Y-96379295D01*
X195198942Y-96459540D01*
X195398259Y-96500500D01*
X198534217Y-96500500D01*
X198601256Y-96520185D01*
X198621898Y-96536819D01*
X200128181Y-98043102D01*
X200161666Y-98104425D01*
X200164500Y-98130783D01*
X200164500Y-98950217D01*
X200144815Y-99017256D01*
X200092011Y-99063011D01*
X200022853Y-99072955D01*
X199959297Y-99043930D01*
X199952819Y-99037898D01*
X199717011Y-98802091D01*
X199715947Y-98801001D01*
X199655059Y-98736947D01*
X199627204Y-98717559D01*
X199604709Y-98701902D01*
X199600946Y-98699064D01*
X199553413Y-98660305D01*
X199553406Y-98660300D01*
X199522959Y-98644397D01*
X199516251Y-98640334D01*
X199488049Y-98620705D01*
X199488046Y-98620703D01*
X199488045Y-98620703D01*
X199488041Y-98620701D01*
X199431680Y-98596514D01*
X199427424Y-98594493D01*
X199373057Y-98566094D01*
X199373050Y-98566091D01*
X199373049Y-98566091D01*
X199367008Y-98564362D01*
X199340030Y-98556642D01*
X199332630Y-98554008D01*
X199301057Y-98540459D01*
X199301058Y-98540459D01*
X199240966Y-98528109D01*
X199236391Y-98526986D01*
X199177420Y-98510113D01*
X199177425Y-98510113D01*
X199143158Y-98507503D01*
X199135380Y-98506412D01*
X199101742Y-98499500D01*
X199101741Y-98499500D01*
X199040402Y-98499500D01*
X199035695Y-98499321D01*
X199030121Y-98498896D01*
X198974524Y-98494662D01*
X198954589Y-98497201D01*
X198940440Y-98499003D01*
X198932611Y-98499500D01*
X195513453Y-98499500D01*
X195511891Y-98499480D01*
X195423637Y-98497244D01*
X195423626Y-98497245D01*
X195363271Y-98508062D01*
X195358607Y-98508716D01*
X195297563Y-98514925D01*
X195297555Y-98514927D01*
X195264781Y-98525210D01*
X195257153Y-98527082D01*
X195223349Y-98533141D01*
X195166381Y-98555895D01*
X195161945Y-98557474D01*
X195103414Y-98575840D01*
X195103410Y-98575842D01*
X195073378Y-98592510D01*
X195066284Y-98595879D01*
X195034382Y-98608623D01*
X195034377Y-98608625D01*
X194983156Y-98642381D01*
X194979128Y-98644822D01*
X194925501Y-98674588D01*
X194899434Y-98696965D01*
X194893165Y-98701692D01*
X194864484Y-98720595D01*
X194864478Y-98720600D01*
X194821109Y-98763968D01*
X194817655Y-98767169D01*
X194771102Y-98807136D01*
X194750076Y-98834298D01*
X194744885Y-98840192D01*
X191121899Y-102463181D01*
X191060576Y-102496666D01*
X191034218Y-102499500D01*
X176965783Y-102499500D01*
X176898744Y-102479815D01*
X176878102Y-102463181D01*
X176604330Y-102189409D01*
X175726493Y-101311573D01*
X175724349Y-101309317D01*
X175674181Y-101253788D01*
X175613871Y-101209501D01*
X175611388Y-101207579D01*
X175553408Y-101160302D01*
X175539127Y-101152843D01*
X175523143Y-101142880D01*
X175510167Y-101133351D01*
X175442190Y-101102117D01*
X175439370Y-101100734D01*
X175411513Y-101086183D01*
X175373049Y-101066091D01*
X175373048Y-101066091D01*
X175357556Y-101061657D01*
X175339909Y-101055121D01*
X175325273Y-101048397D01*
X175325270Y-101048396D01*
X175325268Y-101048395D01*
X175325264Y-101048394D01*
X175325261Y-101048393D01*
X175252401Y-101031485D01*
X175249367Y-101030699D01*
X175230820Y-101025392D01*
X175177420Y-101010113D01*
X175171286Y-101009645D01*
X175161343Y-101008888D01*
X175142742Y-101006038D01*
X175136756Y-101004649D01*
X175127050Y-101002397D01*
X175052268Y-101000502D01*
X175049131Y-101000343D01*
X174974520Y-100994662D01*
X174974517Y-100994663D01*
X174958531Y-100996698D01*
X174939738Y-100997651D01*
X174923642Y-100997243D01*
X174923630Y-100997244D01*
X174849997Y-101010441D01*
X174846893Y-101010917D01*
X174772674Y-101020369D01*
X174772671Y-101020370D01*
X174757421Y-101025582D01*
X174739205Y-101030299D01*
X174723345Y-101033142D01*
X174653880Y-101060889D01*
X174650936Y-101061979D01*
X174580129Y-101086183D01*
X174580127Y-101086184D01*
X174566242Y-101094357D01*
X174549350Y-101102643D01*
X174534384Y-101108622D01*
X174471915Y-101149792D01*
X174469251Y-101151452D01*
X174404773Y-101189409D01*
X174392814Y-101200213D01*
X174377930Y-101211734D01*
X174364483Y-101220596D01*
X174311582Y-101273496D01*
X174309306Y-101275659D01*
X174253783Y-101325824D01*
X174244250Y-101338806D01*
X174231987Y-101353090D01*
X173121899Y-102463181D01*
X173060576Y-102496666D01*
X173034218Y-102499500D01*
X164965783Y-102499500D01*
X164898744Y-102479815D01*
X164878102Y-102463181D01*
X161671580Y-99256660D01*
X161239506Y-98824586D01*
X160776973Y-98362053D01*
X160775915Y-98360967D01*
X160715061Y-98296949D01*
X160715060Y-98296948D01*
X160715059Y-98296947D01*
X160684566Y-98275723D01*
X160664709Y-98261902D01*
X160660946Y-98259064D01*
X160613413Y-98220305D01*
X160613406Y-98220300D01*
X160582959Y-98204397D01*
X160576251Y-98200334D01*
X160548049Y-98180705D01*
X160548046Y-98180703D01*
X160548045Y-98180703D01*
X160548041Y-98180701D01*
X160491680Y-98156514D01*
X160487424Y-98154493D01*
X160433057Y-98126094D01*
X160433050Y-98126091D01*
X160433049Y-98126091D01*
X160429237Y-98125000D01*
X178184341Y-98125000D01*
X178204936Y-98360403D01*
X178204938Y-98360413D01*
X178266094Y-98588655D01*
X178266096Y-98588659D01*
X178266097Y-98588663D01*
X178333918Y-98734105D01*
X178365965Y-98802830D01*
X178365967Y-98802834D01*
X178450351Y-98923346D01*
X178501505Y-98996401D01*
X178668599Y-99163495D01*
X178765384Y-99231265D01*
X178862165Y-99299032D01*
X178862167Y-99299033D01*
X178862170Y-99299035D01*
X179076337Y-99398903D01*
X179304592Y-99460063D01*
X179481034Y-99475500D01*
X179539999Y-99480659D01*
X179540000Y-99480659D01*
X179540001Y-99480659D01*
X179598966Y-99475500D01*
X179775408Y-99460063D01*
X180003663Y-99398903D01*
X180217830Y-99299035D01*
X180411401Y-99163495D01*
X180533329Y-99041566D01*
X180594648Y-99008084D01*
X180664340Y-99013068D01*
X180720274Y-99054939D01*
X180737189Y-99085917D01*
X180786202Y-99217328D01*
X180786206Y-99217335D01*
X180872452Y-99332544D01*
X180872455Y-99332547D01*
X180987664Y-99418793D01*
X180987671Y-99418797D01*
X181122517Y-99469091D01*
X181122516Y-99469091D01*
X181129444Y-99469835D01*
X181182127Y-99475500D01*
X182977872Y-99475499D01*
X183037483Y-99469091D01*
X183172331Y-99418796D01*
X183287546Y-99332546D01*
X183373796Y-99217331D01*
X183424091Y-99082483D01*
X183430500Y-99022873D01*
X183430499Y-97227128D01*
X183424091Y-97167517D01*
X183422810Y-97164083D01*
X183373797Y-97032671D01*
X183373793Y-97032664D01*
X183287547Y-96917455D01*
X183287544Y-96917452D01*
X183172335Y-96831206D01*
X183172328Y-96831202D01*
X183037482Y-96780908D01*
X183037483Y-96780908D01*
X182977883Y-96774501D01*
X182977881Y-96774500D01*
X182977873Y-96774500D01*
X182977864Y-96774500D01*
X181182129Y-96774500D01*
X181182123Y-96774501D01*
X181122516Y-96780908D01*
X180987671Y-96831202D01*
X180987664Y-96831206D01*
X180872455Y-96917452D01*
X180872452Y-96917455D01*
X180786206Y-97032664D01*
X180786203Y-97032669D01*
X180737189Y-97164083D01*
X180695317Y-97220016D01*
X180629853Y-97244433D01*
X180561580Y-97229581D01*
X180533326Y-97208430D01*
X180411402Y-97086506D01*
X180411395Y-97086501D01*
X180375614Y-97061447D01*
X180334518Y-97032671D01*
X180217834Y-96950967D01*
X180217830Y-96950965D01*
X180185956Y-96936102D01*
X180003663Y-96851097D01*
X180003659Y-96851096D01*
X180003655Y-96851094D01*
X179775413Y-96789938D01*
X179775403Y-96789936D01*
X179540001Y-96769341D01*
X179539999Y-96769341D01*
X179304596Y-96789936D01*
X179304586Y-96789938D01*
X179076344Y-96851094D01*
X179076335Y-96851098D01*
X178862171Y-96950964D01*
X178862169Y-96950965D01*
X178668597Y-97086505D01*
X178501505Y-97253597D01*
X178365965Y-97447169D01*
X178365964Y-97447171D01*
X178266098Y-97661335D01*
X178266094Y-97661344D01*
X178204938Y-97889586D01*
X178204936Y-97889596D01*
X178184341Y-98124999D01*
X178184341Y-98125000D01*
X160429237Y-98125000D01*
X160427008Y-98124362D01*
X160400030Y-98116642D01*
X160392630Y-98114008D01*
X160361057Y-98100459D01*
X160361058Y-98100459D01*
X160300966Y-98088109D01*
X160296391Y-98086986D01*
X160237420Y-98070113D01*
X160237425Y-98070113D01*
X160203158Y-98067503D01*
X160195380Y-98066412D01*
X160161742Y-98059500D01*
X160161741Y-98059500D01*
X160100402Y-98059500D01*
X160095695Y-98059321D01*
X160090121Y-98058896D01*
X160034524Y-98054662D01*
X160014589Y-98057201D01*
X160000440Y-98059003D01*
X159992611Y-98059500D01*
X157152000Y-98059500D01*
X157084961Y-98039815D01*
X157039206Y-97987011D01*
X157028000Y-97935500D01*
X157028000Y-90438282D01*
X157047685Y-90371243D01*
X157064314Y-90350606D01*
X158389446Y-89025474D01*
X173994662Y-89025474D01*
X173996707Y-89041527D01*
X173999003Y-89059560D01*
X173999500Y-89067388D01*
X173999500Y-94550743D01*
X174014925Y-94702439D01*
X174075837Y-94896579D01*
X174075844Y-94896594D01*
X174174589Y-95074499D01*
X174174592Y-95074504D01*
X174307132Y-95228893D01*
X174307134Y-95228895D01*
X174468037Y-95353445D01*
X174468038Y-95353445D01*
X174468042Y-95353448D01*
X174650729Y-95443060D01*
X174847715Y-95494063D01*
X175050936Y-95504369D01*
X175252071Y-95473556D01*
X175442887Y-95402886D01*
X175615571Y-95295252D01*
X175763053Y-95155059D01*
X175879295Y-94988049D01*
X175959540Y-94801058D01*
X176000500Y-94601741D01*
X176000500Y-89465781D01*
X176020185Y-89398743D01*
X176036815Y-89378105D01*
X176698001Y-88716918D01*
X176699014Y-88715931D01*
X176763053Y-88655059D01*
X176798112Y-88604686D01*
X176800925Y-88600957D01*
X176839698Y-88553407D01*
X176855607Y-88522948D01*
X176859667Y-88516248D01*
X176879295Y-88488049D01*
X176903492Y-88431660D01*
X176905498Y-88427435D01*
X176933909Y-88373049D01*
X176943360Y-88340015D01*
X176945991Y-88332628D01*
X176959540Y-88301058D01*
X176971893Y-88240940D01*
X176973006Y-88236412D01*
X176989887Y-88177418D01*
X176992495Y-88143155D01*
X176993587Y-88135376D01*
X177000500Y-88101739D01*
X177000500Y-88040401D01*
X177000679Y-88035692D01*
X177005337Y-87974525D01*
X177000997Y-87940441D01*
X177000500Y-87932602D01*
X177000500Y-87427689D01*
X177000520Y-87426118D01*
X177002757Y-87337855D01*
X177002756Y-87337854D01*
X177002757Y-87337851D01*
X176991933Y-87277463D01*
X176991280Y-87272801D01*
X176985074Y-87211777D01*
X176985074Y-87211776D01*
X176974784Y-87178982D01*
X176972917Y-87171369D01*
X176966858Y-87137561D01*
X176966857Y-87137559D01*
X176944102Y-87080593D01*
X176942521Y-87076152D01*
X176936463Y-87056844D01*
X176924159Y-87017626D01*
X176924158Y-87017624D01*
X176924157Y-87017621D01*
X176907488Y-86987592D01*
X176904117Y-86980492D01*
X176891378Y-86948600D01*
X176891377Y-86948597D01*
X176857620Y-86897377D01*
X176855180Y-86893348D01*
X176843294Y-86871935D01*
X176825409Y-86839712D01*
X176825407Y-86839709D01*
X176803033Y-86813648D01*
X176798302Y-86807373D01*
X176779402Y-86778695D01*
X176736032Y-86735326D01*
X176732830Y-86731870D01*
X176712275Y-86707928D01*
X176692866Y-86685319D01*
X176665698Y-86664289D01*
X176659804Y-86659098D01*
X176639475Y-86638769D01*
X176556998Y-86571517D01*
X176521300Y-86542409D01*
X176340942Y-86448198D01*
X176145311Y-86392220D01*
X176145310Y-86392219D01*
X176145309Y-86392219D01*
X175942418Y-86376769D01*
X175942415Y-86376769D01*
X175740571Y-86402475D01*
X175740563Y-86402477D01*
X175548022Y-86468290D01*
X175548010Y-86468296D01*
X175372671Y-86571513D01*
X175372664Y-86571518D01*
X175221680Y-86707927D01*
X175221680Y-86707928D01*
X175101246Y-86871935D01*
X175101242Y-86871942D01*
X175016290Y-87056832D01*
X175016286Y-87056844D01*
X174970289Y-87255052D01*
X174965136Y-87458467D01*
X174965136Y-87458472D01*
X174978251Y-87531645D01*
X174970702Y-87601105D01*
X174943877Y-87641201D01*
X174302091Y-88282987D01*
X174300967Y-88284083D01*
X174236946Y-88344942D01*
X174201899Y-88395294D01*
X174199062Y-88399056D01*
X174160302Y-88446592D01*
X174160299Y-88446597D01*
X174144392Y-88477047D01*
X174140324Y-88483761D01*
X174120702Y-88511954D01*
X174096509Y-88568330D01*
X174094488Y-88572584D01*
X174066091Y-88626951D01*
X174066090Y-88626952D01*
X174056640Y-88659975D01*
X174054007Y-88667371D01*
X174040459Y-88698943D01*
X174028113Y-88759019D01*
X174026990Y-88763595D01*
X174010113Y-88822577D01*
X174010113Y-88822579D01*
X174007503Y-88856841D01*
X174006414Y-88864608D01*
X174000980Y-88891052D01*
X173999500Y-88898258D01*
X173999500Y-88959597D01*
X173999321Y-88964306D01*
X173994662Y-89025474D01*
X158389446Y-89025474D01*
X163198001Y-84216918D01*
X163199014Y-84215931D01*
X163263053Y-84155059D01*
X163298097Y-84104709D01*
X163300924Y-84100957D01*
X163339698Y-84053407D01*
X163355607Y-84022948D01*
X163359667Y-84016248D01*
X163379295Y-83988049D01*
X163403492Y-83931660D01*
X163405498Y-83927435D01*
X163433909Y-83873049D01*
X163443357Y-83840022D01*
X163445988Y-83832633D01*
X163459540Y-83801058D01*
X163471895Y-83740930D01*
X163472999Y-83736429D01*
X163489886Y-83677418D01*
X163492494Y-83643157D01*
X163493585Y-83635389D01*
X163500500Y-83601743D01*
X163500500Y-83540398D01*
X163500679Y-83535688D01*
X163503264Y-83501739D01*
X163505337Y-83474524D01*
X163500997Y-83440442D01*
X163500500Y-83432603D01*
X163500500Y-81525474D01*
X166994662Y-81525474D01*
X166996707Y-81541527D01*
X166999003Y-81559560D01*
X166999500Y-81567388D01*
X166999500Y-85050743D01*
X167014925Y-85202439D01*
X167075837Y-85396579D01*
X167075844Y-85396594D01*
X167174589Y-85574499D01*
X167174592Y-85574504D01*
X167307132Y-85728893D01*
X167307134Y-85728895D01*
X167468037Y-85853445D01*
X167468038Y-85853445D01*
X167468042Y-85853448D01*
X167650729Y-85943060D01*
X167847715Y-85994063D01*
X168050936Y-86004369D01*
X168252071Y-85973556D01*
X168442887Y-85902886D01*
X168615571Y-85795252D01*
X168763053Y-85655059D01*
X168879295Y-85488049D01*
X168959540Y-85301058D01*
X169000500Y-85101741D01*
X169000500Y-81965781D01*
X169020185Y-81898742D01*
X169036814Y-81878105D01*
X170937821Y-79977098D01*
X170999142Y-79943615D01*
X171068834Y-79948599D01*
X171124767Y-79990471D01*
X171149184Y-80055935D01*
X171149500Y-80064781D01*
X171149500Y-84700743D01*
X171164925Y-84852439D01*
X171225837Y-85046579D01*
X171225844Y-85046594D01*
X171324589Y-85224499D01*
X171324592Y-85224504D01*
X171457132Y-85378893D01*
X171457134Y-85378895D01*
X171618037Y-85503445D01*
X171618038Y-85503445D01*
X171618042Y-85503448D01*
X171800729Y-85593060D01*
X171997715Y-85644063D01*
X172200936Y-85654369D01*
X172402071Y-85623556D01*
X172592887Y-85552886D01*
X172765571Y-85445252D01*
X172913053Y-85305059D01*
X173029295Y-85138049D01*
X173109540Y-84951058D01*
X173150500Y-84751741D01*
X173150500Y-79815782D01*
X173170185Y-79748744D01*
X173186820Y-79728101D01*
X173243333Y-79671588D01*
X173243333Y-79671587D01*
X173243341Y-79671580D01*
X173339698Y-79553407D01*
X173433909Y-79373049D01*
X173489887Y-79177418D01*
X173503651Y-78996666D01*
X173505337Y-78974524D01*
X173505337Y-78974521D01*
X173479631Y-78772678D01*
X173479630Y-78772676D01*
X173479630Y-78772672D01*
X173413816Y-78580128D01*
X173400615Y-78557703D01*
X173310593Y-78404776D01*
X173310592Y-78404775D01*
X173310591Y-78404773D01*
X173174179Y-78253786D01*
X173174178Y-78253785D01*
X173174177Y-78253784D01*
X173010170Y-78133352D01*
X173010167Y-78133351D01*
X172825271Y-78048395D01*
X172825264Y-78048393D01*
X172627054Y-78002396D01*
X172423641Y-77997242D01*
X172223351Y-78033140D01*
X172223344Y-78033142D01*
X172061217Y-78097903D01*
X172034383Y-78108622D01*
X172034379Y-78108624D01*
X172034376Y-78108626D01*
X171864481Y-78220597D01*
X171560860Y-78524218D01*
X171499537Y-78557703D01*
X171429845Y-78552719D01*
X171373912Y-78510847D01*
X171366319Y-78499441D01*
X171310592Y-78404774D01*
X171310590Y-78404772D01*
X171174180Y-78253787D01*
X171174178Y-78253786D01*
X171010171Y-78133353D01*
X171010164Y-78133349D01*
X170825274Y-78048397D01*
X170825262Y-78048393D01*
X170627054Y-78002396D01*
X170423641Y-77997242D01*
X170223351Y-78033140D01*
X170223345Y-78033142D01*
X170034383Y-78108623D01*
X170034371Y-78108629D01*
X169864482Y-78220596D01*
X169864477Y-78220600D01*
X167302109Y-80782968D01*
X167300986Y-80784063D01*
X167236951Y-80844935D01*
X167236949Y-80844938D01*
X167201899Y-80895294D01*
X167199062Y-80899056D01*
X167160302Y-80946592D01*
X167160299Y-80946597D01*
X167144392Y-80977047D01*
X167140324Y-80983761D01*
X167120702Y-81011954D01*
X167096509Y-81068330D01*
X167094488Y-81072584D01*
X167066091Y-81126951D01*
X167066090Y-81126952D01*
X167056640Y-81159975D01*
X167054007Y-81167371D01*
X167040459Y-81198943D01*
X167028113Y-81259019D01*
X167026990Y-81263595D01*
X167010113Y-81322577D01*
X167010113Y-81322579D01*
X167007503Y-81356841D01*
X167006414Y-81364608D01*
X167003642Y-81378101D01*
X166999500Y-81398258D01*
X166999500Y-81459597D01*
X166999321Y-81464306D01*
X166994662Y-81525474D01*
X163500500Y-81525474D01*
X163500500Y-81013475D01*
X163500520Y-81011904D01*
X163502757Y-80923641D01*
X163502756Y-80923640D01*
X163502757Y-80923637D01*
X163491933Y-80863249D01*
X163491280Y-80858587D01*
X163485074Y-80797563D01*
X163485074Y-80797562D01*
X163474784Y-80764768D01*
X163472917Y-80757155D01*
X163466858Y-80723347D01*
X163466857Y-80723345D01*
X163444102Y-80666379D01*
X163442521Y-80661938D01*
X163427973Y-80615571D01*
X163424159Y-80603412D01*
X163424158Y-80603410D01*
X163424157Y-80603407D01*
X163407488Y-80573378D01*
X163404117Y-80566278D01*
X163391378Y-80534386D01*
X163391377Y-80534383D01*
X163357620Y-80483163D01*
X163355180Y-80479134D01*
X163336864Y-80446136D01*
X163325409Y-80425498D01*
X163325407Y-80425495D01*
X163303033Y-80399434D01*
X163298302Y-80393159D01*
X163296325Y-80390159D01*
X163279402Y-80364481D01*
X163236012Y-80321091D01*
X163232822Y-80317648D01*
X163192867Y-80271106D01*
X163192863Y-80271102D01*
X163165698Y-80250074D01*
X163159811Y-80244890D01*
X161171580Y-78256660D01*
X160956973Y-78042053D01*
X160955915Y-78040967D01*
X160895061Y-77976949D01*
X160895060Y-77976948D01*
X160895059Y-77976947D01*
X160867204Y-77957559D01*
X160844709Y-77941902D01*
X160840946Y-77939064D01*
X160793413Y-77900305D01*
X160793406Y-77900300D01*
X160762959Y-77884397D01*
X160756251Y-77880334D01*
X160728049Y-77860705D01*
X160728046Y-77860703D01*
X160728045Y-77860703D01*
X160728041Y-77860701D01*
X160671680Y-77836514D01*
X160667424Y-77834493D01*
X160613057Y-77806094D01*
X160613050Y-77806091D01*
X160613049Y-77806091D01*
X160607008Y-77804362D01*
X160580030Y-77796642D01*
X160572630Y-77794008D01*
X160541057Y-77780459D01*
X160541058Y-77780459D01*
X160480966Y-77768109D01*
X160476391Y-77766986D01*
X160417420Y-77750113D01*
X160417425Y-77750113D01*
X160383158Y-77747503D01*
X160375380Y-77746412D01*
X160341742Y-77739500D01*
X160341741Y-77739500D01*
X160280402Y-77739500D01*
X160275695Y-77739321D01*
X160270121Y-77738896D01*
X160214524Y-77734662D01*
X160194589Y-77737201D01*
X160180440Y-77739003D01*
X160172611Y-77739500D01*
X155296757Y-77739500D01*
X155145060Y-77754925D01*
X154950920Y-77815837D01*
X154950905Y-77815844D01*
X154773000Y-77914589D01*
X154772995Y-77914592D01*
X154618606Y-78047132D01*
X154618604Y-78047134D01*
X154494054Y-78208037D01*
X154494053Y-78208040D01*
X154404440Y-78390728D01*
X154353437Y-78587714D01*
X154343131Y-78790936D01*
X154373942Y-78992063D01*
X154373945Y-78992075D01*
X154444611Y-79182881D01*
X154444613Y-79182884D01*
X154444614Y-79182887D01*
X154476701Y-79234366D01*
X154552245Y-79355567D01*
X154552249Y-79355572D01*
X154691546Y-79502112D01*
X154692441Y-79503053D01*
X154807741Y-79583304D01*
X154859449Y-79619294D01*
X154859450Y-79619294D01*
X154859451Y-79619295D01*
X155046442Y-79699540D01*
X155245759Y-79740500D01*
X159774217Y-79740500D01*
X159841256Y-79760185D01*
X159861898Y-79776819D01*
X161463181Y-81378101D01*
X161496666Y-81439424D01*
X161499500Y-81465782D01*
X161499499Y-82291650D01*
X161479814Y-82358690D01*
X161427010Y-82404444D01*
X161357852Y-82414388D01*
X161294296Y-82385363D01*
X161283494Y-82374781D01*
X161213728Y-82297562D01*
X161174184Y-82253792D01*
X161174182Y-82253790D01*
X161174179Y-82253787D01*
X161070794Y-82177870D01*
X161010171Y-82133353D01*
X161010164Y-82133349D01*
X160825274Y-82048397D01*
X160825261Y-82048392D01*
X160627054Y-82002397D01*
X160423642Y-81997242D01*
X160223351Y-82033140D01*
X160223345Y-82033142D01*
X160034383Y-82108623D01*
X160034371Y-82108629D01*
X159864482Y-82220596D01*
X159864478Y-82220599D01*
X159301899Y-82783181D01*
X159240576Y-82816666D01*
X159214218Y-82819500D01*
X155920993Y-82819500D01*
X155919430Y-82819480D01*
X155831137Y-82817243D01*
X155831136Y-82817243D01*
X155831127Y-82817243D01*
X155770753Y-82828065D01*
X155766087Y-82828719D01*
X155705063Y-82834925D01*
X155705062Y-82834925D01*
X155672286Y-82845208D01*
X155664659Y-82847080D01*
X155630850Y-82853140D01*
X155630847Y-82853141D01*
X155573868Y-82875899D01*
X155569431Y-82877478D01*
X155510917Y-82895838D01*
X155510906Y-82895843D01*
X155480882Y-82912507D01*
X155473790Y-82915875D01*
X155447762Y-82926273D01*
X155441883Y-82928622D01*
X155441882Y-82928622D01*
X155441881Y-82928623D01*
X155441873Y-82928627D01*
X155390655Y-82962383D01*
X155386626Y-82964824D01*
X155333002Y-82994588D01*
X155332999Y-82994590D01*
X155306927Y-83016970D01*
X155300660Y-83021695D01*
X155271982Y-83040598D01*
X155271975Y-83040603D01*
X155228616Y-83083962D01*
X155225161Y-83087164D01*
X155178606Y-83127132D01*
X155178605Y-83127133D01*
X155157576Y-83154300D01*
X155152384Y-83160194D01*
X153860978Y-84451600D01*
X153799655Y-84485085D01*
X153729963Y-84480101D01*
X153674030Y-84438229D01*
X153649613Y-84372765D01*
X153660915Y-84311514D01*
X153673903Y-84283663D01*
X153735063Y-84055408D01*
X153755659Y-83820000D01*
X153735063Y-83584592D01*
X153673903Y-83356337D01*
X153574035Y-83142171D01*
X153563506Y-83127133D01*
X153438494Y-82948597D01*
X153271402Y-82781506D01*
X153271395Y-82781501D01*
X153077834Y-82645967D01*
X153077830Y-82645965D01*
X153030921Y-82624091D01*
X152863663Y-82546097D01*
X152863659Y-82546096D01*
X152863655Y-82546094D01*
X152635413Y-82484938D01*
X152635403Y-82484936D01*
X152400001Y-82464341D01*
X152399999Y-82464341D01*
X152164596Y-82484936D01*
X152164586Y-82484938D01*
X151936344Y-82546094D01*
X151936335Y-82546098D01*
X151722171Y-82645964D01*
X151722169Y-82645965D01*
X151528597Y-82781505D01*
X151361505Y-82948597D01*
X151225965Y-83142169D01*
X151225964Y-83142171D01*
X151126098Y-83356335D01*
X151126094Y-83356344D01*
X151064938Y-83584586D01*
X151064936Y-83584596D01*
X151044341Y-83819999D01*
X151044341Y-83820000D01*
X151064936Y-84055403D01*
X151064938Y-84055413D01*
X151126094Y-84283655D01*
X151126096Y-84283659D01*
X151126097Y-84283663D01*
X151220022Y-84485085D01*
X151225965Y-84497830D01*
X151225967Y-84497834D01*
X151316377Y-84626952D01*
X151361505Y-84691401D01*
X151528599Y-84858495D01*
X151585388Y-84898259D01*
X151722165Y-84994032D01*
X151722167Y-84994033D01*
X151722170Y-84994035D01*
X151936337Y-85093903D01*
X151936343Y-85093904D01*
X151936344Y-85093905D01*
X151956979Y-85099434D01*
X152164592Y-85155063D01*
X152352918Y-85171539D01*
X152399999Y-85175659D01*
X152400000Y-85175659D01*
X152400001Y-85175659D01*
X152439234Y-85172226D01*
X152635408Y-85155063D01*
X152863663Y-85093903D01*
X153077830Y-84994035D01*
X153271401Y-84858495D01*
X153337924Y-84791971D01*
X153399243Y-84758489D01*
X153468935Y-84763473D01*
X153524869Y-84805344D01*
X153549286Y-84870808D01*
X153540994Y-84920023D01*
X153542341Y-84920446D01*
X153540460Y-84926438D01*
X153528113Y-84986519D01*
X153526990Y-84991095D01*
X153510113Y-85050077D01*
X153510113Y-85050079D01*
X153507503Y-85084341D01*
X153506414Y-85092108D01*
X153500980Y-85118552D01*
X153499500Y-85125758D01*
X153499500Y-85187097D01*
X153499321Y-85191806D01*
X153494662Y-85252974D01*
X153496358Y-85266286D01*
X153499003Y-85287060D01*
X153499500Y-85294888D01*
X153499500Y-95053131D01*
X153479815Y-95120170D01*
X153427011Y-95165925D01*
X153362246Y-95176421D01*
X153355756Y-95175723D01*
X153297873Y-95169500D01*
X153297865Y-95169500D01*
X151502129Y-95169500D01*
X151502123Y-95169501D01*
X151442516Y-95175908D01*
X151307671Y-95226202D01*
X151307664Y-95226206D01*
X151192455Y-95312452D01*
X151192452Y-95312455D01*
X151106206Y-95427664D01*
X151106202Y-95427671D01*
X151055908Y-95562517D01*
X151049501Y-95622116D01*
X151049500Y-95622135D01*
X151049500Y-97417870D01*
X151049501Y-97417876D01*
X151055908Y-97477483D01*
X151106202Y-97612328D01*
X151106206Y-97612335D01*
X151192452Y-97727544D01*
X151192455Y-97727547D01*
X151307664Y-97813793D01*
X151307671Y-97813797D01*
X151439081Y-97862810D01*
X151495015Y-97904681D01*
X151519432Y-97970145D01*
X151504580Y-98038418D01*
X151483430Y-98066673D01*
X151361503Y-98188600D01*
X151225965Y-98382169D01*
X151225964Y-98382171D01*
X151135654Y-98575842D01*
X151126991Y-98594421D01*
X151126098Y-98596335D01*
X151126094Y-98596344D01*
X151064938Y-98824586D01*
X151064936Y-98824596D01*
X151044341Y-99059999D01*
X151044341Y-99060000D01*
X151064936Y-99295403D01*
X151064938Y-99295413D01*
X151126094Y-99523655D01*
X151126096Y-99523659D01*
X151126097Y-99523663D01*
X151225964Y-99737829D01*
X151225965Y-99737830D01*
X151225967Y-99737834D01*
X151300499Y-99844276D01*
X151361505Y-99931401D01*
X151528599Y-100098495D01*
X151617740Y-100160912D01*
X151722165Y-100234032D01*
X151722167Y-100234033D01*
X151722170Y-100234035D01*
X151936337Y-100333903D01*
X152164592Y-100395063D01*
X152352918Y-100411539D01*
X152399999Y-100415659D01*
X152400000Y-100415659D01*
X152400001Y-100415659D01*
X152439234Y-100412226D01*
X152635408Y-100395063D01*
X152863663Y-100333903D01*
X153077830Y-100234035D01*
X153271401Y-100098495D01*
X153287818Y-100082076D01*
X153349142Y-100048592D01*
X153418834Y-100053576D01*
X153474767Y-100095448D01*
X153499184Y-100160912D01*
X153499500Y-100169758D01*
X153499500Y-102986507D01*
X153499480Y-102988079D01*
X153498359Y-103032284D01*
X153476982Y-103098803D01*
X153423035Y-103143205D01*
X153353646Y-103151392D01*
X153290847Y-103120765D01*
X153286718Y-103116822D01*
X153271402Y-103101506D01*
X153271395Y-103101501D01*
X153077834Y-102965967D01*
X153077830Y-102965965D01*
X153077828Y-102965964D01*
X152863663Y-102866097D01*
X152863659Y-102866096D01*
X152863655Y-102866094D01*
X152635413Y-102804938D01*
X152635403Y-102804936D01*
X152400001Y-102784341D01*
X152399999Y-102784341D01*
X152164596Y-102804936D01*
X152164586Y-102804938D01*
X151936344Y-102866094D01*
X151936335Y-102866098D01*
X151722171Y-102965964D01*
X151722169Y-102965965D01*
X151528597Y-103101505D01*
X151361505Y-103268597D01*
X151225965Y-103462169D01*
X151225964Y-103462171D01*
X151126098Y-103676335D01*
X151126094Y-103676344D01*
X151064938Y-103904586D01*
X151064936Y-103904596D01*
X151044341Y-104139999D01*
X151044341Y-104140000D01*
X146050500Y-104140000D01*
X146050500Y-78740000D01*
X151044341Y-78740000D01*
X151064936Y-78975403D01*
X151064938Y-78975413D01*
X151126094Y-79203655D01*
X151126096Y-79203659D01*
X151126097Y-79203663D01*
X151208272Y-79379887D01*
X151225965Y-79417830D01*
X151225967Y-79417834D01*
X151326399Y-79561264D01*
X151361505Y-79611401D01*
X151528599Y-79778495D01*
X151555504Y-79797334D01*
X151722165Y-79914032D01*
X151722167Y-79914033D01*
X151722170Y-79914035D01*
X151936337Y-80013903D01*
X152164592Y-80075063D01*
X152352918Y-80091539D01*
X152399999Y-80095659D01*
X152400000Y-80095659D01*
X152400001Y-80095659D01*
X152439234Y-80092226D01*
X152635408Y-80075063D01*
X152863663Y-80013903D01*
X153077830Y-79914035D01*
X153271401Y-79778495D01*
X153438495Y-79611401D01*
X153574035Y-79417830D01*
X153673903Y-79203663D01*
X153735063Y-78975408D01*
X153755659Y-78740000D01*
X153735063Y-78504592D01*
X153673903Y-78276337D01*
X153574035Y-78062171D01*
X153564390Y-78048397D01*
X153438496Y-77868600D01*
X153385733Y-77815837D01*
X153316567Y-77746671D01*
X153283084Y-77685351D01*
X153288068Y-77615659D01*
X153329939Y-77559725D01*
X153360915Y-77542810D01*
X153492331Y-77493796D01*
X153607546Y-77407546D01*
X153693796Y-77292331D01*
X153744091Y-77157483D01*
X153750500Y-77097873D01*
X153750499Y-75302128D01*
X153744091Y-75242517D01*
X153693796Y-75107669D01*
X153693795Y-75107668D01*
X153693793Y-75107664D01*
X153607547Y-74992455D01*
X153607544Y-74992452D01*
X153492335Y-74906206D01*
X153492328Y-74906202D01*
X153357482Y-74855908D01*
X153357483Y-74855908D01*
X153297883Y-74849501D01*
X153297881Y-74849500D01*
X153297873Y-74849500D01*
X153297864Y-74849500D01*
X151502129Y-74849500D01*
X151502123Y-74849501D01*
X151442516Y-74855908D01*
X151307671Y-74906202D01*
X151307664Y-74906206D01*
X151192455Y-74992452D01*
X151192452Y-74992455D01*
X151106206Y-75107664D01*
X151106202Y-75107671D01*
X151055908Y-75242517D01*
X151049501Y-75302116D01*
X151049501Y-75302123D01*
X151049500Y-75302135D01*
X151049500Y-77097870D01*
X151049501Y-77097876D01*
X151055908Y-77157483D01*
X151106202Y-77292328D01*
X151106206Y-77292335D01*
X151192452Y-77407544D01*
X151192455Y-77407547D01*
X151307664Y-77493793D01*
X151307671Y-77493797D01*
X151439081Y-77542810D01*
X151495015Y-77584681D01*
X151519432Y-77650145D01*
X151504580Y-77718418D01*
X151483430Y-77746673D01*
X151361503Y-77868600D01*
X151225965Y-78062169D01*
X151225964Y-78062171D01*
X151126098Y-78276335D01*
X151126094Y-78276344D01*
X151064938Y-78504586D01*
X151064936Y-78504596D01*
X151044341Y-78739999D01*
X151044341Y-78740000D01*
X146050500Y-78740000D01*
X146050500Y-73050936D01*
X174495631Y-73050936D01*
X174526442Y-73252063D01*
X174526445Y-73252075D01*
X174597111Y-73442881D01*
X174597115Y-73442888D01*
X174704745Y-73615567D01*
X174704747Y-73615569D01*
X174704748Y-73615571D01*
X174844941Y-73763053D01*
X174973344Y-73852424D01*
X175011949Y-73879294D01*
X175011950Y-73879294D01*
X175011951Y-73879295D01*
X175198942Y-73959540D01*
X175398259Y-74000500D01*
X177420804Y-74000500D01*
X177487843Y-74020185D01*
X177533598Y-74072989D01*
X177543542Y-74142147D01*
X177514517Y-74205703D01*
X177473209Y-74236881D01*
X177473065Y-74236949D01*
X177282171Y-74325964D01*
X177282169Y-74325965D01*
X177088597Y-74461505D01*
X176921505Y-74628597D01*
X176785965Y-74822169D01*
X176785964Y-74822171D01*
X176686098Y-75036335D01*
X176686094Y-75036344D01*
X176624938Y-75264586D01*
X176624936Y-75264596D01*
X176604341Y-75499999D01*
X176604341Y-75500000D01*
X176624936Y-75735403D01*
X176624938Y-75735413D01*
X176686094Y-75963655D01*
X176686096Y-75963659D01*
X176686097Y-75963663D01*
X176720281Y-76036970D01*
X176785965Y-76177830D01*
X176785967Y-76177834D01*
X176894281Y-76332521D01*
X176921505Y-76371401D01*
X177088599Y-76538495D01*
X177185384Y-76606265D01*
X177282165Y-76674032D01*
X177282167Y-76674033D01*
X177282170Y-76674035D01*
X177496337Y-76773903D01*
X177724592Y-76835063D01*
X177912918Y-76851539D01*
X177959999Y-76855659D01*
X177960000Y-76855659D01*
X177960001Y-76855659D01*
X177999234Y-76852226D01*
X178195408Y-76835063D01*
X178423663Y-76773903D01*
X178637830Y-76674035D01*
X178831401Y-76538495D01*
X178998495Y-76371401D01*
X179128424Y-76185842D01*
X179183002Y-76142217D01*
X179252500Y-76135023D01*
X179314855Y-76166546D01*
X179331575Y-76185842D01*
X179461500Y-76371395D01*
X179461505Y-76371401D01*
X179628599Y-76538495D01*
X179725384Y-76606265D01*
X179822165Y-76674032D01*
X179822167Y-76674033D01*
X179822170Y-76674035D01*
X180036337Y-76773903D01*
X180264592Y-76835063D01*
X180452918Y-76851539D01*
X180499999Y-76855659D01*
X180500000Y-76855659D01*
X180500001Y-76855659D01*
X180539234Y-76852226D01*
X180735408Y-76835063D01*
X180963663Y-76773903D01*
X181177830Y-76674035D01*
X181371401Y-76538495D01*
X181538495Y-76371401D01*
X181674035Y-76177830D01*
X181773903Y-75963663D01*
X181835063Y-75735408D01*
X181855659Y-75500000D01*
X181835063Y-75264592D01*
X181773903Y-75036337D01*
X181674035Y-74822171D01*
X181668425Y-74814158D01*
X181538494Y-74628597D01*
X181371402Y-74461506D01*
X181371395Y-74461501D01*
X181177834Y-74325967D01*
X181177830Y-74325965D01*
X180986935Y-74236949D01*
X180986790Y-74236881D01*
X180934352Y-74190710D01*
X180915200Y-74123516D01*
X180935416Y-74056635D01*
X180988581Y-74011300D01*
X181039196Y-74000500D01*
X183986507Y-74000500D01*
X183988069Y-74000519D01*
X184025283Y-74001462D01*
X184076358Y-74002757D01*
X184076358Y-74002756D01*
X184076363Y-74002757D01*
X184136753Y-73991932D01*
X184141412Y-73991280D01*
X184183607Y-73986988D01*
X184202438Y-73985074D01*
X184235227Y-73974786D01*
X184242840Y-73972918D01*
X184276653Y-73966858D01*
X184333621Y-73944101D01*
X184338053Y-73942524D01*
X184396588Y-73924159D01*
X184426627Y-73907484D01*
X184433708Y-73904122D01*
X184465617Y-73891377D01*
X184516854Y-73857608D01*
X184520851Y-73855187D01*
X184574502Y-73825409D01*
X184600568Y-73803030D01*
X184606843Y-73798300D01*
X184635519Y-73779402D01*
X184678892Y-73736027D01*
X184682350Y-73732823D01*
X184685613Y-73730020D01*
X184728895Y-73692866D01*
X184749928Y-73665691D01*
X184755098Y-73659821D01*
X185793340Y-72621580D01*
X185889698Y-72503407D01*
X185983909Y-72323049D01*
X186039886Y-72127418D01*
X186055337Y-71924524D01*
X186029630Y-71722672D01*
X185963816Y-71530128D01*
X185926570Y-71466857D01*
X185860593Y-71354778D01*
X185860592Y-71354777D01*
X185860590Y-71354773D01*
X185724179Y-71203787D01*
X185628261Y-71133353D01*
X185560171Y-71083353D01*
X185560164Y-71083349D01*
X185375274Y-70998397D01*
X185375261Y-70998392D01*
X185177053Y-70952397D01*
X184973639Y-70947244D01*
X184973634Y-70947244D01*
X184773352Y-70983140D01*
X184773345Y-70983142D01*
X184584383Y-71058623D01*
X184584371Y-71058629D01*
X184414482Y-71170596D01*
X184414478Y-71170599D01*
X183621899Y-71963181D01*
X183560576Y-71996666D01*
X183534218Y-71999500D01*
X175449257Y-71999500D01*
X175297560Y-72014925D01*
X175103420Y-72075837D01*
X175103405Y-72075844D01*
X174925500Y-72174589D01*
X174925495Y-72174592D01*
X174771106Y-72307132D01*
X174771104Y-72307134D01*
X174646554Y-72468037D01*
X174646553Y-72468040D01*
X174556940Y-72650728D01*
X174505937Y-72847714D01*
X174495631Y-73050936D01*
X146050500Y-73050936D01*
X146050500Y-54025477D01*
X162994662Y-54025477D01*
X163020368Y-54227321D01*
X163020370Y-54227329D01*
X163086183Y-54419870D01*
X163086189Y-54419882D01*
X163189406Y-54595221D01*
X163189411Y-54595228D01*
X163325820Y-54746212D01*
X163489828Y-54866646D01*
X163489832Y-54866648D01*
X163489833Y-54866649D01*
X163674732Y-54951605D01*
X163740456Y-54966857D01*
X163872945Y-54997603D01*
X164076358Y-55002757D01*
X164076358Y-55002756D01*
X164076363Y-55002757D01*
X164255853Y-54970586D01*
X164276648Y-54966859D01*
X164276648Y-54966858D01*
X164276653Y-54966858D01*
X164465617Y-54891377D01*
X164635519Y-54779402D01*
X164878101Y-54536819D01*
X164939425Y-54503334D01*
X164965783Y-54500500D01*
X187034217Y-54500500D01*
X187101256Y-54520185D01*
X187121898Y-54536819D01*
X189828420Y-57243341D01*
X189946593Y-57339698D01*
X190126951Y-57433909D01*
X190322582Y-57489887D01*
X190385289Y-57494662D01*
X190525475Y-57505337D01*
X190525477Y-57505337D01*
X190525478Y-57505337D01*
X190727321Y-57479631D01*
X190727321Y-57479630D01*
X190727328Y-57479630D01*
X190919872Y-57413816D01*
X191095227Y-57310591D01*
X191246214Y-57174179D01*
X191366649Y-57010167D01*
X191451605Y-56825269D01*
X191497603Y-56627054D01*
X191502757Y-56423637D01*
X191469296Y-56236948D01*
X191466859Y-56223352D01*
X191466857Y-56223345D01*
X191451846Y-56185765D01*
X191391378Y-56034383D01*
X191349979Y-55971569D01*
X191279402Y-55864481D01*
X191279401Y-55864480D01*
X188217012Y-52802092D01*
X188215915Y-52800967D01*
X188155061Y-52736949D01*
X188155060Y-52736948D01*
X188155059Y-52736947D01*
X188127204Y-52717559D01*
X188104709Y-52701902D01*
X188100946Y-52699064D01*
X188053413Y-52660305D01*
X188053406Y-52660300D01*
X188022959Y-52644397D01*
X188016251Y-52640334D01*
X187988049Y-52620705D01*
X187988046Y-52620703D01*
X187988045Y-52620703D01*
X187988041Y-52620701D01*
X187931680Y-52596514D01*
X187927424Y-52594493D01*
X187873057Y-52566094D01*
X187873050Y-52566091D01*
X187873049Y-52566091D01*
X187867008Y-52564362D01*
X187840030Y-52556642D01*
X187832630Y-52554008D01*
X187801057Y-52540459D01*
X187801058Y-52540459D01*
X187740966Y-52528109D01*
X187736391Y-52526986D01*
X187677420Y-52510113D01*
X187677425Y-52510113D01*
X187643158Y-52507503D01*
X187635380Y-52506412D01*
X187601742Y-52499500D01*
X187601741Y-52499500D01*
X187540402Y-52499500D01*
X187535695Y-52499321D01*
X187530121Y-52498896D01*
X187474524Y-52494662D01*
X187454589Y-52497201D01*
X187440440Y-52499003D01*
X187432611Y-52499500D01*
X164513493Y-52499500D01*
X164511930Y-52499480D01*
X164423637Y-52497243D01*
X164423628Y-52497243D01*
X164372476Y-52506412D01*
X164363254Y-52508064D01*
X164358595Y-52508718D01*
X164297564Y-52514925D01*
X164297562Y-52514926D01*
X164264780Y-52525210D01*
X164257156Y-52527081D01*
X164254057Y-52527637D01*
X164223349Y-52533141D01*
X164223341Y-52533143D01*
X164166382Y-52555895D01*
X164161946Y-52557474D01*
X164103415Y-52575840D01*
X164103412Y-52575841D01*
X164103410Y-52575842D01*
X164103403Y-52575845D01*
X164073384Y-52592507D01*
X164066290Y-52595876D01*
X164034390Y-52608619D01*
X164034388Y-52608619D01*
X164034383Y-52608622D01*
X164034376Y-52608626D01*
X164034377Y-52608626D01*
X163983154Y-52642383D01*
X163979126Y-52644824D01*
X163925502Y-52674588D01*
X163925499Y-52674590D01*
X163899427Y-52696970D01*
X163893160Y-52701695D01*
X163864482Y-52720598D01*
X163864475Y-52720603D01*
X163821116Y-52763962D01*
X163817661Y-52767164D01*
X163771106Y-52807132D01*
X163771105Y-52807133D01*
X163750076Y-52834300D01*
X163744884Y-52840194D01*
X163256662Y-53328417D01*
X163160304Y-53446590D01*
X163066090Y-53626953D01*
X163010112Y-53822584D01*
X162994662Y-54025474D01*
X162994662Y-54025477D01*
X146050500Y-54025477D01*
X146050500Y-50801150D01*
X146050521Y-50800000D01*
X161204341Y-50800000D01*
X161224936Y-51035403D01*
X161224938Y-51035413D01*
X161286094Y-51263655D01*
X161286096Y-51263659D01*
X161286097Y-51263663D01*
X161290000Y-51272032D01*
X161385965Y-51477830D01*
X161385967Y-51477834D01*
X161494281Y-51632521D01*
X161521505Y-51671401D01*
X161688599Y-51838495D01*
X161785384Y-51906264D01*
X161882165Y-51974032D01*
X161882167Y-51974033D01*
X161882170Y-51974035D01*
X162096337Y-52073903D01*
X162324592Y-52135063D01*
X162512918Y-52151539D01*
X162559999Y-52155659D01*
X162560000Y-52155659D01*
X162560001Y-52155659D01*
X162599234Y-52152226D01*
X162795408Y-52135063D01*
X163023663Y-52073903D01*
X163237830Y-51974035D01*
X163431401Y-51838495D01*
X163598495Y-51671401D01*
X163734035Y-51477830D01*
X163833903Y-51263663D01*
X163895063Y-51035408D01*
X163915659Y-50800000D01*
X177714341Y-50800000D01*
X177734936Y-51035403D01*
X177734938Y-51035413D01*
X177796094Y-51263655D01*
X177796096Y-51263659D01*
X177796097Y-51263663D01*
X177800000Y-51272032D01*
X177895965Y-51477830D01*
X177895967Y-51477834D01*
X178004281Y-51632521D01*
X178031505Y-51671401D01*
X178198599Y-51838495D01*
X178295384Y-51906264D01*
X178392165Y-51974032D01*
X178392167Y-51974033D01*
X178392170Y-51974035D01*
X178606337Y-52073903D01*
X178834592Y-52135063D01*
X179022918Y-52151539D01*
X179069999Y-52155659D01*
X179070000Y-52155659D01*
X179070001Y-52155659D01*
X179109234Y-52152226D01*
X179305408Y-52135063D01*
X179533663Y-52073903D01*
X179747830Y-51974035D01*
X179941401Y-51838495D01*
X180108495Y-51671401D01*
X180238424Y-51485842D01*
X180293002Y-51442217D01*
X180362500Y-51435023D01*
X180424855Y-51466546D01*
X180441575Y-51485842D01*
X180571500Y-51671395D01*
X180571505Y-51671401D01*
X180738599Y-51838495D01*
X180835384Y-51906264D01*
X180932165Y-51974032D01*
X180932167Y-51974033D01*
X180932170Y-51974035D01*
X181146337Y-52073903D01*
X181374592Y-52135063D01*
X181562918Y-52151539D01*
X181609999Y-52155659D01*
X181610000Y-52155659D01*
X181610001Y-52155659D01*
X181649234Y-52152226D01*
X181845408Y-52135063D01*
X182073663Y-52073903D01*
X182287830Y-51974035D01*
X182481401Y-51838495D01*
X182648495Y-51671401D01*
X182778424Y-51485842D01*
X182833002Y-51442217D01*
X182902500Y-51435023D01*
X182964855Y-51466546D01*
X182981575Y-51485842D01*
X183111500Y-51671395D01*
X183111505Y-51671401D01*
X183278599Y-51838495D01*
X183375384Y-51906264D01*
X183472165Y-51974032D01*
X183472167Y-51974033D01*
X183472170Y-51974035D01*
X183686337Y-52073903D01*
X183914592Y-52135063D01*
X184102918Y-52151539D01*
X184149999Y-52155659D01*
X184150000Y-52155659D01*
X184150001Y-52155659D01*
X184189234Y-52152226D01*
X184385408Y-52135063D01*
X184613663Y-52073903D01*
X184827830Y-51974035D01*
X185021401Y-51838495D01*
X185188495Y-51671401D01*
X185318424Y-51485842D01*
X185373002Y-51442217D01*
X185442500Y-51435023D01*
X185504855Y-51466546D01*
X185521575Y-51485842D01*
X185651500Y-51671395D01*
X185651505Y-51671401D01*
X185818599Y-51838495D01*
X185915384Y-51906264D01*
X186012165Y-51974032D01*
X186012167Y-51974033D01*
X186012170Y-51974035D01*
X186226337Y-52073903D01*
X186454592Y-52135063D01*
X186642918Y-52151539D01*
X186689999Y-52155659D01*
X186690000Y-52155659D01*
X186690001Y-52155659D01*
X186729234Y-52152226D01*
X186925408Y-52135063D01*
X187153663Y-52073903D01*
X187367830Y-51974035D01*
X187561401Y-51838495D01*
X187728495Y-51671401D01*
X187864035Y-51477830D01*
X187963903Y-51263663D01*
X188025063Y-51035408D01*
X188045659Y-50800000D01*
X188025063Y-50564592D01*
X187963903Y-50336337D01*
X187864035Y-50122171D01*
X187858425Y-50114158D01*
X187728494Y-49928597D01*
X187561402Y-49761506D01*
X187561395Y-49761501D01*
X187367834Y-49625967D01*
X187367830Y-49625965D01*
X187283270Y-49586534D01*
X187153663Y-49526097D01*
X187153659Y-49526096D01*
X187153655Y-49526094D01*
X186925413Y-49464938D01*
X186925403Y-49464936D01*
X186690001Y-49444341D01*
X186689999Y-49444341D01*
X186454596Y-49464936D01*
X186454586Y-49464938D01*
X186226344Y-49526094D01*
X186226335Y-49526098D01*
X186012171Y-49625964D01*
X186012169Y-49625965D01*
X185818597Y-49761505D01*
X185651505Y-49928597D01*
X185521575Y-50114158D01*
X185466998Y-50157783D01*
X185397500Y-50164977D01*
X185335145Y-50133454D01*
X185318425Y-50114158D01*
X185188494Y-49928597D01*
X185021402Y-49761506D01*
X185021395Y-49761501D01*
X184827834Y-49625967D01*
X184827830Y-49625965D01*
X184743270Y-49586534D01*
X184613663Y-49526097D01*
X184613659Y-49526096D01*
X184613655Y-49526094D01*
X184385413Y-49464938D01*
X184385403Y-49464936D01*
X184150001Y-49444341D01*
X184149999Y-49444341D01*
X183914596Y-49464936D01*
X183914586Y-49464938D01*
X183686344Y-49526094D01*
X183686335Y-49526098D01*
X183472171Y-49625964D01*
X183472169Y-49625965D01*
X183278597Y-49761505D01*
X183111508Y-49928594D01*
X182981574Y-50114159D01*
X182926997Y-50157784D01*
X182857498Y-50164976D01*
X182795144Y-50133454D01*
X182778424Y-50114158D01*
X182648494Y-49928597D01*
X182481402Y-49761506D01*
X182481395Y-49761501D01*
X182287834Y-49625967D01*
X182287830Y-49625965D01*
X182203270Y-49586534D01*
X182073663Y-49526097D01*
X182073659Y-49526096D01*
X182073655Y-49526094D01*
X181845413Y-49464938D01*
X181845403Y-49464936D01*
X181610001Y-49444341D01*
X181609999Y-49444341D01*
X181374596Y-49464936D01*
X181374586Y-49464938D01*
X181146344Y-49526094D01*
X181146335Y-49526098D01*
X180932171Y-49625964D01*
X180932169Y-49625965D01*
X180738597Y-49761505D01*
X180571508Y-49928594D01*
X180441574Y-50114159D01*
X180386997Y-50157784D01*
X180317498Y-50164976D01*
X180255144Y-50133454D01*
X180238424Y-50114158D01*
X180108494Y-49928597D01*
X179941402Y-49761506D01*
X179941395Y-49761501D01*
X179747834Y-49625967D01*
X179747830Y-49625965D01*
X179663270Y-49586534D01*
X179533663Y-49526097D01*
X179533659Y-49526096D01*
X179533655Y-49526094D01*
X179305413Y-49464938D01*
X179305403Y-49464936D01*
X179070001Y-49444341D01*
X179069999Y-49444341D01*
X178834596Y-49464936D01*
X178834586Y-49464938D01*
X178606344Y-49526094D01*
X178606335Y-49526098D01*
X178392171Y-49625964D01*
X178392169Y-49625965D01*
X178198597Y-49761505D01*
X178031505Y-49928597D01*
X177895965Y-50122169D01*
X177895964Y-50122171D01*
X177796098Y-50336335D01*
X177796094Y-50336344D01*
X177734938Y-50564586D01*
X177734936Y-50564596D01*
X177714341Y-50799999D01*
X177714341Y-50800000D01*
X163915659Y-50800000D01*
X163895063Y-50564592D01*
X163833903Y-50336337D01*
X163734035Y-50122171D01*
X163728425Y-50114158D01*
X163598494Y-49928597D01*
X163431402Y-49761506D01*
X163431395Y-49761501D01*
X163237834Y-49625967D01*
X163237830Y-49625965D01*
X163153270Y-49586534D01*
X163023663Y-49526097D01*
X163023659Y-49526096D01*
X163023655Y-49526094D01*
X162795413Y-49464938D01*
X162795403Y-49464936D01*
X162560001Y-49444341D01*
X162559999Y-49444341D01*
X162324596Y-49464936D01*
X162324586Y-49464938D01*
X162096344Y-49526094D01*
X162096335Y-49526098D01*
X161882171Y-49625964D01*
X161882169Y-49625965D01*
X161688597Y-49761505D01*
X161521505Y-49928597D01*
X161385965Y-50122169D01*
X161385964Y-50122171D01*
X161286098Y-50336335D01*
X161286094Y-50336344D01*
X161224938Y-50564586D01*
X161224936Y-50564596D01*
X161204341Y-50799999D01*
X161204341Y-50800000D01*
X146050521Y-50800000D01*
X146050542Y-50798867D01*
X146060498Y-50532776D01*
X146068764Y-50322412D01*
X146069102Y-50317972D01*
X146097725Y-50063937D01*
X146124361Y-49838891D01*
X146125004Y-49834705D01*
X146171966Y-49586503D01*
X146216822Y-49360999D01*
X146217718Y-49357159D01*
X146282778Y-49114353D01*
X146345575Y-48891692D01*
X146346707Y-48888106D01*
X146429524Y-48651429D01*
X146509882Y-48433612D01*
X146511190Y-48430361D01*
X146611104Y-48201355D01*
X146611547Y-48200369D01*
X146708766Y-47989485D01*
X146710191Y-47986601D01*
X146826829Y-47765913D01*
X146827432Y-47764804D01*
X146941042Y-47561937D01*
X146942565Y-47559372D01*
X147075260Y-47348189D01*
X147076109Y-47346878D01*
X147205345Y-47153463D01*
X147206950Y-47151179D01*
X147354984Y-46950600D01*
X147356063Y-46949186D01*
X147500160Y-46766399D01*
X147501728Y-46764496D01*
X147664317Y-46575564D01*
X147665670Y-46574047D01*
X147823696Y-46403096D01*
X147825273Y-46401456D01*
X148001456Y-46225273D01*
X148003096Y-46223696D01*
X148174047Y-46065670D01*
X148175564Y-46064317D01*
X148364496Y-45901728D01*
X148366399Y-45900160D01*
X148549186Y-45756063D01*
X148550600Y-45754984D01*
X148751179Y-45606950D01*
X148753463Y-45605345D01*
X148946878Y-45476109D01*
X148948189Y-45475260D01*
X149159372Y-45342565D01*
X149161937Y-45341042D01*
X149364804Y-45227432D01*
X149365913Y-45226829D01*
X149586601Y-45110191D01*
X149589485Y-45108766D01*
X149800369Y-45011547D01*
X149801355Y-45011104D01*
X150030361Y-44911190D01*
X150033612Y-44909882D01*
X150251429Y-44829524D01*
X150488106Y-44746707D01*
X150491692Y-44745575D01*
X150714378Y-44682771D01*
X150957159Y-44617718D01*
X150960999Y-44616822D01*
X151186503Y-44571966D01*
X151434705Y-44525004D01*
X151438891Y-44524361D01*
X151663937Y-44497725D01*
X151917972Y-44469102D01*
X151922412Y-44468764D01*
X152133056Y-44460488D01*
X152398867Y-44450542D01*
X152401152Y-44450500D01*
X203198848Y-44450500D01*
X203201132Y-44450542D01*
G37*
%TD.AperFunction*%
%TD*%
M02*
