%TF.GenerationSoftware,KiCad,Pcbnew,7.0.5*%
%TF.CreationDate,2023-09-16T15:31:54-07:00*%
%TF.ProjectId,ADS1219Module,41445331-3231-4394-9d6f-64756c652e6b,rev?*%
%TF.SameCoordinates,Original*%
%TF.FileFunction,Legend,Top*%
%TF.FilePolarity,Positive*%
%FSLAX46Y46*%
G04 Gerber Fmt 4.6, Leading zero omitted, Abs format (unit mm)*
G04 Created by KiCad (PCBNEW 7.0.5) date 2023-09-16 15:31:54*
%MOMM*%
%LPD*%
G01*
G04 APERTURE LIST*
%ADD10C,0.150000*%
%ADD11C,0.120000*%
G04 APERTURE END LIST*
D10*
X205336779Y-73988866D02*
X206098684Y-73988866D01*
X205717731Y-74369819D02*
X205717731Y-73607914D01*
X206432017Y-73369819D02*
X206765350Y-74369819D01*
X206765350Y-74369819D02*
X207098683Y-73369819D01*
X207346302Y-74251723D02*
X207727255Y-74251723D01*
X207270112Y-74480295D02*
X207536779Y-73680295D01*
X207536779Y-73680295D02*
X207803445Y-74480295D01*
X208032016Y-74251723D02*
X208412969Y-74251723D01*
X207955826Y-74480295D02*
X208222493Y-73680295D01*
X208222493Y-73680295D02*
X208489159Y-74480295D01*
X201789160Y-90084104D02*
X202265350Y-90084104D01*
X201693922Y-90369819D02*
X202027255Y-89369819D01*
X202027255Y-89369819D02*
X202360588Y-90369819D01*
X202693922Y-90369819D02*
X202693922Y-89369819D01*
X203170112Y-90369819D02*
X203170112Y-89369819D01*
X203170112Y-89369819D02*
X203741540Y-90369819D01*
X203741540Y-90369819D02*
X203741540Y-89369819D01*
X204741540Y-90369819D02*
X204170112Y-90369819D01*
X204455826Y-90369819D02*
X204455826Y-89369819D01*
X204455826Y-89369819D02*
X204360588Y-89512676D01*
X204360588Y-89512676D02*
X204265350Y-89607914D01*
X204265350Y-89607914D02*
X204170112Y-89655533D01*
X173917438Y-99639411D02*
X173869819Y-99734649D01*
X173869819Y-99734649D02*
X173869819Y-99877506D01*
X173869819Y-99877506D02*
X173917438Y-100020363D01*
X173917438Y-100020363D02*
X174012676Y-100115601D01*
X174012676Y-100115601D02*
X174107914Y-100163220D01*
X174107914Y-100163220D02*
X174298390Y-100210839D01*
X174298390Y-100210839D02*
X174441247Y-100210839D01*
X174441247Y-100210839D02*
X174631723Y-100163220D01*
X174631723Y-100163220D02*
X174726961Y-100115601D01*
X174726961Y-100115601D02*
X174822200Y-100020363D01*
X174822200Y-100020363D02*
X174869819Y-99877506D01*
X174869819Y-99877506D02*
X174869819Y-99782268D01*
X174869819Y-99782268D02*
X174822200Y-99639411D01*
X174822200Y-99639411D02*
X174774580Y-99591792D01*
X174774580Y-99591792D02*
X174441247Y-99591792D01*
X174441247Y-99591792D02*
X174441247Y-99782268D01*
X174869819Y-99163220D02*
X173869819Y-99163220D01*
X173869819Y-99163220D02*
X174869819Y-98591792D01*
X174869819Y-98591792D02*
X173869819Y-98591792D01*
X174869819Y-98115601D02*
X173869819Y-98115601D01*
X173869819Y-98115601D02*
X173869819Y-97877506D01*
X173869819Y-97877506D02*
X173917438Y-97734649D01*
X173917438Y-97734649D02*
X174012676Y-97639411D01*
X174012676Y-97639411D02*
X174107914Y-97591792D01*
X174107914Y-97591792D02*
X174298390Y-97544173D01*
X174298390Y-97544173D02*
X174441247Y-97544173D01*
X174441247Y-97544173D02*
X174631723Y-97591792D01*
X174631723Y-97591792D02*
X174726961Y-97639411D01*
X174726961Y-97639411D02*
X174822200Y-97734649D01*
X174822200Y-97734649D02*
X174869819Y-97877506D01*
X174869819Y-97877506D02*
X174869819Y-98115601D01*
X201789160Y-70584104D02*
X202265350Y-70584104D01*
X201693922Y-70869819D02*
X202027255Y-69869819D01*
X202027255Y-69869819D02*
X202360588Y-70869819D01*
X202693922Y-70869819D02*
X202693922Y-69869819D01*
X203170112Y-70869819D02*
X203170112Y-69869819D01*
X203170112Y-69869819D02*
X203741540Y-70869819D01*
X203741540Y-70869819D02*
X203741540Y-69869819D01*
X204408207Y-69869819D02*
X204503445Y-69869819D01*
X204503445Y-69869819D02*
X204598683Y-69917438D01*
X204598683Y-69917438D02*
X204646302Y-69965057D01*
X204646302Y-69965057D02*
X204693921Y-70060295D01*
X204693921Y-70060295D02*
X204741540Y-70250771D01*
X204741540Y-70250771D02*
X204741540Y-70488866D01*
X204741540Y-70488866D02*
X204693921Y-70679342D01*
X204693921Y-70679342D02*
X204646302Y-70774580D01*
X204646302Y-70774580D02*
X204598683Y-70822200D01*
X204598683Y-70822200D02*
X204503445Y-70869819D01*
X204503445Y-70869819D02*
X204408207Y-70869819D01*
X204408207Y-70869819D02*
X204312969Y-70822200D01*
X204312969Y-70822200D02*
X204265350Y-70774580D01*
X204265350Y-70774580D02*
X204217731Y-70679342D01*
X204217731Y-70679342D02*
X204170112Y-70488866D01*
X204170112Y-70488866D02*
X204170112Y-70250771D01*
X204170112Y-70250771D02*
X204217731Y-70060295D01*
X204217731Y-70060295D02*
X204265350Y-69965057D01*
X204265350Y-69965057D02*
X204312969Y-69917438D01*
X204312969Y-69917438D02*
X204408207Y-69869819D01*
X206360588Y-75917438D02*
X206265350Y-75869819D01*
X206265350Y-75869819D02*
X206122493Y-75869819D01*
X206122493Y-75869819D02*
X205979636Y-75917438D01*
X205979636Y-75917438D02*
X205884398Y-76012676D01*
X205884398Y-76012676D02*
X205836779Y-76107914D01*
X205836779Y-76107914D02*
X205789160Y-76298390D01*
X205789160Y-76298390D02*
X205789160Y-76441247D01*
X205789160Y-76441247D02*
X205836779Y-76631723D01*
X205836779Y-76631723D02*
X205884398Y-76726961D01*
X205884398Y-76726961D02*
X205979636Y-76822200D01*
X205979636Y-76822200D02*
X206122493Y-76869819D01*
X206122493Y-76869819D02*
X206217731Y-76869819D01*
X206217731Y-76869819D02*
X206360588Y-76822200D01*
X206360588Y-76822200D02*
X206408207Y-76774580D01*
X206408207Y-76774580D02*
X206408207Y-76441247D01*
X206408207Y-76441247D02*
X206217731Y-76441247D01*
X206836779Y-76869819D02*
X206836779Y-75869819D01*
X206836779Y-75869819D02*
X207408207Y-76869819D01*
X207408207Y-76869819D02*
X207408207Y-75869819D01*
X207884398Y-76869819D02*
X207884398Y-75869819D01*
X207884398Y-75869819D02*
X208122493Y-75869819D01*
X208122493Y-75869819D02*
X208265350Y-75917438D01*
X208265350Y-75917438D02*
X208360588Y-76012676D01*
X208360588Y-76012676D02*
X208408207Y-76107914D01*
X208408207Y-76107914D02*
X208455826Y-76298390D01*
X208455826Y-76298390D02*
X208455826Y-76441247D01*
X208455826Y-76441247D02*
X208408207Y-76631723D01*
X208408207Y-76631723D02*
X208360588Y-76726961D01*
X208360588Y-76726961D02*
X208265350Y-76822200D01*
X208265350Y-76822200D02*
X208122493Y-76869819D01*
X208122493Y-76869819D02*
X207884398Y-76869819D01*
X204836779Y-92988866D02*
X205598684Y-92988866D01*
X205217731Y-93369819D02*
X205217731Y-92607914D01*
X205932017Y-92369819D02*
X206265350Y-93369819D01*
X206265350Y-93369819D02*
X206598683Y-92369819D01*
X206846302Y-93251723D02*
X207227255Y-93251723D01*
X206770112Y-93480295D02*
X207036779Y-92680295D01*
X207036779Y-92680295D02*
X207303445Y-93480295D01*
X207532016Y-93251723D02*
X207912969Y-93251723D01*
X207455826Y-93480295D02*
X207722493Y-92680295D01*
X207722493Y-92680295D02*
X207989159Y-93480295D01*
X183860588Y-77417438D02*
X183765350Y-77369819D01*
X183765350Y-77369819D02*
X183622493Y-77369819D01*
X183622493Y-77369819D02*
X183479636Y-77417438D01*
X183479636Y-77417438D02*
X183384398Y-77512676D01*
X183384398Y-77512676D02*
X183336779Y-77607914D01*
X183336779Y-77607914D02*
X183289160Y-77798390D01*
X183289160Y-77798390D02*
X183289160Y-77941247D01*
X183289160Y-77941247D02*
X183336779Y-78131723D01*
X183336779Y-78131723D02*
X183384398Y-78226961D01*
X183384398Y-78226961D02*
X183479636Y-78322200D01*
X183479636Y-78322200D02*
X183622493Y-78369819D01*
X183622493Y-78369819D02*
X183717731Y-78369819D01*
X183717731Y-78369819D02*
X183860588Y-78322200D01*
X183860588Y-78322200D02*
X183908207Y-78274580D01*
X183908207Y-78274580D02*
X183908207Y-77941247D01*
X183908207Y-77941247D02*
X183717731Y-77941247D01*
X184336779Y-78369819D02*
X184336779Y-77369819D01*
X184336779Y-77369819D02*
X184908207Y-78369819D01*
X184908207Y-78369819D02*
X184908207Y-77369819D01*
X185384398Y-78369819D02*
X185384398Y-77369819D01*
X185384398Y-77369819D02*
X185622493Y-77369819D01*
X185622493Y-77369819D02*
X185765350Y-77417438D01*
X185765350Y-77417438D02*
X185860588Y-77512676D01*
X185860588Y-77512676D02*
X185908207Y-77607914D01*
X185908207Y-77607914D02*
X185955826Y-77798390D01*
X185955826Y-77798390D02*
X185955826Y-77941247D01*
X185955826Y-77941247D02*
X185908207Y-78131723D01*
X185908207Y-78131723D02*
X185860588Y-78226961D01*
X185860588Y-78226961D02*
X185765350Y-78322200D01*
X185765350Y-78322200D02*
X185622493Y-78369819D01*
X185622493Y-78369819D02*
X185384398Y-78369819D01*
X189582561Y-46360588D02*
X189630180Y-46265350D01*
X189630180Y-46265350D02*
X189630180Y-46122493D01*
X189630180Y-46122493D02*
X189582561Y-45979636D01*
X189582561Y-45979636D02*
X189487323Y-45884398D01*
X189487323Y-45884398D02*
X189392085Y-45836779D01*
X189392085Y-45836779D02*
X189201609Y-45789160D01*
X189201609Y-45789160D02*
X189058752Y-45789160D01*
X189058752Y-45789160D02*
X188868276Y-45836779D01*
X188868276Y-45836779D02*
X188773038Y-45884398D01*
X188773038Y-45884398D02*
X188677800Y-45979636D01*
X188677800Y-45979636D02*
X188630180Y-46122493D01*
X188630180Y-46122493D02*
X188630180Y-46217731D01*
X188630180Y-46217731D02*
X188677800Y-46360588D01*
X188677800Y-46360588D02*
X188725419Y-46408207D01*
X188725419Y-46408207D02*
X189058752Y-46408207D01*
X189058752Y-46408207D02*
X189058752Y-46217731D01*
X188630180Y-46836779D02*
X189630180Y-46836779D01*
X189630180Y-46836779D02*
X188630180Y-47408207D01*
X188630180Y-47408207D02*
X189630180Y-47408207D01*
X188630180Y-47884398D02*
X189630180Y-47884398D01*
X189630180Y-47884398D02*
X189630180Y-48122493D01*
X189630180Y-48122493D02*
X189582561Y-48265350D01*
X189582561Y-48265350D02*
X189487323Y-48360588D01*
X189487323Y-48360588D02*
X189392085Y-48408207D01*
X189392085Y-48408207D02*
X189201609Y-48455826D01*
X189201609Y-48455826D02*
X189058752Y-48455826D01*
X189058752Y-48455826D02*
X188868276Y-48408207D01*
X188868276Y-48408207D02*
X188773038Y-48360588D01*
X188773038Y-48360588D02*
X188677800Y-48265350D01*
X188677800Y-48265350D02*
X188630180Y-48122493D01*
X188630180Y-48122493D02*
X188630180Y-47884398D01*
X146836779Y-98988866D02*
X147598684Y-98988866D01*
X147932017Y-98369819D02*
X148265350Y-99369819D01*
X148265350Y-99369819D02*
X148598683Y-98369819D01*
X148846302Y-99251723D02*
X149227255Y-99251723D01*
X148770112Y-99480295D02*
X149036779Y-98680295D01*
X149036779Y-98680295D02*
X149303445Y-99480295D01*
X149532016Y-99251723D02*
X149912969Y-99251723D01*
X149455826Y-99480295D02*
X149722493Y-98680295D01*
X149722493Y-98680295D02*
X149989159Y-99480295D01*
X148360588Y-80917438D02*
X148265350Y-80869819D01*
X148265350Y-80869819D02*
X148122493Y-80869819D01*
X148122493Y-80869819D02*
X147979636Y-80917438D01*
X147979636Y-80917438D02*
X147884398Y-81012676D01*
X147884398Y-81012676D02*
X147836779Y-81107914D01*
X147836779Y-81107914D02*
X147789160Y-81298390D01*
X147789160Y-81298390D02*
X147789160Y-81441247D01*
X147789160Y-81441247D02*
X147836779Y-81631723D01*
X147836779Y-81631723D02*
X147884398Y-81726961D01*
X147884398Y-81726961D02*
X147979636Y-81822200D01*
X147979636Y-81822200D02*
X148122493Y-81869819D01*
X148122493Y-81869819D02*
X148217731Y-81869819D01*
X148217731Y-81869819D02*
X148360588Y-81822200D01*
X148360588Y-81822200D02*
X148408207Y-81774580D01*
X148408207Y-81774580D02*
X148408207Y-81441247D01*
X148408207Y-81441247D02*
X148217731Y-81441247D01*
X148836779Y-81869819D02*
X148836779Y-80869819D01*
X148836779Y-80869819D02*
X149408207Y-81869819D01*
X149408207Y-81869819D02*
X149408207Y-80869819D01*
X149884398Y-81869819D02*
X149884398Y-80869819D01*
X149884398Y-80869819D02*
X150122493Y-80869819D01*
X150122493Y-80869819D02*
X150265350Y-80917438D01*
X150265350Y-80917438D02*
X150360588Y-81012676D01*
X150360588Y-81012676D02*
X150408207Y-81107914D01*
X150408207Y-81107914D02*
X150455826Y-81298390D01*
X150455826Y-81298390D02*
X150455826Y-81441247D01*
X150455826Y-81441247D02*
X150408207Y-81631723D01*
X150408207Y-81631723D02*
X150360588Y-81726961D01*
X150360588Y-81726961D02*
X150265350Y-81822200D01*
X150265350Y-81822200D02*
X150122493Y-81869819D01*
X150122493Y-81869819D02*
X149884398Y-81869819D01*
X150789160Y-92584104D02*
X151265350Y-92584104D01*
X150693922Y-92869819D02*
X151027255Y-91869819D01*
X151027255Y-91869819D02*
X151360588Y-92869819D01*
X151693922Y-92869819D02*
X151693922Y-91869819D01*
X152170112Y-92869819D02*
X152170112Y-91869819D01*
X152170112Y-91869819D02*
X152741540Y-92869819D01*
X152741540Y-92869819D02*
X152741540Y-91869819D01*
X153170112Y-91965057D02*
X153217731Y-91917438D01*
X153217731Y-91917438D02*
X153312969Y-91869819D01*
X153312969Y-91869819D02*
X153551064Y-91869819D01*
X153551064Y-91869819D02*
X153646302Y-91917438D01*
X153646302Y-91917438D02*
X153693921Y-91965057D01*
X153693921Y-91965057D02*
X153741540Y-92060295D01*
X153741540Y-92060295D02*
X153741540Y-92155533D01*
X153741540Y-92155533D02*
X153693921Y-92298390D01*
X153693921Y-92298390D02*
X153122493Y-92869819D01*
X153122493Y-92869819D02*
X153741540Y-92869819D01*
X179336779Y-78369819D02*
X179336779Y-77369819D01*
X179812969Y-78369819D02*
X179812969Y-77369819D01*
X179812969Y-77369819D02*
X180384397Y-78369819D01*
X180384397Y-78369819D02*
X180384397Y-77369819D01*
X180717731Y-77369819D02*
X181289159Y-77369819D01*
X181003445Y-78369819D02*
X181003445Y-77369819D01*
X179198684Y-77092200D02*
X181284398Y-77092200D01*
X204836779Y-97988866D02*
X205598684Y-97988866D01*
X205932017Y-97369819D02*
X206265350Y-98369819D01*
X206265350Y-98369819D02*
X206598683Y-97369819D01*
X206846302Y-98251723D02*
X207227255Y-98251723D01*
X206770112Y-98480295D02*
X207036779Y-97680295D01*
X207036779Y-97680295D02*
X207303445Y-98480295D01*
X207532016Y-98251723D02*
X207912969Y-98251723D01*
X207455826Y-98480295D02*
X207722493Y-97680295D01*
X207722493Y-97680295D02*
X207989159Y-98480295D01*
X181336779Y-100488866D02*
X182098684Y-100488866D01*
X183146302Y-100869819D02*
X182812969Y-100393628D01*
X182574874Y-100869819D02*
X182574874Y-99869819D01*
X182574874Y-99869819D02*
X182955826Y-99869819D01*
X182955826Y-99869819D02*
X183051064Y-99917438D01*
X183051064Y-99917438D02*
X183098683Y-99965057D01*
X183098683Y-99965057D02*
X183146302Y-100060295D01*
X183146302Y-100060295D02*
X183146302Y-100203152D01*
X183146302Y-100203152D02*
X183098683Y-100298390D01*
X183098683Y-100298390D02*
X183051064Y-100346009D01*
X183051064Y-100346009D02*
X182955826Y-100393628D01*
X182955826Y-100393628D02*
X182574874Y-100393628D01*
X150789160Y-72584104D02*
X151265350Y-72584104D01*
X150693922Y-72869819D02*
X151027255Y-71869819D01*
X151027255Y-71869819D02*
X151360588Y-72869819D01*
X151693922Y-72869819D02*
X151693922Y-71869819D01*
X152170112Y-72869819D02*
X152170112Y-71869819D01*
X152170112Y-71869819D02*
X152741540Y-72869819D01*
X152741540Y-72869819D02*
X152741540Y-71869819D01*
X153122493Y-71869819D02*
X153741540Y-71869819D01*
X153741540Y-71869819D02*
X153408207Y-72250771D01*
X153408207Y-72250771D02*
X153551064Y-72250771D01*
X153551064Y-72250771D02*
X153646302Y-72298390D01*
X153646302Y-72298390D02*
X153693921Y-72346009D01*
X153693921Y-72346009D02*
X153741540Y-72441247D01*
X153741540Y-72441247D02*
X153741540Y-72679342D01*
X153741540Y-72679342D02*
X153693921Y-72774580D01*
X153693921Y-72774580D02*
X153646302Y-72822200D01*
X153646302Y-72822200D02*
X153551064Y-72869819D01*
X153551064Y-72869819D02*
X153265350Y-72869819D01*
X153265350Y-72869819D02*
X153170112Y-72822200D01*
X153170112Y-72822200D02*
X153122493Y-72774580D01*
X178130180Y-46836779D02*
X179130180Y-46836779D01*
X178130180Y-47312969D02*
X179130180Y-47312969D01*
X179130180Y-47312969D02*
X178130180Y-47884397D01*
X178130180Y-47884397D02*
X179130180Y-47884397D01*
X179130180Y-48217731D02*
X179130180Y-48789159D01*
X178130180Y-48503445D02*
X179130180Y-48503445D01*
X170836779Y-115988866D02*
X171598684Y-115988866D01*
X171932017Y-115369819D02*
X172265350Y-116369819D01*
X172265350Y-116369819D02*
X172598683Y-115369819D01*
X172846302Y-116251723D02*
X173227255Y-116251723D01*
X172770112Y-116480295D02*
X173036779Y-115680295D01*
X173036779Y-115680295D02*
X173303445Y-116480295D01*
X173532016Y-116251723D02*
X173912969Y-116251723D01*
X173455826Y-116480295D02*
X173722493Y-115680295D01*
X173722493Y-115680295D02*
X173989159Y-116480295D01*
X183677800Y-46289160D02*
X183630180Y-46432017D01*
X183630180Y-46432017D02*
X183630180Y-46670112D01*
X183630180Y-46670112D02*
X183677800Y-46765350D01*
X183677800Y-46765350D02*
X183725419Y-46812969D01*
X183725419Y-46812969D02*
X183820657Y-46860588D01*
X183820657Y-46860588D02*
X183915895Y-46860588D01*
X183915895Y-46860588D02*
X184011133Y-46812969D01*
X184011133Y-46812969D02*
X184058752Y-46765350D01*
X184058752Y-46765350D02*
X184106371Y-46670112D01*
X184106371Y-46670112D02*
X184153990Y-46479636D01*
X184153990Y-46479636D02*
X184201609Y-46384398D01*
X184201609Y-46384398D02*
X184249228Y-46336779D01*
X184249228Y-46336779D02*
X184344466Y-46289160D01*
X184344466Y-46289160D02*
X184439704Y-46289160D01*
X184439704Y-46289160D02*
X184534942Y-46336779D01*
X184534942Y-46336779D02*
X184582561Y-46384398D01*
X184582561Y-46384398D02*
X184630180Y-46479636D01*
X184630180Y-46479636D02*
X184630180Y-46717731D01*
X184630180Y-46717731D02*
X184582561Y-46860588D01*
X183630180Y-47289160D02*
X184630180Y-47289160D01*
X184630180Y-47289160D02*
X184630180Y-47527255D01*
X184630180Y-47527255D02*
X184582561Y-47670112D01*
X184582561Y-47670112D02*
X184487323Y-47765350D01*
X184487323Y-47765350D02*
X184392085Y-47812969D01*
X184392085Y-47812969D02*
X184201609Y-47860588D01*
X184201609Y-47860588D02*
X184058752Y-47860588D01*
X184058752Y-47860588D02*
X183868276Y-47812969D01*
X183868276Y-47812969D02*
X183773038Y-47765350D01*
X183773038Y-47765350D02*
X183677800Y-47670112D01*
X183677800Y-47670112D02*
X183630180Y-47527255D01*
X183630180Y-47527255D02*
X183630180Y-47289160D01*
X183915895Y-48241541D02*
X183915895Y-48717731D01*
X183630180Y-48146303D02*
X184630180Y-48479636D01*
X184630180Y-48479636D02*
X183630180Y-48812969D01*
X181177800Y-46289160D02*
X181130180Y-46432017D01*
X181130180Y-46432017D02*
X181130180Y-46670112D01*
X181130180Y-46670112D02*
X181177800Y-46765350D01*
X181177800Y-46765350D02*
X181225419Y-46812969D01*
X181225419Y-46812969D02*
X181320657Y-46860588D01*
X181320657Y-46860588D02*
X181415895Y-46860588D01*
X181415895Y-46860588D02*
X181511133Y-46812969D01*
X181511133Y-46812969D02*
X181558752Y-46765350D01*
X181558752Y-46765350D02*
X181606371Y-46670112D01*
X181606371Y-46670112D02*
X181653990Y-46479636D01*
X181653990Y-46479636D02*
X181701609Y-46384398D01*
X181701609Y-46384398D02*
X181749228Y-46336779D01*
X181749228Y-46336779D02*
X181844466Y-46289160D01*
X181844466Y-46289160D02*
X181939704Y-46289160D01*
X181939704Y-46289160D02*
X182034942Y-46336779D01*
X182034942Y-46336779D02*
X182082561Y-46384398D01*
X182082561Y-46384398D02*
X182130180Y-46479636D01*
X182130180Y-46479636D02*
X182130180Y-46717731D01*
X182130180Y-46717731D02*
X182082561Y-46860588D01*
X181225419Y-47860588D02*
X181177800Y-47812969D01*
X181177800Y-47812969D02*
X181130180Y-47670112D01*
X181130180Y-47670112D02*
X181130180Y-47574874D01*
X181130180Y-47574874D02*
X181177800Y-47432017D01*
X181177800Y-47432017D02*
X181273038Y-47336779D01*
X181273038Y-47336779D02*
X181368276Y-47289160D01*
X181368276Y-47289160D02*
X181558752Y-47241541D01*
X181558752Y-47241541D02*
X181701609Y-47241541D01*
X181701609Y-47241541D02*
X181892085Y-47289160D01*
X181892085Y-47289160D02*
X181987323Y-47336779D01*
X181987323Y-47336779D02*
X182082561Y-47432017D01*
X182082561Y-47432017D02*
X182130180Y-47574874D01*
X182130180Y-47574874D02*
X182130180Y-47670112D01*
X182130180Y-47670112D02*
X182082561Y-47812969D01*
X182082561Y-47812969D02*
X182034942Y-47860588D01*
X181130180Y-48765350D02*
X181130180Y-48289160D01*
X181130180Y-48289160D02*
X182130180Y-48289160D01*
X177336779Y-100488866D02*
X178098684Y-100488866D01*
X177717731Y-100869819D02*
X177717731Y-100107914D01*
X179146302Y-100869819D02*
X178812969Y-100393628D01*
X178574874Y-100869819D02*
X178574874Y-99869819D01*
X178574874Y-99869819D02*
X178955826Y-99869819D01*
X178955826Y-99869819D02*
X179051064Y-99917438D01*
X179051064Y-99917438D02*
X179098683Y-99965057D01*
X179098683Y-99965057D02*
X179146302Y-100060295D01*
X179146302Y-100060295D02*
X179146302Y-100203152D01*
X179146302Y-100203152D02*
X179098683Y-100298390D01*
X179098683Y-100298390D02*
X179051064Y-100346009D01*
X179051064Y-100346009D02*
X178955826Y-100393628D01*
X178955826Y-100393628D02*
X178574874Y-100393628D01*
X176860588Y-115417438D02*
X176765350Y-115369819D01*
X176765350Y-115369819D02*
X176622493Y-115369819D01*
X176622493Y-115369819D02*
X176479636Y-115417438D01*
X176479636Y-115417438D02*
X176384398Y-115512676D01*
X176384398Y-115512676D02*
X176336779Y-115607914D01*
X176336779Y-115607914D02*
X176289160Y-115798390D01*
X176289160Y-115798390D02*
X176289160Y-115941247D01*
X176289160Y-115941247D02*
X176336779Y-116131723D01*
X176336779Y-116131723D02*
X176384398Y-116226961D01*
X176384398Y-116226961D02*
X176479636Y-116322200D01*
X176479636Y-116322200D02*
X176622493Y-116369819D01*
X176622493Y-116369819D02*
X176717731Y-116369819D01*
X176717731Y-116369819D02*
X176860588Y-116322200D01*
X176860588Y-116322200D02*
X176908207Y-116274580D01*
X176908207Y-116274580D02*
X176908207Y-115941247D01*
X176908207Y-115941247D02*
X176717731Y-115941247D01*
X177336779Y-116369819D02*
X177336779Y-115369819D01*
X177336779Y-115369819D02*
X177908207Y-116369819D01*
X177908207Y-116369819D02*
X177908207Y-115369819D01*
X178384398Y-116369819D02*
X178384398Y-115369819D01*
X178384398Y-115369819D02*
X178622493Y-115369819D01*
X178622493Y-115369819D02*
X178765350Y-115417438D01*
X178765350Y-115417438D02*
X178860588Y-115512676D01*
X178860588Y-115512676D02*
X178908207Y-115607914D01*
X178908207Y-115607914D02*
X178955826Y-115798390D01*
X178955826Y-115798390D02*
X178955826Y-115941247D01*
X178955826Y-115941247D02*
X178908207Y-116131723D01*
X178908207Y-116131723D02*
X178860588Y-116226961D01*
X178860588Y-116226961D02*
X178765350Y-116322200D01*
X178765350Y-116322200D02*
X178622493Y-116369819D01*
X178622493Y-116369819D02*
X178384398Y-116369819D01*
X205336779Y-78988866D02*
X206098684Y-78988866D01*
X206432017Y-78369819D02*
X206765350Y-79369819D01*
X206765350Y-79369819D02*
X207098683Y-78369819D01*
X207346302Y-79251723D02*
X207727255Y-79251723D01*
X207270112Y-79480295D02*
X207536779Y-78680295D01*
X207536779Y-78680295D02*
X207803445Y-79480295D01*
X208032016Y-79251723D02*
X208412969Y-79251723D01*
X207955826Y-79480295D02*
X208222493Y-78680295D01*
X208222493Y-78680295D02*
X208489159Y-79480295D01*
X205860588Y-94917438D02*
X205765350Y-94869819D01*
X205765350Y-94869819D02*
X205622493Y-94869819D01*
X205622493Y-94869819D02*
X205479636Y-94917438D01*
X205479636Y-94917438D02*
X205384398Y-95012676D01*
X205384398Y-95012676D02*
X205336779Y-95107914D01*
X205336779Y-95107914D02*
X205289160Y-95298390D01*
X205289160Y-95298390D02*
X205289160Y-95441247D01*
X205289160Y-95441247D02*
X205336779Y-95631723D01*
X205336779Y-95631723D02*
X205384398Y-95726961D01*
X205384398Y-95726961D02*
X205479636Y-95822200D01*
X205479636Y-95822200D02*
X205622493Y-95869819D01*
X205622493Y-95869819D02*
X205717731Y-95869819D01*
X205717731Y-95869819D02*
X205860588Y-95822200D01*
X205860588Y-95822200D02*
X205908207Y-95774580D01*
X205908207Y-95774580D02*
X205908207Y-95441247D01*
X205908207Y-95441247D02*
X205717731Y-95441247D01*
X206336779Y-95869819D02*
X206336779Y-94869819D01*
X206336779Y-94869819D02*
X206908207Y-95869819D01*
X206908207Y-95869819D02*
X206908207Y-94869819D01*
X207384398Y-95869819D02*
X207384398Y-94869819D01*
X207384398Y-94869819D02*
X207622493Y-94869819D01*
X207622493Y-94869819D02*
X207765350Y-94917438D01*
X207765350Y-94917438D02*
X207860588Y-95012676D01*
X207860588Y-95012676D02*
X207908207Y-95107914D01*
X207908207Y-95107914D02*
X207955826Y-95298390D01*
X207955826Y-95298390D02*
X207955826Y-95441247D01*
X207955826Y-95441247D02*
X207908207Y-95631723D01*
X207908207Y-95631723D02*
X207860588Y-95726961D01*
X207860588Y-95726961D02*
X207765350Y-95822200D01*
X207765350Y-95822200D02*
X207622493Y-95869819D01*
X207622493Y-95869819D02*
X207384398Y-95869819D01*
X147336779Y-78488866D02*
X148098684Y-78488866D01*
X148432017Y-77869819D02*
X148765350Y-78869819D01*
X148765350Y-78869819D02*
X149098683Y-77869819D01*
X149346302Y-78751723D02*
X149727255Y-78751723D01*
X149270112Y-78980295D02*
X149536779Y-78180295D01*
X149536779Y-78180295D02*
X149803445Y-78980295D01*
X150032016Y-78751723D02*
X150412969Y-78751723D01*
X149955826Y-78980295D02*
X150222493Y-78180295D01*
X150222493Y-78180295D02*
X150489159Y-78980295D01*
X147336779Y-83988866D02*
X148098684Y-83988866D01*
X147717731Y-84369819D02*
X147717731Y-83607914D01*
X148432017Y-83369819D02*
X148765350Y-84369819D01*
X148765350Y-84369819D02*
X149098683Y-83369819D01*
X149346302Y-84251723D02*
X149727255Y-84251723D01*
X149270112Y-84480295D02*
X149536779Y-83680295D01*
X149536779Y-83680295D02*
X149803445Y-84480295D01*
X150032016Y-84251723D02*
X150412969Y-84251723D01*
X149955826Y-84480295D02*
X150222493Y-83680295D01*
X150222493Y-83680295D02*
X150489159Y-84480295D01*
X166082561Y-46860588D02*
X166130180Y-46765350D01*
X166130180Y-46765350D02*
X166130180Y-46622493D01*
X166130180Y-46622493D02*
X166082561Y-46479636D01*
X166082561Y-46479636D02*
X165987323Y-46384398D01*
X165987323Y-46384398D02*
X165892085Y-46336779D01*
X165892085Y-46336779D02*
X165701609Y-46289160D01*
X165701609Y-46289160D02*
X165558752Y-46289160D01*
X165558752Y-46289160D02*
X165368276Y-46336779D01*
X165368276Y-46336779D02*
X165273038Y-46384398D01*
X165273038Y-46384398D02*
X165177800Y-46479636D01*
X165177800Y-46479636D02*
X165130180Y-46622493D01*
X165130180Y-46622493D02*
X165130180Y-46717731D01*
X165130180Y-46717731D02*
X165177800Y-46860588D01*
X165177800Y-46860588D02*
X165225419Y-46908207D01*
X165225419Y-46908207D02*
X165558752Y-46908207D01*
X165558752Y-46908207D02*
X165558752Y-46717731D01*
X165130180Y-47336779D02*
X166130180Y-47336779D01*
X166130180Y-47336779D02*
X165130180Y-47908207D01*
X165130180Y-47908207D02*
X166130180Y-47908207D01*
X165130180Y-48384398D02*
X166130180Y-48384398D01*
X166130180Y-48384398D02*
X166130180Y-48622493D01*
X166130180Y-48622493D02*
X166082561Y-48765350D01*
X166082561Y-48765350D02*
X165987323Y-48860588D01*
X165987323Y-48860588D02*
X165892085Y-48908207D01*
X165892085Y-48908207D02*
X165701609Y-48955826D01*
X165701609Y-48955826D02*
X165558752Y-48955826D01*
X165558752Y-48955826D02*
X165368276Y-48908207D01*
X165368276Y-48908207D02*
X165273038Y-48860588D01*
X165273038Y-48860588D02*
X165177800Y-48765350D01*
X165177800Y-48765350D02*
X165130180Y-48622493D01*
X165130180Y-48622493D02*
X165130180Y-48384398D01*
X186511133Y-46836779D02*
X186511133Y-47598684D01*
X186130180Y-47217731D02*
X186892085Y-47217731D01*
X187130180Y-47932017D02*
X186130180Y-48265350D01*
X186130180Y-48265350D02*
X187130180Y-48598683D01*
X148193922Y-95869819D02*
X148527255Y-96869819D01*
X148527255Y-96869819D02*
X148860588Y-95869819D01*
X149108207Y-96751723D02*
X149489160Y-96751723D01*
X149032017Y-96980295D02*
X149298684Y-96180295D01*
X149298684Y-96180295D02*
X149565350Y-96980295D01*
X173408207Y-78369819D02*
X173074874Y-77893628D01*
X172836779Y-78369819D02*
X172836779Y-77369819D01*
X172836779Y-77369819D02*
X173217731Y-77369819D01*
X173217731Y-77369819D02*
X173312969Y-77417438D01*
X173312969Y-77417438D02*
X173360588Y-77465057D01*
X173360588Y-77465057D02*
X173408207Y-77560295D01*
X173408207Y-77560295D02*
X173408207Y-77703152D01*
X173408207Y-77703152D02*
X173360588Y-77798390D01*
X173360588Y-77798390D02*
X173312969Y-77846009D01*
X173312969Y-77846009D02*
X173217731Y-77893628D01*
X173217731Y-77893628D02*
X172836779Y-77893628D01*
X173836779Y-77846009D02*
X174170112Y-77846009D01*
X174312969Y-78369819D02*
X173836779Y-78369819D01*
X173836779Y-78369819D02*
X173836779Y-77369819D01*
X173836779Y-77369819D02*
X174312969Y-77369819D01*
X174693922Y-78322200D02*
X174836779Y-78369819D01*
X174836779Y-78369819D02*
X175074874Y-78369819D01*
X175074874Y-78369819D02*
X175170112Y-78322200D01*
X175170112Y-78322200D02*
X175217731Y-78274580D01*
X175217731Y-78274580D02*
X175265350Y-78179342D01*
X175265350Y-78179342D02*
X175265350Y-78084104D01*
X175265350Y-78084104D02*
X175217731Y-77988866D01*
X175217731Y-77988866D02*
X175170112Y-77941247D01*
X175170112Y-77941247D02*
X175074874Y-77893628D01*
X175074874Y-77893628D02*
X174884398Y-77846009D01*
X174884398Y-77846009D02*
X174789160Y-77798390D01*
X174789160Y-77798390D02*
X174741541Y-77750771D01*
X174741541Y-77750771D02*
X174693922Y-77655533D01*
X174693922Y-77655533D02*
X174693922Y-77560295D01*
X174693922Y-77560295D02*
X174741541Y-77465057D01*
X174741541Y-77465057D02*
X174789160Y-77417438D01*
X174789160Y-77417438D02*
X174884398Y-77369819D01*
X174884398Y-77369819D02*
X175122493Y-77369819D01*
X175122493Y-77369819D02*
X175265350Y-77417438D01*
X175693922Y-77846009D02*
X176027255Y-77846009D01*
X176170112Y-78369819D02*
X175693922Y-78369819D01*
X175693922Y-78369819D02*
X175693922Y-77369819D01*
X175693922Y-77369819D02*
X176170112Y-77369819D01*
X176455827Y-77369819D02*
X177027255Y-77369819D01*
X176741541Y-78369819D02*
X176741541Y-77369819D01*
X172698684Y-77092200D02*
X177022494Y-77092200D01*
X148693922Y-75369819D02*
X149027255Y-76369819D01*
X149027255Y-76369819D02*
X149360588Y-75369819D01*
X149608207Y-76251723D02*
X149989160Y-76251723D01*
X149532017Y-76480295D02*
X149798684Y-75680295D01*
X149798684Y-75680295D02*
X150065350Y-76480295D01*
X205693922Y-99869819D02*
X206027255Y-100869819D01*
X206027255Y-100869819D02*
X206360588Y-99869819D01*
X206608207Y-100751723D02*
X206989160Y-100751723D01*
X206532017Y-100980295D02*
X206798684Y-100180295D01*
X206798684Y-100180295D02*
X207065350Y-100980295D01*
X146836779Y-104488866D02*
X147598684Y-104488866D01*
X147217731Y-104869819D02*
X147217731Y-104107914D01*
X147932017Y-103869819D02*
X148265350Y-104869819D01*
X148265350Y-104869819D02*
X148598683Y-103869819D01*
X148846302Y-104751723D02*
X149227255Y-104751723D01*
X148770112Y-104980295D02*
X149036779Y-104180295D01*
X149036779Y-104180295D02*
X149303445Y-104980295D01*
X149532016Y-104751723D02*
X149912969Y-104751723D01*
X149455826Y-104980295D02*
X149722493Y-104180295D01*
X149722493Y-104180295D02*
X149989159Y-104980295D01*
X182336779Y-115988866D02*
X183098684Y-115988866D01*
X182717731Y-116369819D02*
X182717731Y-115607914D01*
X183432017Y-115369819D02*
X183765350Y-116369819D01*
X183765350Y-116369819D02*
X184098683Y-115369819D01*
X184346302Y-116251723D02*
X184727255Y-116251723D01*
X184270112Y-116480295D02*
X184536779Y-115680295D01*
X184536779Y-115680295D02*
X184803445Y-116480295D01*
X185032016Y-116251723D02*
X185412969Y-116251723D01*
X184955826Y-116480295D02*
X185222493Y-115680295D01*
X185222493Y-115680295D02*
X185489159Y-116480295D01*
X162011133Y-46336779D02*
X162011133Y-47098684D01*
X161630180Y-46717731D02*
X162392085Y-46717731D01*
X162630180Y-47432017D02*
X161630180Y-47765350D01*
X161630180Y-47765350D02*
X162630180Y-48098683D01*
X147860588Y-101417438D02*
X147765350Y-101369819D01*
X147765350Y-101369819D02*
X147622493Y-101369819D01*
X147622493Y-101369819D02*
X147479636Y-101417438D01*
X147479636Y-101417438D02*
X147384398Y-101512676D01*
X147384398Y-101512676D02*
X147336779Y-101607914D01*
X147336779Y-101607914D02*
X147289160Y-101798390D01*
X147289160Y-101798390D02*
X147289160Y-101941247D01*
X147289160Y-101941247D02*
X147336779Y-102131723D01*
X147336779Y-102131723D02*
X147384398Y-102226961D01*
X147384398Y-102226961D02*
X147479636Y-102322200D01*
X147479636Y-102322200D02*
X147622493Y-102369819D01*
X147622493Y-102369819D02*
X147717731Y-102369819D01*
X147717731Y-102369819D02*
X147860588Y-102322200D01*
X147860588Y-102322200D02*
X147908207Y-102274580D01*
X147908207Y-102274580D02*
X147908207Y-101941247D01*
X147908207Y-101941247D02*
X147717731Y-101941247D01*
X148336779Y-102369819D02*
X148336779Y-101369819D01*
X148336779Y-101369819D02*
X148908207Y-102369819D01*
X148908207Y-102369819D02*
X148908207Y-101369819D01*
X149384398Y-102369819D02*
X149384398Y-101369819D01*
X149384398Y-101369819D02*
X149622493Y-101369819D01*
X149622493Y-101369819D02*
X149765350Y-101417438D01*
X149765350Y-101417438D02*
X149860588Y-101512676D01*
X149860588Y-101512676D02*
X149908207Y-101607914D01*
X149908207Y-101607914D02*
X149955826Y-101798390D01*
X149955826Y-101798390D02*
X149955826Y-101941247D01*
X149955826Y-101941247D02*
X149908207Y-102131723D01*
X149908207Y-102131723D02*
X149860588Y-102226961D01*
X149860588Y-102226961D02*
X149765350Y-102322200D01*
X149765350Y-102322200D02*
X149622493Y-102369819D01*
X149622493Y-102369819D02*
X149384398Y-102369819D01*
X206193922Y-80869819D02*
X206527255Y-81869819D01*
X206527255Y-81869819D02*
X206860588Y-80869819D01*
X207108207Y-81751723D02*
X207489160Y-81751723D01*
X207032017Y-81980295D02*
X207298684Y-81180295D01*
X207298684Y-81180295D02*
X207565350Y-81980295D01*
%TO.C,R27*%
X197357142Y-75804819D02*
X197023809Y-75328628D01*
X196785714Y-75804819D02*
X196785714Y-74804819D01*
X196785714Y-74804819D02*
X197166666Y-74804819D01*
X197166666Y-74804819D02*
X197261904Y-74852438D01*
X197261904Y-74852438D02*
X197309523Y-74900057D01*
X197309523Y-74900057D02*
X197357142Y-74995295D01*
X197357142Y-74995295D02*
X197357142Y-75138152D01*
X197357142Y-75138152D02*
X197309523Y-75233390D01*
X197309523Y-75233390D02*
X197261904Y-75281009D01*
X197261904Y-75281009D02*
X197166666Y-75328628D01*
X197166666Y-75328628D02*
X196785714Y-75328628D01*
X197738095Y-74900057D02*
X197785714Y-74852438D01*
X197785714Y-74852438D02*
X197880952Y-74804819D01*
X197880952Y-74804819D02*
X198119047Y-74804819D01*
X198119047Y-74804819D02*
X198214285Y-74852438D01*
X198214285Y-74852438D02*
X198261904Y-74900057D01*
X198261904Y-74900057D02*
X198309523Y-74995295D01*
X198309523Y-74995295D02*
X198309523Y-75090533D01*
X198309523Y-75090533D02*
X198261904Y-75233390D01*
X198261904Y-75233390D02*
X197690476Y-75804819D01*
X197690476Y-75804819D02*
X198309523Y-75804819D01*
X198642857Y-74804819D02*
X199309523Y-74804819D01*
X199309523Y-74804819D02*
X198880952Y-75804819D01*
%TO.C,C19*%
X192407142Y-80039580D02*
X192359523Y-80087200D01*
X192359523Y-80087200D02*
X192216666Y-80134819D01*
X192216666Y-80134819D02*
X192121428Y-80134819D01*
X192121428Y-80134819D02*
X191978571Y-80087200D01*
X191978571Y-80087200D02*
X191883333Y-79991961D01*
X191883333Y-79991961D02*
X191835714Y-79896723D01*
X191835714Y-79896723D02*
X191788095Y-79706247D01*
X191788095Y-79706247D02*
X191788095Y-79563390D01*
X191788095Y-79563390D02*
X191835714Y-79372914D01*
X191835714Y-79372914D02*
X191883333Y-79277676D01*
X191883333Y-79277676D02*
X191978571Y-79182438D01*
X191978571Y-79182438D02*
X192121428Y-79134819D01*
X192121428Y-79134819D02*
X192216666Y-79134819D01*
X192216666Y-79134819D02*
X192359523Y-79182438D01*
X192359523Y-79182438D02*
X192407142Y-79230057D01*
X193359523Y-80134819D02*
X192788095Y-80134819D01*
X193073809Y-80134819D02*
X193073809Y-79134819D01*
X193073809Y-79134819D02*
X192978571Y-79277676D01*
X192978571Y-79277676D02*
X192883333Y-79372914D01*
X192883333Y-79372914D02*
X192788095Y-79420533D01*
X193835714Y-80134819D02*
X194026190Y-80134819D01*
X194026190Y-80134819D02*
X194121428Y-80087200D01*
X194121428Y-80087200D02*
X194169047Y-80039580D01*
X194169047Y-80039580D02*
X194264285Y-79896723D01*
X194264285Y-79896723D02*
X194311904Y-79706247D01*
X194311904Y-79706247D02*
X194311904Y-79325295D01*
X194311904Y-79325295D02*
X194264285Y-79230057D01*
X194264285Y-79230057D02*
X194216666Y-79182438D01*
X194216666Y-79182438D02*
X194121428Y-79134819D01*
X194121428Y-79134819D02*
X193930952Y-79134819D01*
X193930952Y-79134819D02*
X193835714Y-79182438D01*
X193835714Y-79182438D02*
X193788095Y-79230057D01*
X193788095Y-79230057D02*
X193740476Y-79325295D01*
X193740476Y-79325295D02*
X193740476Y-79563390D01*
X193740476Y-79563390D02*
X193788095Y-79658628D01*
X193788095Y-79658628D02*
X193835714Y-79706247D01*
X193835714Y-79706247D02*
X193930952Y-79753866D01*
X193930952Y-79753866D02*
X194121428Y-79753866D01*
X194121428Y-79753866D02*
X194216666Y-79706247D01*
X194216666Y-79706247D02*
X194264285Y-79658628D01*
X194264285Y-79658628D02*
X194311904Y-79563390D01*
%TO.C,FB9*%
X180481009Y-108333333D02*
X180481009Y-108666666D01*
X181004819Y-108666666D02*
X180004819Y-108666666D01*
X180004819Y-108666666D02*
X180004819Y-108190476D01*
X180481009Y-107476190D02*
X180528628Y-107333333D01*
X180528628Y-107333333D02*
X180576247Y-107285714D01*
X180576247Y-107285714D02*
X180671485Y-107238095D01*
X180671485Y-107238095D02*
X180814342Y-107238095D01*
X180814342Y-107238095D02*
X180909580Y-107285714D01*
X180909580Y-107285714D02*
X180957200Y-107333333D01*
X180957200Y-107333333D02*
X181004819Y-107428571D01*
X181004819Y-107428571D02*
X181004819Y-107809523D01*
X181004819Y-107809523D02*
X180004819Y-107809523D01*
X180004819Y-107809523D02*
X180004819Y-107476190D01*
X180004819Y-107476190D02*
X180052438Y-107380952D01*
X180052438Y-107380952D02*
X180100057Y-107333333D01*
X180100057Y-107333333D02*
X180195295Y-107285714D01*
X180195295Y-107285714D02*
X180290533Y-107285714D01*
X180290533Y-107285714D02*
X180385771Y-107333333D01*
X180385771Y-107333333D02*
X180433390Y-107380952D01*
X180433390Y-107380952D02*
X180481009Y-107476190D01*
X180481009Y-107476190D02*
X180481009Y-107809523D01*
X181004819Y-106761904D02*
X181004819Y-106571428D01*
X181004819Y-106571428D02*
X180957200Y-106476190D01*
X180957200Y-106476190D02*
X180909580Y-106428571D01*
X180909580Y-106428571D02*
X180766723Y-106333333D01*
X180766723Y-106333333D02*
X180576247Y-106285714D01*
X180576247Y-106285714D02*
X180195295Y-106285714D01*
X180195295Y-106285714D02*
X180100057Y-106333333D01*
X180100057Y-106333333D02*
X180052438Y-106380952D01*
X180052438Y-106380952D02*
X180004819Y-106476190D01*
X180004819Y-106476190D02*
X180004819Y-106666666D01*
X180004819Y-106666666D02*
X180052438Y-106761904D01*
X180052438Y-106761904D02*
X180100057Y-106809523D01*
X180100057Y-106809523D02*
X180195295Y-106857142D01*
X180195295Y-106857142D02*
X180433390Y-106857142D01*
X180433390Y-106857142D02*
X180528628Y-106809523D01*
X180528628Y-106809523D02*
X180576247Y-106761904D01*
X180576247Y-106761904D02*
X180623866Y-106666666D01*
X180623866Y-106666666D02*
X180623866Y-106476190D01*
X180623866Y-106476190D02*
X180576247Y-106380952D01*
X180576247Y-106380952D02*
X180528628Y-106333333D01*
X180528628Y-106333333D02*
X180433390Y-106285714D01*
%TO.C,C15*%
X183679580Y-93442857D02*
X183727200Y-93490476D01*
X183727200Y-93490476D02*
X183774819Y-93633333D01*
X183774819Y-93633333D02*
X183774819Y-93728571D01*
X183774819Y-93728571D02*
X183727200Y-93871428D01*
X183727200Y-93871428D02*
X183631961Y-93966666D01*
X183631961Y-93966666D02*
X183536723Y-94014285D01*
X183536723Y-94014285D02*
X183346247Y-94061904D01*
X183346247Y-94061904D02*
X183203390Y-94061904D01*
X183203390Y-94061904D02*
X183012914Y-94014285D01*
X183012914Y-94014285D02*
X182917676Y-93966666D01*
X182917676Y-93966666D02*
X182822438Y-93871428D01*
X182822438Y-93871428D02*
X182774819Y-93728571D01*
X182774819Y-93728571D02*
X182774819Y-93633333D01*
X182774819Y-93633333D02*
X182822438Y-93490476D01*
X182822438Y-93490476D02*
X182870057Y-93442857D01*
X183774819Y-92490476D02*
X183774819Y-93061904D01*
X183774819Y-92776190D02*
X182774819Y-92776190D01*
X182774819Y-92776190D02*
X182917676Y-92871428D01*
X182917676Y-92871428D02*
X183012914Y-92966666D01*
X183012914Y-92966666D02*
X183060533Y-93061904D01*
X182774819Y-91585714D02*
X182774819Y-92061904D01*
X182774819Y-92061904D02*
X183251009Y-92109523D01*
X183251009Y-92109523D02*
X183203390Y-92061904D01*
X183203390Y-92061904D02*
X183155771Y-91966666D01*
X183155771Y-91966666D02*
X183155771Y-91728571D01*
X183155771Y-91728571D02*
X183203390Y-91633333D01*
X183203390Y-91633333D02*
X183251009Y-91585714D01*
X183251009Y-91585714D02*
X183346247Y-91538095D01*
X183346247Y-91538095D02*
X183584342Y-91538095D01*
X183584342Y-91538095D02*
X183679580Y-91585714D01*
X183679580Y-91585714D02*
X183727200Y-91633333D01*
X183727200Y-91633333D02*
X183774819Y-91728571D01*
X183774819Y-91728571D02*
X183774819Y-91966666D01*
X183774819Y-91966666D02*
X183727200Y-92061904D01*
X183727200Y-92061904D02*
X183679580Y-92109523D01*
%TO.C,J11*%
X151590476Y-73324819D02*
X151590476Y-74039104D01*
X151590476Y-74039104D02*
X151542857Y-74181961D01*
X151542857Y-74181961D02*
X151447619Y-74277200D01*
X151447619Y-74277200D02*
X151304762Y-74324819D01*
X151304762Y-74324819D02*
X151209524Y-74324819D01*
X152590476Y-74324819D02*
X152019048Y-74324819D01*
X152304762Y-74324819D02*
X152304762Y-73324819D01*
X152304762Y-73324819D02*
X152209524Y-73467676D01*
X152209524Y-73467676D02*
X152114286Y-73562914D01*
X152114286Y-73562914D02*
X152019048Y-73610533D01*
X153542857Y-74324819D02*
X152971429Y-74324819D01*
X153257143Y-74324819D02*
X153257143Y-73324819D01*
X153257143Y-73324819D02*
X153161905Y-73467676D01*
X153161905Y-73467676D02*
X153066667Y-73562914D01*
X153066667Y-73562914D02*
X152971429Y-73610533D01*
%TO.C,D6*%
X173624405Y-54054819D02*
X173624405Y-53054819D01*
X173624405Y-53054819D02*
X173862500Y-53054819D01*
X173862500Y-53054819D02*
X174005357Y-53102438D01*
X174005357Y-53102438D02*
X174100595Y-53197676D01*
X174100595Y-53197676D02*
X174148214Y-53292914D01*
X174148214Y-53292914D02*
X174195833Y-53483390D01*
X174195833Y-53483390D02*
X174195833Y-53626247D01*
X174195833Y-53626247D02*
X174148214Y-53816723D01*
X174148214Y-53816723D02*
X174100595Y-53911961D01*
X174100595Y-53911961D02*
X174005357Y-54007200D01*
X174005357Y-54007200D02*
X173862500Y-54054819D01*
X173862500Y-54054819D02*
X173624405Y-54054819D01*
X175052976Y-53054819D02*
X174862500Y-53054819D01*
X174862500Y-53054819D02*
X174767262Y-53102438D01*
X174767262Y-53102438D02*
X174719643Y-53150057D01*
X174719643Y-53150057D02*
X174624405Y-53292914D01*
X174624405Y-53292914D02*
X174576786Y-53483390D01*
X174576786Y-53483390D02*
X174576786Y-53864342D01*
X174576786Y-53864342D02*
X174624405Y-53959580D01*
X174624405Y-53959580D02*
X174672024Y-54007200D01*
X174672024Y-54007200D02*
X174767262Y-54054819D01*
X174767262Y-54054819D02*
X174957738Y-54054819D01*
X174957738Y-54054819D02*
X175052976Y-54007200D01*
X175052976Y-54007200D02*
X175100595Y-53959580D01*
X175100595Y-53959580D02*
X175148214Y-53864342D01*
X175148214Y-53864342D02*
X175148214Y-53626247D01*
X175148214Y-53626247D02*
X175100595Y-53531009D01*
X175100595Y-53531009D02*
X175052976Y-53483390D01*
X175052976Y-53483390D02*
X174957738Y-53435771D01*
X174957738Y-53435771D02*
X174767262Y-53435771D01*
X174767262Y-53435771D02*
X174672024Y-53483390D01*
X174672024Y-53483390D02*
X174624405Y-53531009D01*
X174624405Y-53531009D02*
X174576786Y-53626247D01*
%TO.C,J3*%
X152066666Y-116304819D02*
X152066666Y-117019104D01*
X152066666Y-117019104D02*
X152019047Y-117161961D01*
X152019047Y-117161961D02*
X151923809Y-117257200D01*
X151923809Y-117257200D02*
X151780952Y-117304819D01*
X151780952Y-117304819D02*
X151685714Y-117304819D01*
X152447619Y-116304819D02*
X153066666Y-116304819D01*
X153066666Y-116304819D02*
X152733333Y-116685771D01*
X152733333Y-116685771D02*
X152876190Y-116685771D01*
X152876190Y-116685771D02*
X152971428Y-116733390D01*
X152971428Y-116733390D02*
X153019047Y-116781009D01*
X153019047Y-116781009D02*
X153066666Y-116876247D01*
X153066666Y-116876247D02*
X153066666Y-117114342D01*
X153066666Y-117114342D02*
X153019047Y-117209580D01*
X153019047Y-117209580D02*
X152971428Y-117257200D01*
X152971428Y-117257200D02*
X152876190Y-117304819D01*
X152876190Y-117304819D02*
X152590476Y-117304819D01*
X152590476Y-117304819D02*
X152495238Y-117257200D01*
X152495238Y-117257200D02*
X152447619Y-117209580D01*
%TO.C,J1*%
X152066666Y-46454819D02*
X152066666Y-47169104D01*
X152066666Y-47169104D02*
X152019047Y-47311961D01*
X152019047Y-47311961D02*
X151923809Y-47407200D01*
X151923809Y-47407200D02*
X151780952Y-47454819D01*
X151780952Y-47454819D02*
X151685714Y-47454819D01*
X153066666Y-47454819D02*
X152495238Y-47454819D01*
X152780952Y-47454819D02*
X152780952Y-46454819D01*
X152780952Y-46454819D02*
X152685714Y-46597676D01*
X152685714Y-46597676D02*
X152590476Y-46692914D01*
X152590476Y-46692914D02*
X152495238Y-46740533D01*
%TO.C,R8*%
X180192319Y-62166666D02*
X179716128Y-62499999D01*
X180192319Y-62738094D02*
X179192319Y-62738094D01*
X179192319Y-62738094D02*
X179192319Y-62357142D01*
X179192319Y-62357142D02*
X179239938Y-62261904D01*
X179239938Y-62261904D02*
X179287557Y-62214285D01*
X179287557Y-62214285D02*
X179382795Y-62166666D01*
X179382795Y-62166666D02*
X179525652Y-62166666D01*
X179525652Y-62166666D02*
X179620890Y-62214285D01*
X179620890Y-62214285D02*
X179668509Y-62261904D01*
X179668509Y-62261904D02*
X179716128Y-62357142D01*
X179716128Y-62357142D02*
X179716128Y-62738094D01*
X179620890Y-61595237D02*
X179573271Y-61690475D01*
X179573271Y-61690475D02*
X179525652Y-61738094D01*
X179525652Y-61738094D02*
X179430414Y-61785713D01*
X179430414Y-61785713D02*
X179382795Y-61785713D01*
X179382795Y-61785713D02*
X179287557Y-61738094D01*
X179287557Y-61738094D02*
X179239938Y-61690475D01*
X179239938Y-61690475D02*
X179192319Y-61595237D01*
X179192319Y-61595237D02*
X179192319Y-61404761D01*
X179192319Y-61404761D02*
X179239938Y-61309523D01*
X179239938Y-61309523D02*
X179287557Y-61261904D01*
X179287557Y-61261904D02*
X179382795Y-61214285D01*
X179382795Y-61214285D02*
X179430414Y-61214285D01*
X179430414Y-61214285D02*
X179525652Y-61261904D01*
X179525652Y-61261904D02*
X179573271Y-61309523D01*
X179573271Y-61309523D02*
X179620890Y-61404761D01*
X179620890Y-61404761D02*
X179620890Y-61595237D01*
X179620890Y-61595237D02*
X179668509Y-61690475D01*
X179668509Y-61690475D02*
X179716128Y-61738094D01*
X179716128Y-61738094D02*
X179811366Y-61785713D01*
X179811366Y-61785713D02*
X180001842Y-61785713D01*
X180001842Y-61785713D02*
X180097080Y-61738094D01*
X180097080Y-61738094D02*
X180144700Y-61690475D01*
X180144700Y-61690475D02*
X180192319Y-61595237D01*
X180192319Y-61595237D02*
X180192319Y-61404761D01*
X180192319Y-61404761D02*
X180144700Y-61309523D01*
X180144700Y-61309523D02*
X180097080Y-61261904D01*
X180097080Y-61261904D02*
X180001842Y-61214285D01*
X180001842Y-61214285D02*
X179811366Y-61214285D01*
X179811366Y-61214285D02*
X179716128Y-61261904D01*
X179716128Y-61261904D02*
X179668509Y-61309523D01*
X179668509Y-61309523D02*
X179620890Y-61404761D01*
%TO.C,R7*%
X194104819Y-62166666D02*
X193628628Y-62499999D01*
X194104819Y-62738094D02*
X193104819Y-62738094D01*
X193104819Y-62738094D02*
X193104819Y-62357142D01*
X193104819Y-62357142D02*
X193152438Y-62261904D01*
X193152438Y-62261904D02*
X193200057Y-62214285D01*
X193200057Y-62214285D02*
X193295295Y-62166666D01*
X193295295Y-62166666D02*
X193438152Y-62166666D01*
X193438152Y-62166666D02*
X193533390Y-62214285D01*
X193533390Y-62214285D02*
X193581009Y-62261904D01*
X193581009Y-62261904D02*
X193628628Y-62357142D01*
X193628628Y-62357142D02*
X193628628Y-62738094D01*
X193104819Y-61833332D02*
X193104819Y-61166666D01*
X193104819Y-61166666D02*
X194104819Y-61595237D01*
%TO.C,R6*%
X185104819Y-62166666D02*
X184628628Y-62499999D01*
X185104819Y-62738094D02*
X184104819Y-62738094D01*
X184104819Y-62738094D02*
X184104819Y-62357142D01*
X184104819Y-62357142D02*
X184152438Y-62261904D01*
X184152438Y-62261904D02*
X184200057Y-62214285D01*
X184200057Y-62214285D02*
X184295295Y-62166666D01*
X184295295Y-62166666D02*
X184438152Y-62166666D01*
X184438152Y-62166666D02*
X184533390Y-62214285D01*
X184533390Y-62214285D02*
X184581009Y-62261904D01*
X184581009Y-62261904D02*
X184628628Y-62357142D01*
X184628628Y-62357142D02*
X184628628Y-62738094D01*
X184104819Y-61309523D02*
X184104819Y-61499999D01*
X184104819Y-61499999D02*
X184152438Y-61595237D01*
X184152438Y-61595237D02*
X184200057Y-61642856D01*
X184200057Y-61642856D02*
X184342914Y-61738094D01*
X184342914Y-61738094D02*
X184533390Y-61785713D01*
X184533390Y-61785713D02*
X184914342Y-61785713D01*
X184914342Y-61785713D02*
X185009580Y-61738094D01*
X185009580Y-61738094D02*
X185057200Y-61690475D01*
X185057200Y-61690475D02*
X185104819Y-61595237D01*
X185104819Y-61595237D02*
X185104819Y-61404761D01*
X185104819Y-61404761D02*
X185057200Y-61309523D01*
X185057200Y-61309523D02*
X185009580Y-61261904D01*
X185009580Y-61261904D02*
X184914342Y-61214285D01*
X184914342Y-61214285D02*
X184676247Y-61214285D01*
X184676247Y-61214285D02*
X184581009Y-61261904D01*
X184581009Y-61261904D02*
X184533390Y-61309523D01*
X184533390Y-61309523D02*
X184485771Y-61404761D01*
X184485771Y-61404761D02*
X184485771Y-61595237D01*
X184485771Y-61595237D02*
X184533390Y-61690475D01*
X184533390Y-61690475D02*
X184581009Y-61738094D01*
X184581009Y-61738094D02*
X184676247Y-61785713D01*
%TO.C,D3*%
X185624405Y-54054819D02*
X185624405Y-53054819D01*
X185624405Y-53054819D02*
X185862500Y-53054819D01*
X185862500Y-53054819D02*
X186005357Y-53102438D01*
X186005357Y-53102438D02*
X186100595Y-53197676D01*
X186100595Y-53197676D02*
X186148214Y-53292914D01*
X186148214Y-53292914D02*
X186195833Y-53483390D01*
X186195833Y-53483390D02*
X186195833Y-53626247D01*
X186195833Y-53626247D02*
X186148214Y-53816723D01*
X186148214Y-53816723D02*
X186100595Y-53911961D01*
X186100595Y-53911961D02*
X186005357Y-54007200D01*
X186005357Y-54007200D02*
X185862500Y-54054819D01*
X185862500Y-54054819D02*
X185624405Y-54054819D01*
X186529167Y-53054819D02*
X187148214Y-53054819D01*
X187148214Y-53054819D02*
X186814881Y-53435771D01*
X186814881Y-53435771D02*
X186957738Y-53435771D01*
X186957738Y-53435771D02*
X187052976Y-53483390D01*
X187052976Y-53483390D02*
X187100595Y-53531009D01*
X187100595Y-53531009D02*
X187148214Y-53626247D01*
X187148214Y-53626247D02*
X187148214Y-53864342D01*
X187148214Y-53864342D02*
X187100595Y-53959580D01*
X187100595Y-53959580D02*
X187052976Y-54007200D01*
X187052976Y-54007200D02*
X186957738Y-54054819D01*
X186957738Y-54054819D02*
X186672024Y-54054819D01*
X186672024Y-54054819D02*
X186576786Y-54007200D01*
X186576786Y-54007200D02*
X186529167Y-53959580D01*
%TO.C,D5*%
X157011905Y-58704819D02*
X157011905Y-57704819D01*
X157011905Y-57704819D02*
X157250000Y-57704819D01*
X157250000Y-57704819D02*
X157392857Y-57752438D01*
X157392857Y-57752438D02*
X157488095Y-57847676D01*
X157488095Y-57847676D02*
X157535714Y-57942914D01*
X157535714Y-57942914D02*
X157583333Y-58133390D01*
X157583333Y-58133390D02*
X157583333Y-58276247D01*
X157583333Y-58276247D02*
X157535714Y-58466723D01*
X157535714Y-58466723D02*
X157488095Y-58561961D01*
X157488095Y-58561961D02*
X157392857Y-58657200D01*
X157392857Y-58657200D02*
X157250000Y-58704819D01*
X157250000Y-58704819D02*
X157011905Y-58704819D01*
X158488095Y-57704819D02*
X158011905Y-57704819D01*
X158011905Y-57704819D02*
X157964286Y-58181009D01*
X157964286Y-58181009D02*
X158011905Y-58133390D01*
X158011905Y-58133390D02*
X158107143Y-58085771D01*
X158107143Y-58085771D02*
X158345238Y-58085771D01*
X158345238Y-58085771D02*
X158440476Y-58133390D01*
X158440476Y-58133390D02*
X158488095Y-58181009D01*
X158488095Y-58181009D02*
X158535714Y-58276247D01*
X158535714Y-58276247D02*
X158535714Y-58514342D01*
X158535714Y-58514342D02*
X158488095Y-58609580D01*
X158488095Y-58609580D02*
X158440476Y-58657200D01*
X158440476Y-58657200D02*
X158345238Y-58704819D01*
X158345238Y-58704819D02*
X158107143Y-58704819D01*
X158107143Y-58704819D02*
X158011905Y-58657200D01*
X158011905Y-58657200D02*
X157964286Y-58609580D01*
%TO.C,U2*%
X181238095Y-66554819D02*
X181238095Y-67364342D01*
X181238095Y-67364342D02*
X181285714Y-67459580D01*
X181285714Y-67459580D02*
X181333333Y-67507200D01*
X181333333Y-67507200D02*
X181428571Y-67554819D01*
X181428571Y-67554819D02*
X181619047Y-67554819D01*
X181619047Y-67554819D02*
X181714285Y-67507200D01*
X181714285Y-67507200D02*
X181761904Y-67459580D01*
X181761904Y-67459580D02*
X181809523Y-67364342D01*
X181809523Y-67364342D02*
X181809523Y-66554819D01*
X182238095Y-66650057D02*
X182285714Y-66602438D01*
X182285714Y-66602438D02*
X182380952Y-66554819D01*
X182380952Y-66554819D02*
X182619047Y-66554819D01*
X182619047Y-66554819D02*
X182714285Y-66602438D01*
X182714285Y-66602438D02*
X182761904Y-66650057D01*
X182761904Y-66650057D02*
X182809523Y-66745295D01*
X182809523Y-66745295D02*
X182809523Y-66840533D01*
X182809523Y-66840533D02*
X182761904Y-66983390D01*
X182761904Y-66983390D02*
X182190476Y-67554819D01*
X182190476Y-67554819D02*
X182809523Y-67554819D01*
%TO.C,D10*%
X191648214Y-76804819D02*
X191648214Y-75804819D01*
X191648214Y-75804819D02*
X191886309Y-75804819D01*
X191886309Y-75804819D02*
X192029166Y-75852438D01*
X192029166Y-75852438D02*
X192124404Y-75947676D01*
X192124404Y-75947676D02*
X192172023Y-76042914D01*
X192172023Y-76042914D02*
X192219642Y-76233390D01*
X192219642Y-76233390D02*
X192219642Y-76376247D01*
X192219642Y-76376247D02*
X192172023Y-76566723D01*
X192172023Y-76566723D02*
X192124404Y-76661961D01*
X192124404Y-76661961D02*
X192029166Y-76757200D01*
X192029166Y-76757200D02*
X191886309Y-76804819D01*
X191886309Y-76804819D02*
X191648214Y-76804819D01*
X193172023Y-76804819D02*
X192600595Y-76804819D01*
X192886309Y-76804819D02*
X192886309Y-75804819D01*
X192886309Y-75804819D02*
X192791071Y-75947676D01*
X192791071Y-75947676D02*
X192695833Y-76042914D01*
X192695833Y-76042914D02*
X192600595Y-76090533D01*
X193791071Y-75804819D02*
X193886309Y-75804819D01*
X193886309Y-75804819D02*
X193981547Y-75852438D01*
X193981547Y-75852438D02*
X194029166Y-75900057D01*
X194029166Y-75900057D02*
X194076785Y-75995295D01*
X194076785Y-75995295D02*
X194124404Y-76185771D01*
X194124404Y-76185771D02*
X194124404Y-76423866D01*
X194124404Y-76423866D02*
X194076785Y-76614342D01*
X194076785Y-76614342D02*
X194029166Y-76709580D01*
X194029166Y-76709580D02*
X193981547Y-76757200D01*
X193981547Y-76757200D02*
X193886309Y-76804819D01*
X193886309Y-76804819D02*
X193791071Y-76804819D01*
X193791071Y-76804819D02*
X193695833Y-76757200D01*
X193695833Y-76757200D02*
X193648214Y-76709580D01*
X193648214Y-76709580D02*
X193600595Y-76614342D01*
X193600595Y-76614342D02*
X193552976Y-76423866D01*
X193552976Y-76423866D02*
X193552976Y-76185771D01*
X193552976Y-76185771D02*
X193600595Y-75995295D01*
X193600595Y-75995295D02*
X193648214Y-75900057D01*
X193648214Y-75900057D02*
X193695833Y-75852438D01*
X193695833Y-75852438D02*
X193791071Y-75804819D01*
%TO.C,C17*%
X162357142Y-96679580D02*
X162309523Y-96727200D01*
X162309523Y-96727200D02*
X162166666Y-96774819D01*
X162166666Y-96774819D02*
X162071428Y-96774819D01*
X162071428Y-96774819D02*
X161928571Y-96727200D01*
X161928571Y-96727200D02*
X161833333Y-96631961D01*
X161833333Y-96631961D02*
X161785714Y-96536723D01*
X161785714Y-96536723D02*
X161738095Y-96346247D01*
X161738095Y-96346247D02*
X161738095Y-96203390D01*
X161738095Y-96203390D02*
X161785714Y-96012914D01*
X161785714Y-96012914D02*
X161833333Y-95917676D01*
X161833333Y-95917676D02*
X161928571Y-95822438D01*
X161928571Y-95822438D02*
X162071428Y-95774819D01*
X162071428Y-95774819D02*
X162166666Y-95774819D01*
X162166666Y-95774819D02*
X162309523Y-95822438D01*
X162309523Y-95822438D02*
X162357142Y-95870057D01*
X163309523Y-96774819D02*
X162738095Y-96774819D01*
X163023809Y-96774819D02*
X163023809Y-95774819D01*
X163023809Y-95774819D02*
X162928571Y-95917676D01*
X162928571Y-95917676D02*
X162833333Y-96012914D01*
X162833333Y-96012914D02*
X162738095Y-96060533D01*
X163642857Y-95774819D02*
X164309523Y-95774819D01*
X164309523Y-95774819D02*
X163880952Y-96774819D01*
%TO.C,FB8*%
X180431009Y-103833333D02*
X180431009Y-104166666D01*
X180954819Y-104166666D02*
X179954819Y-104166666D01*
X179954819Y-104166666D02*
X179954819Y-103690476D01*
X180431009Y-102976190D02*
X180478628Y-102833333D01*
X180478628Y-102833333D02*
X180526247Y-102785714D01*
X180526247Y-102785714D02*
X180621485Y-102738095D01*
X180621485Y-102738095D02*
X180764342Y-102738095D01*
X180764342Y-102738095D02*
X180859580Y-102785714D01*
X180859580Y-102785714D02*
X180907200Y-102833333D01*
X180907200Y-102833333D02*
X180954819Y-102928571D01*
X180954819Y-102928571D02*
X180954819Y-103309523D01*
X180954819Y-103309523D02*
X179954819Y-103309523D01*
X179954819Y-103309523D02*
X179954819Y-102976190D01*
X179954819Y-102976190D02*
X180002438Y-102880952D01*
X180002438Y-102880952D02*
X180050057Y-102833333D01*
X180050057Y-102833333D02*
X180145295Y-102785714D01*
X180145295Y-102785714D02*
X180240533Y-102785714D01*
X180240533Y-102785714D02*
X180335771Y-102833333D01*
X180335771Y-102833333D02*
X180383390Y-102880952D01*
X180383390Y-102880952D02*
X180431009Y-102976190D01*
X180431009Y-102976190D02*
X180431009Y-103309523D01*
X180383390Y-102166666D02*
X180335771Y-102261904D01*
X180335771Y-102261904D02*
X180288152Y-102309523D01*
X180288152Y-102309523D02*
X180192914Y-102357142D01*
X180192914Y-102357142D02*
X180145295Y-102357142D01*
X180145295Y-102357142D02*
X180050057Y-102309523D01*
X180050057Y-102309523D02*
X180002438Y-102261904D01*
X180002438Y-102261904D02*
X179954819Y-102166666D01*
X179954819Y-102166666D02*
X179954819Y-101976190D01*
X179954819Y-101976190D02*
X180002438Y-101880952D01*
X180002438Y-101880952D02*
X180050057Y-101833333D01*
X180050057Y-101833333D02*
X180145295Y-101785714D01*
X180145295Y-101785714D02*
X180192914Y-101785714D01*
X180192914Y-101785714D02*
X180288152Y-101833333D01*
X180288152Y-101833333D02*
X180335771Y-101880952D01*
X180335771Y-101880952D02*
X180383390Y-101976190D01*
X180383390Y-101976190D02*
X180383390Y-102166666D01*
X180383390Y-102166666D02*
X180431009Y-102261904D01*
X180431009Y-102261904D02*
X180478628Y-102309523D01*
X180478628Y-102309523D02*
X180573866Y-102357142D01*
X180573866Y-102357142D02*
X180764342Y-102357142D01*
X180764342Y-102357142D02*
X180859580Y-102309523D01*
X180859580Y-102309523D02*
X180907200Y-102261904D01*
X180907200Y-102261904D02*
X180954819Y-102166666D01*
X180954819Y-102166666D02*
X180954819Y-101976190D01*
X180954819Y-101976190D02*
X180907200Y-101880952D01*
X180907200Y-101880952D02*
X180859580Y-101833333D01*
X180859580Y-101833333D02*
X180764342Y-101785714D01*
X180764342Y-101785714D02*
X180573866Y-101785714D01*
X180573866Y-101785714D02*
X180478628Y-101833333D01*
X180478628Y-101833333D02*
X180431009Y-101880952D01*
X180431009Y-101880952D02*
X180383390Y-101976190D01*
%TO.C,R22*%
X155954819Y-97642857D02*
X155478628Y-97976190D01*
X155954819Y-98214285D02*
X154954819Y-98214285D01*
X154954819Y-98214285D02*
X154954819Y-97833333D01*
X154954819Y-97833333D02*
X155002438Y-97738095D01*
X155002438Y-97738095D02*
X155050057Y-97690476D01*
X155050057Y-97690476D02*
X155145295Y-97642857D01*
X155145295Y-97642857D02*
X155288152Y-97642857D01*
X155288152Y-97642857D02*
X155383390Y-97690476D01*
X155383390Y-97690476D02*
X155431009Y-97738095D01*
X155431009Y-97738095D02*
X155478628Y-97833333D01*
X155478628Y-97833333D02*
X155478628Y-98214285D01*
X155050057Y-97261904D02*
X155002438Y-97214285D01*
X155002438Y-97214285D02*
X154954819Y-97119047D01*
X154954819Y-97119047D02*
X154954819Y-96880952D01*
X154954819Y-96880952D02*
X155002438Y-96785714D01*
X155002438Y-96785714D02*
X155050057Y-96738095D01*
X155050057Y-96738095D02*
X155145295Y-96690476D01*
X155145295Y-96690476D02*
X155240533Y-96690476D01*
X155240533Y-96690476D02*
X155383390Y-96738095D01*
X155383390Y-96738095D02*
X155954819Y-97309523D01*
X155954819Y-97309523D02*
X155954819Y-96690476D01*
X155050057Y-96309523D02*
X155002438Y-96261904D01*
X155002438Y-96261904D02*
X154954819Y-96166666D01*
X154954819Y-96166666D02*
X154954819Y-95928571D01*
X154954819Y-95928571D02*
X155002438Y-95833333D01*
X155002438Y-95833333D02*
X155050057Y-95785714D01*
X155050057Y-95785714D02*
X155145295Y-95738095D01*
X155145295Y-95738095D02*
X155240533Y-95738095D01*
X155240533Y-95738095D02*
X155383390Y-95785714D01*
X155383390Y-95785714D02*
X155954819Y-96357142D01*
X155954819Y-96357142D02*
X155954819Y-95738095D01*
%TO.C,C5*%
X154679580Y-112166666D02*
X154727200Y-112214285D01*
X154727200Y-112214285D02*
X154774819Y-112357142D01*
X154774819Y-112357142D02*
X154774819Y-112452380D01*
X154774819Y-112452380D02*
X154727200Y-112595237D01*
X154727200Y-112595237D02*
X154631961Y-112690475D01*
X154631961Y-112690475D02*
X154536723Y-112738094D01*
X154536723Y-112738094D02*
X154346247Y-112785713D01*
X154346247Y-112785713D02*
X154203390Y-112785713D01*
X154203390Y-112785713D02*
X154012914Y-112738094D01*
X154012914Y-112738094D02*
X153917676Y-112690475D01*
X153917676Y-112690475D02*
X153822438Y-112595237D01*
X153822438Y-112595237D02*
X153774819Y-112452380D01*
X153774819Y-112452380D02*
X153774819Y-112357142D01*
X153774819Y-112357142D02*
X153822438Y-112214285D01*
X153822438Y-112214285D02*
X153870057Y-112166666D01*
X153774819Y-111261904D02*
X153774819Y-111738094D01*
X153774819Y-111738094D02*
X154251009Y-111785713D01*
X154251009Y-111785713D02*
X154203390Y-111738094D01*
X154203390Y-111738094D02*
X154155771Y-111642856D01*
X154155771Y-111642856D02*
X154155771Y-111404761D01*
X154155771Y-111404761D02*
X154203390Y-111309523D01*
X154203390Y-111309523D02*
X154251009Y-111261904D01*
X154251009Y-111261904D02*
X154346247Y-111214285D01*
X154346247Y-111214285D02*
X154584342Y-111214285D01*
X154584342Y-111214285D02*
X154679580Y-111261904D01*
X154679580Y-111261904D02*
X154727200Y-111309523D01*
X154727200Y-111309523D02*
X154774819Y-111404761D01*
X154774819Y-111404761D02*
X154774819Y-111642856D01*
X154774819Y-111642856D02*
X154727200Y-111738094D01*
X154727200Y-111738094D02*
X154679580Y-111785713D01*
%TO.C,FB7*%
X175166666Y-105431009D02*
X174833333Y-105431009D01*
X174833333Y-105954819D02*
X174833333Y-104954819D01*
X174833333Y-104954819D02*
X175309523Y-104954819D01*
X176023809Y-105431009D02*
X176166666Y-105478628D01*
X176166666Y-105478628D02*
X176214285Y-105526247D01*
X176214285Y-105526247D02*
X176261904Y-105621485D01*
X176261904Y-105621485D02*
X176261904Y-105764342D01*
X176261904Y-105764342D02*
X176214285Y-105859580D01*
X176214285Y-105859580D02*
X176166666Y-105907200D01*
X176166666Y-105907200D02*
X176071428Y-105954819D01*
X176071428Y-105954819D02*
X175690476Y-105954819D01*
X175690476Y-105954819D02*
X175690476Y-104954819D01*
X175690476Y-104954819D02*
X176023809Y-104954819D01*
X176023809Y-104954819D02*
X176119047Y-105002438D01*
X176119047Y-105002438D02*
X176166666Y-105050057D01*
X176166666Y-105050057D02*
X176214285Y-105145295D01*
X176214285Y-105145295D02*
X176214285Y-105240533D01*
X176214285Y-105240533D02*
X176166666Y-105335771D01*
X176166666Y-105335771D02*
X176119047Y-105383390D01*
X176119047Y-105383390D02*
X176023809Y-105431009D01*
X176023809Y-105431009D02*
X175690476Y-105431009D01*
X176595238Y-104954819D02*
X177261904Y-104954819D01*
X177261904Y-104954819D02*
X176833333Y-105954819D01*
%TO.C,J14*%
X202390476Y-83064819D02*
X202390476Y-83779104D01*
X202390476Y-83779104D02*
X202342857Y-83921961D01*
X202342857Y-83921961D02*
X202247619Y-84017200D01*
X202247619Y-84017200D02*
X202104762Y-84064819D01*
X202104762Y-84064819D02*
X202009524Y-84064819D01*
X203390476Y-84064819D02*
X202819048Y-84064819D01*
X203104762Y-84064819D02*
X203104762Y-83064819D01*
X203104762Y-83064819D02*
X203009524Y-83207676D01*
X203009524Y-83207676D02*
X202914286Y-83302914D01*
X202914286Y-83302914D02*
X202819048Y-83350533D01*
X204247619Y-83398152D02*
X204247619Y-84064819D01*
X204009524Y-83017200D02*
X203771429Y-83731485D01*
X203771429Y-83731485D02*
X204390476Y-83731485D01*
%TO.C,C9*%
X158659580Y-119191666D02*
X158707200Y-119239285D01*
X158707200Y-119239285D02*
X158754819Y-119382142D01*
X158754819Y-119382142D02*
X158754819Y-119477380D01*
X158754819Y-119477380D02*
X158707200Y-119620237D01*
X158707200Y-119620237D02*
X158611961Y-119715475D01*
X158611961Y-119715475D02*
X158516723Y-119763094D01*
X158516723Y-119763094D02*
X158326247Y-119810713D01*
X158326247Y-119810713D02*
X158183390Y-119810713D01*
X158183390Y-119810713D02*
X157992914Y-119763094D01*
X157992914Y-119763094D02*
X157897676Y-119715475D01*
X157897676Y-119715475D02*
X157802438Y-119620237D01*
X157802438Y-119620237D02*
X157754819Y-119477380D01*
X157754819Y-119477380D02*
X157754819Y-119382142D01*
X157754819Y-119382142D02*
X157802438Y-119239285D01*
X157802438Y-119239285D02*
X157850057Y-119191666D01*
X158754819Y-118715475D02*
X158754819Y-118524999D01*
X158754819Y-118524999D02*
X158707200Y-118429761D01*
X158707200Y-118429761D02*
X158659580Y-118382142D01*
X158659580Y-118382142D02*
X158516723Y-118286904D01*
X158516723Y-118286904D02*
X158326247Y-118239285D01*
X158326247Y-118239285D02*
X157945295Y-118239285D01*
X157945295Y-118239285D02*
X157850057Y-118286904D01*
X157850057Y-118286904D02*
X157802438Y-118334523D01*
X157802438Y-118334523D02*
X157754819Y-118429761D01*
X157754819Y-118429761D02*
X157754819Y-118620237D01*
X157754819Y-118620237D02*
X157802438Y-118715475D01*
X157802438Y-118715475D02*
X157850057Y-118763094D01*
X157850057Y-118763094D02*
X157945295Y-118810713D01*
X157945295Y-118810713D02*
X158183390Y-118810713D01*
X158183390Y-118810713D02*
X158278628Y-118763094D01*
X158278628Y-118763094D02*
X158326247Y-118715475D01*
X158326247Y-118715475D02*
X158373866Y-118620237D01*
X158373866Y-118620237D02*
X158373866Y-118429761D01*
X158373866Y-118429761D02*
X158326247Y-118334523D01*
X158326247Y-118334523D02*
X158278628Y-118286904D01*
X158278628Y-118286904D02*
X158183390Y-118239285D01*
%TO.C,C13*%
X188907142Y-82479580D02*
X188859523Y-82527200D01*
X188859523Y-82527200D02*
X188716666Y-82574819D01*
X188716666Y-82574819D02*
X188621428Y-82574819D01*
X188621428Y-82574819D02*
X188478571Y-82527200D01*
X188478571Y-82527200D02*
X188383333Y-82431961D01*
X188383333Y-82431961D02*
X188335714Y-82336723D01*
X188335714Y-82336723D02*
X188288095Y-82146247D01*
X188288095Y-82146247D02*
X188288095Y-82003390D01*
X188288095Y-82003390D02*
X188335714Y-81812914D01*
X188335714Y-81812914D02*
X188383333Y-81717676D01*
X188383333Y-81717676D02*
X188478571Y-81622438D01*
X188478571Y-81622438D02*
X188621428Y-81574819D01*
X188621428Y-81574819D02*
X188716666Y-81574819D01*
X188716666Y-81574819D02*
X188859523Y-81622438D01*
X188859523Y-81622438D02*
X188907142Y-81670057D01*
X189859523Y-82574819D02*
X189288095Y-82574819D01*
X189573809Y-82574819D02*
X189573809Y-81574819D01*
X189573809Y-81574819D02*
X189478571Y-81717676D01*
X189478571Y-81717676D02*
X189383333Y-81812914D01*
X189383333Y-81812914D02*
X189288095Y-81860533D01*
X190192857Y-81574819D02*
X190811904Y-81574819D01*
X190811904Y-81574819D02*
X190478571Y-81955771D01*
X190478571Y-81955771D02*
X190621428Y-81955771D01*
X190621428Y-81955771D02*
X190716666Y-82003390D01*
X190716666Y-82003390D02*
X190764285Y-82051009D01*
X190764285Y-82051009D02*
X190811904Y-82146247D01*
X190811904Y-82146247D02*
X190811904Y-82384342D01*
X190811904Y-82384342D02*
X190764285Y-82479580D01*
X190764285Y-82479580D02*
X190716666Y-82527200D01*
X190716666Y-82527200D02*
X190621428Y-82574819D01*
X190621428Y-82574819D02*
X190335714Y-82574819D01*
X190335714Y-82574819D02*
X190240476Y-82527200D01*
X190240476Y-82527200D02*
X190192857Y-82479580D01*
%TO.C,D9*%
X192624405Y-100304819D02*
X192624405Y-99304819D01*
X192624405Y-99304819D02*
X192862500Y-99304819D01*
X192862500Y-99304819D02*
X193005357Y-99352438D01*
X193005357Y-99352438D02*
X193100595Y-99447676D01*
X193100595Y-99447676D02*
X193148214Y-99542914D01*
X193148214Y-99542914D02*
X193195833Y-99733390D01*
X193195833Y-99733390D02*
X193195833Y-99876247D01*
X193195833Y-99876247D02*
X193148214Y-100066723D01*
X193148214Y-100066723D02*
X193100595Y-100161961D01*
X193100595Y-100161961D02*
X193005357Y-100257200D01*
X193005357Y-100257200D02*
X192862500Y-100304819D01*
X192862500Y-100304819D02*
X192624405Y-100304819D01*
X193672024Y-100304819D02*
X193862500Y-100304819D01*
X193862500Y-100304819D02*
X193957738Y-100257200D01*
X193957738Y-100257200D02*
X194005357Y-100209580D01*
X194005357Y-100209580D02*
X194100595Y-100066723D01*
X194100595Y-100066723D02*
X194148214Y-99876247D01*
X194148214Y-99876247D02*
X194148214Y-99495295D01*
X194148214Y-99495295D02*
X194100595Y-99400057D01*
X194100595Y-99400057D02*
X194052976Y-99352438D01*
X194052976Y-99352438D02*
X193957738Y-99304819D01*
X193957738Y-99304819D02*
X193767262Y-99304819D01*
X193767262Y-99304819D02*
X193672024Y-99352438D01*
X193672024Y-99352438D02*
X193624405Y-99400057D01*
X193624405Y-99400057D02*
X193576786Y-99495295D01*
X193576786Y-99495295D02*
X193576786Y-99733390D01*
X193576786Y-99733390D02*
X193624405Y-99828628D01*
X193624405Y-99828628D02*
X193672024Y-99876247D01*
X193672024Y-99876247D02*
X193767262Y-99923866D01*
X193767262Y-99923866D02*
X193957738Y-99923866D01*
X193957738Y-99923866D02*
X194052976Y-99876247D01*
X194052976Y-99876247D02*
X194100595Y-99828628D01*
X194100595Y-99828628D02*
X194148214Y-99733390D01*
%TO.C,J9*%
X184824819Y-75833333D02*
X185539104Y-75833333D01*
X185539104Y-75833333D02*
X185681961Y-75880952D01*
X185681961Y-75880952D02*
X185777200Y-75976190D01*
X185777200Y-75976190D02*
X185824819Y-76119047D01*
X185824819Y-76119047D02*
X185824819Y-76214285D01*
X185824819Y-75309523D02*
X185824819Y-75119047D01*
X185824819Y-75119047D02*
X185777200Y-75023809D01*
X185777200Y-75023809D02*
X185729580Y-74976190D01*
X185729580Y-74976190D02*
X185586723Y-74880952D01*
X185586723Y-74880952D02*
X185396247Y-74833333D01*
X185396247Y-74833333D02*
X185015295Y-74833333D01*
X185015295Y-74833333D02*
X184920057Y-74880952D01*
X184920057Y-74880952D02*
X184872438Y-74928571D01*
X184872438Y-74928571D02*
X184824819Y-75023809D01*
X184824819Y-75023809D02*
X184824819Y-75214285D01*
X184824819Y-75214285D02*
X184872438Y-75309523D01*
X184872438Y-75309523D02*
X184920057Y-75357142D01*
X184920057Y-75357142D02*
X185015295Y-75404761D01*
X185015295Y-75404761D02*
X185253390Y-75404761D01*
X185253390Y-75404761D02*
X185348628Y-75357142D01*
X185348628Y-75357142D02*
X185396247Y-75309523D01*
X185396247Y-75309523D02*
X185443866Y-75214285D01*
X185443866Y-75214285D02*
X185443866Y-75023809D01*
X185443866Y-75023809D02*
X185396247Y-74928571D01*
X185396247Y-74928571D02*
X185348628Y-74880952D01*
X185348628Y-74880952D02*
X185253390Y-74833333D01*
%TO.C,R13*%
X178857142Y-65704819D02*
X178523809Y-65228628D01*
X178285714Y-65704819D02*
X178285714Y-64704819D01*
X178285714Y-64704819D02*
X178666666Y-64704819D01*
X178666666Y-64704819D02*
X178761904Y-64752438D01*
X178761904Y-64752438D02*
X178809523Y-64800057D01*
X178809523Y-64800057D02*
X178857142Y-64895295D01*
X178857142Y-64895295D02*
X178857142Y-65038152D01*
X178857142Y-65038152D02*
X178809523Y-65133390D01*
X178809523Y-65133390D02*
X178761904Y-65181009D01*
X178761904Y-65181009D02*
X178666666Y-65228628D01*
X178666666Y-65228628D02*
X178285714Y-65228628D01*
X179809523Y-65704819D02*
X179238095Y-65704819D01*
X179523809Y-65704819D02*
X179523809Y-64704819D01*
X179523809Y-64704819D02*
X179428571Y-64847676D01*
X179428571Y-64847676D02*
X179333333Y-64942914D01*
X179333333Y-64942914D02*
X179238095Y-64990533D01*
X180142857Y-64704819D02*
X180761904Y-64704819D01*
X180761904Y-64704819D02*
X180428571Y-65085771D01*
X180428571Y-65085771D02*
X180571428Y-65085771D01*
X180571428Y-65085771D02*
X180666666Y-65133390D01*
X180666666Y-65133390D02*
X180714285Y-65181009D01*
X180714285Y-65181009D02*
X180761904Y-65276247D01*
X180761904Y-65276247D02*
X180761904Y-65514342D01*
X180761904Y-65514342D02*
X180714285Y-65609580D01*
X180714285Y-65609580D02*
X180666666Y-65657200D01*
X180666666Y-65657200D02*
X180571428Y-65704819D01*
X180571428Y-65704819D02*
X180285714Y-65704819D01*
X180285714Y-65704819D02*
X180190476Y-65657200D01*
X180190476Y-65657200D02*
X180142857Y-65609580D01*
%TO.C,J7*%
X191014819Y-51133333D02*
X191729104Y-51133333D01*
X191729104Y-51133333D02*
X191871961Y-51180952D01*
X191871961Y-51180952D02*
X191967200Y-51276190D01*
X191967200Y-51276190D02*
X192014819Y-51419047D01*
X192014819Y-51419047D02*
X192014819Y-51514285D01*
X191014819Y-50752380D02*
X191014819Y-50085714D01*
X191014819Y-50085714D02*
X192014819Y-50514285D01*
%TO.C,C3*%
X170833333Y-63679580D02*
X170785714Y-63727200D01*
X170785714Y-63727200D02*
X170642857Y-63774819D01*
X170642857Y-63774819D02*
X170547619Y-63774819D01*
X170547619Y-63774819D02*
X170404762Y-63727200D01*
X170404762Y-63727200D02*
X170309524Y-63631961D01*
X170309524Y-63631961D02*
X170261905Y-63536723D01*
X170261905Y-63536723D02*
X170214286Y-63346247D01*
X170214286Y-63346247D02*
X170214286Y-63203390D01*
X170214286Y-63203390D02*
X170261905Y-63012914D01*
X170261905Y-63012914D02*
X170309524Y-62917676D01*
X170309524Y-62917676D02*
X170404762Y-62822438D01*
X170404762Y-62822438D02*
X170547619Y-62774819D01*
X170547619Y-62774819D02*
X170642857Y-62774819D01*
X170642857Y-62774819D02*
X170785714Y-62822438D01*
X170785714Y-62822438D02*
X170833333Y-62870057D01*
X171166667Y-62774819D02*
X171785714Y-62774819D01*
X171785714Y-62774819D02*
X171452381Y-63155771D01*
X171452381Y-63155771D02*
X171595238Y-63155771D01*
X171595238Y-63155771D02*
X171690476Y-63203390D01*
X171690476Y-63203390D02*
X171738095Y-63251009D01*
X171738095Y-63251009D02*
X171785714Y-63346247D01*
X171785714Y-63346247D02*
X171785714Y-63584342D01*
X171785714Y-63584342D02*
X171738095Y-63679580D01*
X171738095Y-63679580D02*
X171690476Y-63727200D01*
X171690476Y-63727200D02*
X171595238Y-63774819D01*
X171595238Y-63774819D02*
X171309524Y-63774819D01*
X171309524Y-63774819D02*
X171214286Y-63727200D01*
X171214286Y-63727200D02*
X171166667Y-63679580D01*
%TO.C,R2*%
X175833333Y-81904819D02*
X175500000Y-81428628D01*
X175261905Y-81904819D02*
X175261905Y-80904819D01*
X175261905Y-80904819D02*
X175642857Y-80904819D01*
X175642857Y-80904819D02*
X175738095Y-80952438D01*
X175738095Y-80952438D02*
X175785714Y-81000057D01*
X175785714Y-81000057D02*
X175833333Y-81095295D01*
X175833333Y-81095295D02*
X175833333Y-81238152D01*
X175833333Y-81238152D02*
X175785714Y-81333390D01*
X175785714Y-81333390D02*
X175738095Y-81381009D01*
X175738095Y-81381009D02*
X175642857Y-81428628D01*
X175642857Y-81428628D02*
X175261905Y-81428628D01*
X176214286Y-81000057D02*
X176261905Y-80952438D01*
X176261905Y-80952438D02*
X176357143Y-80904819D01*
X176357143Y-80904819D02*
X176595238Y-80904819D01*
X176595238Y-80904819D02*
X176690476Y-80952438D01*
X176690476Y-80952438D02*
X176738095Y-81000057D01*
X176738095Y-81000057D02*
X176785714Y-81095295D01*
X176785714Y-81095295D02*
X176785714Y-81190533D01*
X176785714Y-81190533D02*
X176738095Y-81333390D01*
X176738095Y-81333390D02*
X176166667Y-81904819D01*
X176166667Y-81904819D02*
X176785714Y-81904819D01*
%TO.C,FB1*%
X184981009Y-114008333D02*
X184981009Y-114341666D01*
X185504819Y-114341666D02*
X184504819Y-114341666D01*
X184504819Y-114341666D02*
X184504819Y-113865476D01*
X184981009Y-113151190D02*
X185028628Y-113008333D01*
X185028628Y-113008333D02*
X185076247Y-112960714D01*
X185076247Y-112960714D02*
X185171485Y-112913095D01*
X185171485Y-112913095D02*
X185314342Y-112913095D01*
X185314342Y-112913095D02*
X185409580Y-112960714D01*
X185409580Y-112960714D02*
X185457200Y-113008333D01*
X185457200Y-113008333D02*
X185504819Y-113103571D01*
X185504819Y-113103571D02*
X185504819Y-113484523D01*
X185504819Y-113484523D02*
X184504819Y-113484523D01*
X184504819Y-113484523D02*
X184504819Y-113151190D01*
X184504819Y-113151190D02*
X184552438Y-113055952D01*
X184552438Y-113055952D02*
X184600057Y-113008333D01*
X184600057Y-113008333D02*
X184695295Y-112960714D01*
X184695295Y-112960714D02*
X184790533Y-112960714D01*
X184790533Y-112960714D02*
X184885771Y-113008333D01*
X184885771Y-113008333D02*
X184933390Y-113055952D01*
X184933390Y-113055952D02*
X184981009Y-113151190D01*
X184981009Y-113151190D02*
X184981009Y-113484523D01*
X185504819Y-111960714D02*
X185504819Y-112532142D01*
X185504819Y-112246428D02*
X184504819Y-112246428D01*
X184504819Y-112246428D02*
X184647676Y-112341666D01*
X184647676Y-112341666D02*
X184742914Y-112436904D01*
X184742914Y-112436904D02*
X184790533Y-112532142D01*
%TO.C,FB2*%
X174481009Y-114008333D02*
X174481009Y-114341666D01*
X175004819Y-114341666D02*
X174004819Y-114341666D01*
X174004819Y-114341666D02*
X174004819Y-113865476D01*
X174481009Y-113151190D02*
X174528628Y-113008333D01*
X174528628Y-113008333D02*
X174576247Y-112960714D01*
X174576247Y-112960714D02*
X174671485Y-112913095D01*
X174671485Y-112913095D02*
X174814342Y-112913095D01*
X174814342Y-112913095D02*
X174909580Y-112960714D01*
X174909580Y-112960714D02*
X174957200Y-113008333D01*
X174957200Y-113008333D02*
X175004819Y-113103571D01*
X175004819Y-113103571D02*
X175004819Y-113484523D01*
X175004819Y-113484523D02*
X174004819Y-113484523D01*
X174004819Y-113484523D02*
X174004819Y-113151190D01*
X174004819Y-113151190D02*
X174052438Y-113055952D01*
X174052438Y-113055952D02*
X174100057Y-113008333D01*
X174100057Y-113008333D02*
X174195295Y-112960714D01*
X174195295Y-112960714D02*
X174290533Y-112960714D01*
X174290533Y-112960714D02*
X174385771Y-113008333D01*
X174385771Y-113008333D02*
X174433390Y-113055952D01*
X174433390Y-113055952D02*
X174481009Y-113151190D01*
X174481009Y-113151190D02*
X174481009Y-113484523D01*
X174100057Y-112532142D02*
X174052438Y-112484523D01*
X174052438Y-112484523D02*
X174004819Y-112389285D01*
X174004819Y-112389285D02*
X174004819Y-112151190D01*
X174004819Y-112151190D02*
X174052438Y-112055952D01*
X174052438Y-112055952D02*
X174100057Y-112008333D01*
X174100057Y-112008333D02*
X174195295Y-111960714D01*
X174195295Y-111960714D02*
X174290533Y-111960714D01*
X174290533Y-111960714D02*
X174433390Y-112008333D01*
X174433390Y-112008333D02*
X175004819Y-112579761D01*
X175004819Y-112579761D02*
X175004819Y-111960714D01*
%TO.C,R36*%
X197357142Y-71704819D02*
X197023809Y-71228628D01*
X196785714Y-71704819D02*
X196785714Y-70704819D01*
X196785714Y-70704819D02*
X197166666Y-70704819D01*
X197166666Y-70704819D02*
X197261904Y-70752438D01*
X197261904Y-70752438D02*
X197309523Y-70800057D01*
X197309523Y-70800057D02*
X197357142Y-70895295D01*
X197357142Y-70895295D02*
X197357142Y-71038152D01*
X197357142Y-71038152D02*
X197309523Y-71133390D01*
X197309523Y-71133390D02*
X197261904Y-71181009D01*
X197261904Y-71181009D02*
X197166666Y-71228628D01*
X197166666Y-71228628D02*
X196785714Y-71228628D01*
X197690476Y-70704819D02*
X198309523Y-70704819D01*
X198309523Y-70704819D02*
X197976190Y-71085771D01*
X197976190Y-71085771D02*
X198119047Y-71085771D01*
X198119047Y-71085771D02*
X198214285Y-71133390D01*
X198214285Y-71133390D02*
X198261904Y-71181009D01*
X198261904Y-71181009D02*
X198309523Y-71276247D01*
X198309523Y-71276247D02*
X198309523Y-71514342D01*
X198309523Y-71514342D02*
X198261904Y-71609580D01*
X198261904Y-71609580D02*
X198214285Y-71657200D01*
X198214285Y-71657200D02*
X198119047Y-71704819D01*
X198119047Y-71704819D02*
X197833333Y-71704819D01*
X197833333Y-71704819D02*
X197738095Y-71657200D01*
X197738095Y-71657200D02*
X197690476Y-71609580D01*
X199166666Y-70704819D02*
X198976190Y-70704819D01*
X198976190Y-70704819D02*
X198880952Y-70752438D01*
X198880952Y-70752438D02*
X198833333Y-70800057D01*
X198833333Y-70800057D02*
X198738095Y-70942914D01*
X198738095Y-70942914D02*
X198690476Y-71133390D01*
X198690476Y-71133390D02*
X198690476Y-71514342D01*
X198690476Y-71514342D02*
X198738095Y-71609580D01*
X198738095Y-71609580D02*
X198785714Y-71657200D01*
X198785714Y-71657200D02*
X198880952Y-71704819D01*
X198880952Y-71704819D02*
X199071428Y-71704819D01*
X199071428Y-71704819D02*
X199166666Y-71657200D01*
X199166666Y-71657200D02*
X199214285Y-71609580D01*
X199214285Y-71609580D02*
X199261904Y-71514342D01*
X199261904Y-71514342D02*
X199261904Y-71276247D01*
X199261904Y-71276247D02*
X199214285Y-71181009D01*
X199214285Y-71181009D02*
X199166666Y-71133390D01*
X199166666Y-71133390D02*
X199071428Y-71085771D01*
X199071428Y-71085771D02*
X198880952Y-71085771D01*
X198880952Y-71085771D02*
X198785714Y-71133390D01*
X198785714Y-71133390D02*
X198738095Y-71181009D01*
X198738095Y-71181009D02*
X198690476Y-71276247D01*
%TO.C,FB4*%
X183431009Y-104083333D02*
X183431009Y-104416666D01*
X183954819Y-104416666D02*
X182954819Y-104416666D01*
X182954819Y-104416666D02*
X182954819Y-103940476D01*
X183431009Y-103226190D02*
X183478628Y-103083333D01*
X183478628Y-103083333D02*
X183526247Y-103035714D01*
X183526247Y-103035714D02*
X183621485Y-102988095D01*
X183621485Y-102988095D02*
X183764342Y-102988095D01*
X183764342Y-102988095D02*
X183859580Y-103035714D01*
X183859580Y-103035714D02*
X183907200Y-103083333D01*
X183907200Y-103083333D02*
X183954819Y-103178571D01*
X183954819Y-103178571D02*
X183954819Y-103559523D01*
X183954819Y-103559523D02*
X182954819Y-103559523D01*
X182954819Y-103559523D02*
X182954819Y-103226190D01*
X182954819Y-103226190D02*
X183002438Y-103130952D01*
X183002438Y-103130952D02*
X183050057Y-103083333D01*
X183050057Y-103083333D02*
X183145295Y-103035714D01*
X183145295Y-103035714D02*
X183240533Y-103035714D01*
X183240533Y-103035714D02*
X183335771Y-103083333D01*
X183335771Y-103083333D02*
X183383390Y-103130952D01*
X183383390Y-103130952D02*
X183431009Y-103226190D01*
X183431009Y-103226190D02*
X183431009Y-103559523D01*
X183288152Y-102130952D02*
X183954819Y-102130952D01*
X182907200Y-102369047D02*
X183621485Y-102607142D01*
X183621485Y-102607142D02*
X183621485Y-101988095D01*
%TO.C,J8*%
X184666666Y-124754819D02*
X184666666Y-125469104D01*
X184666666Y-125469104D02*
X184619047Y-125611961D01*
X184619047Y-125611961D02*
X184523809Y-125707200D01*
X184523809Y-125707200D02*
X184380952Y-125754819D01*
X184380952Y-125754819D02*
X184285714Y-125754819D01*
X185285714Y-125183390D02*
X185190476Y-125135771D01*
X185190476Y-125135771D02*
X185142857Y-125088152D01*
X185142857Y-125088152D02*
X185095238Y-124992914D01*
X185095238Y-124992914D02*
X185095238Y-124945295D01*
X185095238Y-124945295D02*
X185142857Y-124850057D01*
X185142857Y-124850057D02*
X185190476Y-124802438D01*
X185190476Y-124802438D02*
X185285714Y-124754819D01*
X185285714Y-124754819D02*
X185476190Y-124754819D01*
X185476190Y-124754819D02*
X185571428Y-124802438D01*
X185571428Y-124802438D02*
X185619047Y-124850057D01*
X185619047Y-124850057D02*
X185666666Y-124945295D01*
X185666666Y-124945295D02*
X185666666Y-124992914D01*
X185666666Y-124992914D02*
X185619047Y-125088152D01*
X185619047Y-125088152D02*
X185571428Y-125135771D01*
X185571428Y-125135771D02*
X185476190Y-125183390D01*
X185476190Y-125183390D02*
X185285714Y-125183390D01*
X185285714Y-125183390D02*
X185190476Y-125231009D01*
X185190476Y-125231009D02*
X185142857Y-125278628D01*
X185142857Y-125278628D02*
X185095238Y-125373866D01*
X185095238Y-125373866D02*
X185095238Y-125564342D01*
X185095238Y-125564342D02*
X185142857Y-125659580D01*
X185142857Y-125659580D02*
X185190476Y-125707200D01*
X185190476Y-125707200D02*
X185285714Y-125754819D01*
X185285714Y-125754819D02*
X185476190Y-125754819D01*
X185476190Y-125754819D02*
X185571428Y-125707200D01*
X185571428Y-125707200D02*
X185619047Y-125659580D01*
X185619047Y-125659580D02*
X185666666Y-125564342D01*
X185666666Y-125564342D02*
X185666666Y-125373866D01*
X185666666Y-125373866D02*
X185619047Y-125278628D01*
X185619047Y-125278628D02*
X185571428Y-125231009D01*
X185571428Y-125231009D02*
X185476190Y-125183390D01*
%TO.C,R14*%
X169444642Y-84604819D02*
X169111309Y-84128628D01*
X168873214Y-84604819D02*
X168873214Y-83604819D01*
X168873214Y-83604819D02*
X169254166Y-83604819D01*
X169254166Y-83604819D02*
X169349404Y-83652438D01*
X169349404Y-83652438D02*
X169397023Y-83700057D01*
X169397023Y-83700057D02*
X169444642Y-83795295D01*
X169444642Y-83795295D02*
X169444642Y-83938152D01*
X169444642Y-83938152D02*
X169397023Y-84033390D01*
X169397023Y-84033390D02*
X169349404Y-84081009D01*
X169349404Y-84081009D02*
X169254166Y-84128628D01*
X169254166Y-84128628D02*
X168873214Y-84128628D01*
X170397023Y-84604819D02*
X169825595Y-84604819D01*
X170111309Y-84604819D02*
X170111309Y-83604819D01*
X170111309Y-83604819D02*
X170016071Y-83747676D01*
X170016071Y-83747676D02*
X169920833Y-83842914D01*
X169920833Y-83842914D02*
X169825595Y-83890533D01*
X171254166Y-83938152D02*
X171254166Y-84604819D01*
X171016071Y-83557200D02*
X170777976Y-84271485D01*
X170777976Y-84271485D02*
X171397023Y-84271485D01*
%TO.C,J10*%
X183864819Y-98934523D02*
X184579104Y-98934523D01*
X184579104Y-98934523D02*
X184721961Y-98982142D01*
X184721961Y-98982142D02*
X184817200Y-99077380D01*
X184817200Y-99077380D02*
X184864819Y-99220237D01*
X184864819Y-99220237D02*
X184864819Y-99315475D01*
X184864819Y-97934523D02*
X184864819Y-98505951D01*
X184864819Y-98220237D02*
X183864819Y-98220237D01*
X183864819Y-98220237D02*
X184007676Y-98315475D01*
X184007676Y-98315475D02*
X184102914Y-98410713D01*
X184102914Y-98410713D02*
X184150533Y-98505951D01*
X183864819Y-97315475D02*
X183864819Y-97220237D01*
X183864819Y-97220237D02*
X183912438Y-97124999D01*
X183912438Y-97124999D02*
X183960057Y-97077380D01*
X183960057Y-97077380D02*
X184055295Y-97029761D01*
X184055295Y-97029761D02*
X184245771Y-96982142D01*
X184245771Y-96982142D02*
X184483866Y-96982142D01*
X184483866Y-96982142D02*
X184674342Y-97029761D01*
X184674342Y-97029761D02*
X184769580Y-97077380D01*
X184769580Y-97077380D02*
X184817200Y-97124999D01*
X184817200Y-97124999D02*
X184864819Y-97220237D01*
X184864819Y-97220237D02*
X184864819Y-97315475D01*
X184864819Y-97315475D02*
X184817200Y-97410713D01*
X184817200Y-97410713D02*
X184769580Y-97458332D01*
X184769580Y-97458332D02*
X184674342Y-97505951D01*
X184674342Y-97505951D02*
X184483866Y-97553570D01*
X184483866Y-97553570D02*
X184245771Y-97553570D01*
X184245771Y-97553570D02*
X184055295Y-97505951D01*
X184055295Y-97505951D02*
X183960057Y-97458332D01*
X183960057Y-97458332D02*
X183912438Y-97410713D01*
X183912438Y-97410713D02*
X183864819Y-97315475D01*
%TO.C,R25*%
X197444642Y-104604819D02*
X197111309Y-104128628D01*
X196873214Y-104604819D02*
X196873214Y-103604819D01*
X196873214Y-103604819D02*
X197254166Y-103604819D01*
X197254166Y-103604819D02*
X197349404Y-103652438D01*
X197349404Y-103652438D02*
X197397023Y-103700057D01*
X197397023Y-103700057D02*
X197444642Y-103795295D01*
X197444642Y-103795295D02*
X197444642Y-103938152D01*
X197444642Y-103938152D02*
X197397023Y-104033390D01*
X197397023Y-104033390D02*
X197349404Y-104081009D01*
X197349404Y-104081009D02*
X197254166Y-104128628D01*
X197254166Y-104128628D02*
X196873214Y-104128628D01*
X197825595Y-103700057D02*
X197873214Y-103652438D01*
X197873214Y-103652438D02*
X197968452Y-103604819D01*
X197968452Y-103604819D02*
X198206547Y-103604819D01*
X198206547Y-103604819D02*
X198301785Y-103652438D01*
X198301785Y-103652438D02*
X198349404Y-103700057D01*
X198349404Y-103700057D02*
X198397023Y-103795295D01*
X198397023Y-103795295D02*
X198397023Y-103890533D01*
X198397023Y-103890533D02*
X198349404Y-104033390D01*
X198349404Y-104033390D02*
X197777976Y-104604819D01*
X197777976Y-104604819D02*
X198397023Y-104604819D01*
X199301785Y-103604819D02*
X198825595Y-103604819D01*
X198825595Y-103604819D02*
X198777976Y-104081009D01*
X198777976Y-104081009D02*
X198825595Y-104033390D01*
X198825595Y-104033390D02*
X198920833Y-103985771D01*
X198920833Y-103985771D02*
X199158928Y-103985771D01*
X199158928Y-103985771D02*
X199254166Y-104033390D01*
X199254166Y-104033390D02*
X199301785Y-104081009D01*
X199301785Y-104081009D02*
X199349404Y-104176247D01*
X199349404Y-104176247D02*
X199349404Y-104414342D01*
X199349404Y-104414342D02*
X199301785Y-104509580D01*
X199301785Y-104509580D02*
X199254166Y-104557200D01*
X199254166Y-104557200D02*
X199158928Y-104604819D01*
X199158928Y-104604819D02*
X198920833Y-104604819D01*
X198920833Y-104604819D02*
X198825595Y-104557200D01*
X198825595Y-104557200D02*
X198777976Y-104509580D01*
%TO.C,R26*%
X197444642Y-108104819D02*
X197111309Y-107628628D01*
X196873214Y-108104819D02*
X196873214Y-107104819D01*
X196873214Y-107104819D02*
X197254166Y-107104819D01*
X197254166Y-107104819D02*
X197349404Y-107152438D01*
X197349404Y-107152438D02*
X197397023Y-107200057D01*
X197397023Y-107200057D02*
X197444642Y-107295295D01*
X197444642Y-107295295D02*
X197444642Y-107438152D01*
X197444642Y-107438152D02*
X197397023Y-107533390D01*
X197397023Y-107533390D02*
X197349404Y-107581009D01*
X197349404Y-107581009D02*
X197254166Y-107628628D01*
X197254166Y-107628628D02*
X196873214Y-107628628D01*
X197825595Y-107200057D02*
X197873214Y-107152438D01*
X197873214Y-107152438D02*
X197968452Y-107104819D01*
X197968452Y-107104819D02*
X198206547Y-107104819D01*
X198206547Y-107104819D02*
X198301785Y-107152438D01*
X198301785Y-107152438D02*
X198349404Y-107200057D01*
X198349404Y-107200057D02*
X198397023Y-107295295D01*
X198397023Y-107295295D02*
X198397023Y-107390533D01*
X198397023Y-107390533D02*
X198349404Y-107533390D01*
X198349404Y-107533390D02*
X197777976Y-108104819D01*
X197777976Y-108104819D02*
X198397023Y-108104819D01*
X199254166Y-107104819D02*
X199063690Y-107104819D01*
X199063690Y-107104819D02*
X198968452Y-107152438D01*
X198968452Y-107152438D02*
X198920833Y-107200057D01*
X198920833Y-107200057D02*
X198825595Y-107342914D01*
X198825595Y-107342914D02*
X198777976Y-107533390D01*
X198777976Y-107533390D02*
X198777976Y-107914342D01*
X198777976Y-107914342D02*
X198825595Y-108009580D01*
X198825595Y-108009580D02*
X198873214Y-108057200D01*
X198873214Y-108057200D02*
X198968452Y-108104819D01*
X198968452Y-108104819D02*
X199158928Y-108104819D01*
X199158928Y-108104819D02*
X199254166Y-108057200D01*
X199254166Y-108057200D02*
X199301785Y-108009580D01*
X199301785Y-108009580D02*
X199349404Y-107914342D01*
X199349404Y-107914342D02*
X199349404Y-107676247D01*
X199349404Y-107676247D02*
X199301785Y-107581009D01*
X199301785Y-107581009D02*
X199254166Y-107533390D01*
X199254166Y-107533390D02*
X199158928Y-107485771D01*
X199158928Y-107485771D02*
X198968452Y-107485771D01*
X198968452Y-107485771D02*
X198873214Y-107533390D01*
X198873214Y-107533390D02*
X198825595Y-107581009D01*
X198825595Y-107581009D02*
X198777976Y-107676247D01*
%TO.C,C6*%
X151179580Y-112166666D02*
X151227200Y-112214285D01*
X151227200Y-112214285D02*
X151274819Y-112357142D01*
X151274819Y-112357142D02*
X151274819Y-112452380D01*
X151274819Y-112452380D02*
X151227200Y-112595237D01*
X151227200Y-112595237D02*
X151131961Y-112690475D01*
X151131961Y-112690475D02*
X151036723Y-112738094D01*
X151036723Y-112738094D02*
X150846247Y-112785713D01*
X150846247Y-112785713D02*
X150703390Y-112785713D01*
X150703390Y-112785713D02*
X150512914Y-112738094D01*
X150512914Y-112738094D02*
X150417676Y-112690475D01*
X150417676Y-112690475D02*
X150322438Y-112595237D01*
X150322438Y-112595237D02*
X150274819Y-112452380D01*
X150274819Y-112452380D02*
X150274819Y-112357142D01*
X150274819Y-112357142D02*
X150322438Y-112214285D01*
X150322438Y-112214285D02*
X150370057Y-112166666D01*
X150274819Y-111309523D02*
X150274819Y-111499999D01*
X150274819Y-111499999D02*
X150322438Y-111595237D01*
X150322438Y-111595237D02*
X150370057Y-111642856D01*
X150370057Y-111642856D02*
X150512914Y-111738094D01*
X150512914Y-111738094D02*
X150703390Y-111785713D01*
X150703390Y-111785713D02*
X151084342Y-111785713D01*
X151084342Y-111785713D02*
X151179580Y-111738094D01*
X151179580Y-111738094D02*
X151227200Y-111690475D01*
X151227200Y-111690475D02*
X151274819Y-111595237D01*
X151274819Y-111595237D02*
X151274819Y-111404761D01*
X151274819Y-111404761D02*
X151227200Y-111309523D01*
X151227200Y-111309523D02*
X151179580Y-111261904D01*
X151179580Y-111261904D02*
X151084342Y-111214285D01*
X151084342Y-111214285D02*
X150846247Y-111214285D01*
X150846247Y-111214285D02*
X150751009Y-111261904D01*
X150751009Y-111261904D02*
X150703390Y-111309523D01*
X150703390Y-111309523D02*
X150655771Y-111404761D01*
X150655771Y-111404761D02*
X150655771Y-111595237D01*
X150655771Y-111595237D02*
X150703390Y-111690475D01*
X150703390Y-111690475D02*
X150751009Y-111738094D01*
X150751009Y-111738094D02*
X150846247Y-111785713D01*
%TO.C,C20*%
X167859580Y-92392857D02*
X167907200Y-92440476D01*
X167907200Y-92440476D02*
X167954819Y-92583333D01*
X167954819Y-92583333D02*
X167954819Y-92678571D01*
X167954819Y-92678571D02*
X167907200Y-92821428D01*
X167907200Y-92821428D02*
X167811961Y-92916666D01*
X167811961Y-92916666D02*
X167716723Y-92964285D01*
X167716723Y-92964285D02*
X167526247Y-93011904D01*
X167526247Y-93011904D02*
X167383390Y-93011904D01*
X167383390Y-93011904D02*
X167192914Y-92964285D01*
X167192914Y-92964285D02*
X167097676Y-92916666D01*
X167097676Y-92916666D02*
X167002438Y-92821428D01*
X167002438Y-92821428D02*
X166954819Y-92678571D01*
X166954819Y-92678571D02*
X166954819Y-92583333D01*
X166954819Y-92583333D02*
X167002438Y-92440476D01*
X167002438Y-92440476D02*
X167050057Y-92392857D01*
X167050057Y-92011904D02*
X167002438Y-91964285D01*
X167002438Y-91964285D02*
X166954819Y-91869047D01*
X166954819Y-91869047D02*
X166954819Y-91630952D01*
X166954819Y-91630952D02*
X167002438Y-91535714D01*
X167002438Y-91535714D02*
X167050057Y-91488095D01*
X167050057Y-91488095D02*
X167145295Y-91440476D01*
X167145295Y-91440476D02*
X167240533Y-91440476D01*
X167240533Y-91440476D02*
X167383390Y-91488095D01*
X167383390Y-91488095D02*
X167954819Y-92059523D01*
X167954819Y-92059523D02*
X167954819Y-91440476D01*
X166954819Y-90821428D02*
X166954819Y-90726190D01*
X166954819Y-90726190D02*
X167002438Y-90630952D01*
X167002438Y-90630952D02*
X167050057Y-90583333D01*
X167050057Y-90583333D02*
X167145295Y-90535714D01*
X167145295Y-90535714D02*
X167335771Y-90488095D01*
X167335771Y-90488095D02*
X167573866Y-90488095D01*
X167573866Y-90488095D02*
X167764342Y-90535714D01*
X167764342Y-90535714D02*
X167859580Y-90583333D01*
X167859580Y-90583333D02*
X167907200Y-90630952D01*
X167907200Y-90630952D02*
X167954819Y-90726190D01*
X167954819Y-90726190D02*
X167954819Y-90821428D01*
X167954819Y-90821428D02*
X167907200Y-90916666D01*
X167907200Y-90916666D02*
X167859580Y-90964285D01*
X167859580Y-90964285D02*
X167764342Y-91011904D01*
X167764342Y-91011904D02*
X167573866Y-91059523D01*
X167573866Y-91059523D02*
X167335771Y-91059523D01*
X167335771Y-91059523D02*
X167145295Y-91011904D01*
X167145295Y-91011904D02*
X167050057Y-90964285D01*
X167050057Y-90964285D02*
X167002438Y-90916666D01*
X167002438Y-90916666D02*
X166954819Y-90821428D01*
%TO.C,C11*%
X188907142Y-89339580D02*
X188859523Y-89387200D01*
X188859523Y-89387200D02*
X188716666Y-89434819D01*
X188716666Y-89434819D02*
X188621428Y-89434819D01*
X188621428Y-89434819D02*
X188478571Y-89387200D01*
X188478571Y-89387200D02*
X188383333Y-89291961D01*
X188383333Y-89291961D02*
X188335714Y-89196723D01*
X188335714Y-89196723D02*
X188288095Y-89006247D01*
X188288095Y-89006247D02*
X188288095Y-88863390D01*
X188288095Y-88863390D02*
X188335714Y-88672914D01*
X188335714Y-88672914D02*
X188383333Y-88577676D01*
X188383333Y-88577676D02*
X188478571Y-88482438D01*
X188478571Y-88482438D02*
X188621428Y-88434819D01*
X188621428Y-88434819D02*
X188716666Y-88434819D01*
X188716666Y-88434819D02*
X188859523Y-88482438D01*
X188859523Y-88482438D02*
X188907142Y-88530057D01*
X189859523Y-89434819D02*
X189288095Y-89434819D01*
X189573809Y-89434819D02*
X189573809Y-88434819D01*
X189573809Y-88434819D02*
X189478571Y-88577676D01*
X189478571Y-88577676D02*
X189383333Y-88672914D01*
X189383333Y-88672914D02*
X189288095Y-88720533D01*
X190811904Y-89434819D02*
X190240476Y-89434819D01*
X190526190Y-89434819D02*
X190526190Y-88434819D01*
X190526190Y-88434819D02*
X190430952Y-88577676D01*
X190430952Y-88577676D02*
X190335714Y-88672914D01*
X190335714Y-88672914D02*
X190240476Y-88720533D01*
%TO.C,R29*%
X197269642Y-87104819D02*
X196936309Y-86628628D01*
X196698214Y-87104819D02*
X196698214Y-86104819D01*
X196698214Y-86104819D02*
X197079166Y-86104819D01*
X197079166Y-86104819D02*
X197174404Y-86152438D01*
X197174404Y-86152438D02*
X197222023Y-86200057D01*
X197222023Y-86200057D02*
X197269642Y-86295295D01*
X197269642Y-86295295D02*
X197269642Y-86438152D01*
X197269642Y-86438152D02*
X197222023Y-86533390D01*
X197222023Y-86533390D02*
X197174404Y-86581009D01*
X197174404Y-86581009D02*
X197079166Y-86628628D01*
X197079166Y-86628628D02*
X196698214Y-86628628D01*
X197650595Y-86200057D02*
X197698214Y-86152438D01*
X197698214Y-86152438D02*
X197793452Y-86104819D01*
X197793452Y-86104819D02*
X198031547Y-86104819D01*
X198031547Y-86104819D02*
X198126785Y-86152438D01*
X198126785Y-86152438D02*
X198174404Y-86200057D01*
X198174404Y-86200057D02*
X198222023Y-86295295D01*
X198222023Y-86295295D02*
X198222023Y-86390533D01*
X198222023Y-86390533D02*
X198174404Y-86533390D01*
X198174404Y-86533390D02*
X197602976Y-87104819D01*
X197602976Y-87104819D02*
X198222023Y-87104819D01*
X198698214Y-87104819D02*
X198888690Y-87104819D01*
X198888690Y-87104819D02*
X198983928Y-87057200D01*
X198983928Y-87057200D02*
X199031547Y-87009580D01*
X199031547Y-87009580D02*
X199126785Y-86866723D01*
X199126785Y-86866723D02*
X199174404Y-86676247D01*
X199174404Y-86676247D02*
X199174404Y-86295295D01*
X199174404Y-86295295D02*
X199126785Y-86200057D01*
X199126785Y-86200057D02*
X199079166Y-86152438D01*
X199079166Y-86152438D02*
X198983928Y-86104819D01*
X198983928Y-86104819D02*
X198793452Y-86104819D01*
X198793452Y-86104819D02*
X198698214Y-86152438D01*
X198698214Y-86152438D02*
X198650595Y-86200057D01*
X198650595Y-86200057D02*
X198602976Y-86295295D01*
X198602976Y-86295295D02*
X198602976Y-86533390D01*
X198602976Y-86533390D02*
X198650595Y-86628628D01*
X198650595Y-86628628D02*
X198698214Y-86676247D01*
X198698214Y-86676247D02*
X198793452Y-86723866D01*
X198793452Y-86723866D02*
X198983928Y-86723866D01*
X198983928Y-86723866D02*
X199079166Y-86676247D01*
X199079166Y-86676247D02*
X199126785Y-86628628D01*
X199126785Y-86628628D02*
X199174404Y-86533390D01*
%TO.C,R1*%
X179833333Y-81904819D02*
X179500000Y-81428628D01*
X179261905Y-81904819D02*
X179261905Y-80904819D01*
X179261905Y-80904819D02*
X179642857Y-80904819D01*
X179642857Y-80904819D02*
X179738095Y-80952438D01*
X179738095Y-80952438D02*
X179785714Y-81000057D01*
X179785714Y-81000057D02*
X179833333Y-81095295D01*
X179833333Y-81095295D02*
X179833333Y-81238152D01*
X179833333Y-81238152D02*
X179785714Y-81333390D01*
X179785714Y-81333390D02*
X179738095Y-81381009D01*
X179738095Y-81381009D02*
X179642857Y-81428628D01*
X179642857Y-81428628D02*
X179261905Y-81428628D01*
X180785714Y-81904819D02*
X180214286Y-81904819D01*
X180500000Y-81904819D02*
X180500000Y-80904819D01*
X180500000Y-80904819D02*
X180404762Y-81047676D01*
X180404762Y-81047676D02*
X180309524Y-81142914D01*
X180309524Y-81142914D02*
X180214286Y-81190533D01*
%TO.C,R10*%
X164804819Y-61642857D02*
X164328628Y-61976190D01*
X164804819Y-62214285D02*
X163804819Y-62214285D01*
X163804819Y-62214285D02*
X163804819Y-61833333D01*
X163804819Y-61833333D02*
X163852438Y-61738095D01*
X163852438Y-61738095D02*
X163900057Y-61690476D01*
X163900057Y-61690476D02*
X163995295Y-61642857D01*
X163995295Y-61642857D02*
X164138152Y-61642857D01*
X164138152Y-61642857D02*
X164233390Y-61690476D01*
X164233390Y-61690476D02*
X164281009Y-61738095D01*
X164281009Y-61738095D02*
X164328628Y-61833333D01*
X164328628Y-61833333D02*
X164328628Y-62214285D01*
X164804819Y-60690476D02*
X164804819Y-61261904D01*
X164804819Y-60976190D02*
X163804819Y-60976190D01*
X163804819Y-60976190D02*
X163947676Y-61071428D01*
X163947676Y-61071428D02*
X164042914Y-61166666D01*
X164042914Y-61166666D02*
X164090533Y-61261904D01*
X163804819Y-60071428D02*
X163804819Y-59976190D01*
X163804819Y-59976190D02*
X163852438Y-59880952D01*
X163852438Y-59880952D02*
X163900057Y-59833333D01*
X163900057Y-59833333D02*
X163995295Y-59785714D01*
X163995295Y-59785714D02*
X164185771Y-59738095D01*
X164185771Y-59738095D02*
X164423866Y-59738095D01*
X164423866Y-59738095D02*
X164614342Y-59785714D01*
X164614342Y-59785714D02*
X164709580Y-59833333D01*
X164709580Y-59833333D02*
X164757200Y-59880952D01*
X164757200Y-59880952D02*
X164804819Y-59976190D01*
X164804819Y-59976190D02*
X164804819Y-60071428D01*
X164804819Y-60071428D02*
X164757200Y-60166666D01*
X164757200Y-60166666D02*
X164709580Y-60214285D01*
X164709580Y-60214285D02*
X164614342Y-60261904D01*
X164614342Y-60261904D02*
X164423866Y-60309523D01*
X164423866Y-60309523D02*
X164185771Y-60309523D01*
X164185771Y-60309523D02*
X163995295Y-60261904D01*
X163995295Y-60261904D02*
X163900057Y-60214285D01*
X163900057Y-60214285D02*
X163852438Y-60166666D01*
X163852438Y-60166666D02*
X163804819Y-60071428D01*
%TO.C,R12*%
X186357142Y-69204819D02*
X186023809Y-68728628D01*
X185785714Y-69204819D02*
X185785714Y-68204819D01*
X185785714Y-68204819D02*
X186166666Y-68204819D01*
X186166666Y-68204819D02*
X186261904Y-68252438D01*
X186261904Y-68252438D02*
X186309523Y-68300057D01*
X186309523Y-68300057D02*
X186357142Y-68395295D01*
X186357142Y-68395295D02*
X186357142Y-68538152D01*
X186357142Y-68538152D02*
X186309523Y-68633390D01*
X186309523Y-68633390D02*
X186261904Y-68681009D01*
X186261904Y-68681009D02*
X186166666Y-68728628D01*
X186166666Y-68728628D02*
X185785714Y-68728628D01*
X187309523Y-69204819D02*
X186738095Y-69204819D01*
X187023809Y-69204819D02*
X187023809Y-68204819D01*
X187023809Y-68204819D02*
X186928571Y-68347676D01*
X186928571Y-68347676D02*
X186833333Y-68442914D01*
X186833333Y-68442914D02*
X186738095Y-68490533D01*
X187690476Y-68300057D02*
X187738095Y-68252438D01*
X187738095Y-68252438D02*
X187833333Y-68204819D01*
X187833333Y-68204819D02*
X188071428Y-68204819D01*
X188071428Y-68204819D02*
X188166666Y-68252438D01*
X188166666Y-68252438D02*
X188214285Y-68300057D01*
X188214285Y-68300057D02*
X188261904Y-68395295D01*
X188261904Y-68395295D02*
X188261904Y-68490533D01*
X188261904Y-68490533D02*
X188214285Y-68633390D01*
X188214285Y-68633390D02*
X187642857Y-69204819D01*
X187642857Y-69204819D02*
X188261904Y-69204819D01*
%TO.C,D2*%
X179624405Y-54054819D02*
X179624405Y-53054819D01*
X179624405Y-53054819D02*
X179862500Y-53054819D01*
X179862500Y-53054819D02*
X180005357Y-53102438D01*
X180005357Y-53102438D02*
X180100595Y-53197676D01*
X180100595Y-53197676D02*
X180148214Y-53292914D01*
X180148214Y-53292914D02*
X180195833Y-53483390D01*
X180195833Y-53483390D02*
X180195833Y-53626247D01*
X180195833Y-53626247D02*
X180148214Y-53816723D01*
X180148214Y-53816723D02*
X180100595Y-53911961D01*
X180100595Y-53911961D02*
X180005357Y-54007200D01*
X180005357Y-54007200D02*
X179862500Y-54054819D01*
X179862500Y-54054819D02*
X179624405Y-54054819D01*
X180576786Y-53150057D02*
X180624405Y-53102438D01*
X180624405Y-53102438D02*
X180719643Y-53054819D01*
X180719643Y-53054819D02*
X180957738Y-53054819D01*
X180957738Y-53054819D02*
X181052976Y-53102438D01*
X181052976Y-53102438D02*
X181100595Y-53150057D01*
X181100595Y-53150057D02*
X181148214Y-53245295D01*
X181148214Y-53245295D02*
X181148214Y-53340533D01*
X181148214Y-53340533D02*
X181100595Y-53483390D01*
X181100595Y-53483390D02*
X180529167Y-54054819D01*
X180529167Y-54054819D02*
X181148214Y-54054819D01*
%TO.C,R21*%
X157444642Y-102954819D02*
X157111309Y-102478628D01*
X156873214Y-102954819D02*
X156873214Y-101954819D01*
X156873214Y-101954819D02*
X157254166Y-101954819D01*
X157254166Y-101954819D02*
X157349404Y-102002438D01*
X157349404Y-102002438D02*
X157397023Y-102050057D01*
X157397023Y-102050057D02*
X157444642Y-102145295D01*
X157444642Y-102145295D02*
X157444642Y-102288152D01*
X157444642Y-102288152D02*
X157397023Y-102383390D01*
X157397023Y-102383390D02*
X157349404Y-102431009D01*
X157349404Y-102431009D02*
X157254166Y-102478628D01*
X157254166Y-102478628D02*
X156873214Y-102478628D01*
X157825595Y-102050057D02*
X157873214Y-102002438D01*
X157873214Y-102002438D02*
X157968452Y-101954819D01*
X157968452Y-101954819D02*
X158206547Y-101954819D01*
X158206547Y-101954819D02*
X158301785Y-102002438D01*
X158301785Y-102002438D02*
X158349404Y-102050057D01*
X158349404Y-102050057D02*
X158397023Y-102145295D01*
X158397023Y-102145295D02*
X158397023Y-102240533D01*
X158397023Y-102240533D02*
X158349404Y-102383390D01*
X158349404Y-102383390D02*
X157777976Y-102954819D01*
X157777976Y-102954819D02*
X158397023Y-102954819D01*
X159349404Y-102954819D02*
X158777976Y-102954819D01*
X159063690Y-102954819D02*
X159063690Y-101954819D01*
X159063690Y-101954819D02*
X158968452Y-102097676D01*
X158968452Y-102097676D02*
X158873214Y-102192914D01*
X158873214Y-102192914D02*
X158777976Y-102240533D01*
%TO.C,Q3*%
X161904761Y-54200057D02*
X161809523Y-54152438D01*
X161809523Y-54152438D02*
X161714285Y-54057200D01*
X161714285Y-54057200D02*
X161571428Y-53914342D01*
X161571428Y-53914342D02*
X161476190Y-53866723D01*
X161476190Y-53866723D02*
X161380952Y-53866723D01*
X161428571Y-54104819D02*
X161333333Y-54057200D01*
X161333333Y-54057200D02*
X161238095Y-53961961D01*
X161238095Y-53961961D02*
X161190476Y-53771485D01*
X161190476Y-53771485D02*
X161190476Y-53438152D01*
X161190476Y-53438152D02*
X161238095Y-53247676D01*
X161238095Y-53247676D02*
X161333333Y-53152438D01*
X161333333Y-53152438D02*
X161428571Y-53104819D01*
X161428571Y-53104819D02*
X161619047Y-53104819D01*
X161619047Y-53104819D02*
X161714285Y-53152438D01*
X161714285Y-53152438D02*
X161809523Y-53247676D01*
X161809523Y-53247676D02*
X161857142Y-53438152D01*
X161857142Y-53438152D02*
X161857142Y-53771485D01*
X161857142Y-53771485D02*
X161809523Y-53961961D01*
X161809523Y-53961961D02*
X161714285Y-54057200D01*
X161714285Y-54057200D02*
X161619047Y-54104819D01*
X161619047Y-54104819D02*
X161428571Y-54104819D01*
X162190476Y-53104819D02*
X162809523Y-53104819D01*
X162809523Y-53104819D02*
X162476190Y-53485771D01*
X162476190Y-53485771D02*
X162619047Y-53485771D01*
X162619047Y-53485771D02*
X162714285Y-53533390D01*
X162714285Y-53533390D02*
X162761904Y-53581009D01*
X162761904Y-53581009D02*
X162809523Y-53676247D01*
X162809523Y-53676247D02*
X162809523Y-53914342D01*
X162809523Y-53914342D02*
X162761904Y-54009580D01*
X162761904Y-54009580D02*
X162714285Y-54057200D01*
X162714285Y-54057200D02*
X162619047Y-54104819D01*
X162619047Y-54104819D02*
X162333333Y-54104819D01*
X162333333Y-54104819D02*
X162238095Y-54057200D01*
X162238095Y-54057200D02*
X162190476Y-54009580D01*
%TO.C,U3*%
X181375595Y-83029819D02*
X181375595Y-83839342D01*
X181375595Y-83839342D02*
X181423214Y-83934580D01*
X181423214Y-83934580D02*
X181470833Y-83982200D01*
X181470833Y-83982200D02*
X181566071Y-84029819D01*
X181566071Y-84029819D02*
X181756547Y-84029819D01*
X181756547Y-84029819D02*
X181851785Y-83982200D01*
X181851785Y-83982200D02*
X181899404Y-83934580D01*
X181899404Y-83934580D02*
X181947023Y-83839342D01*
X181947023Y-83839342D02*
X181947023Y-83029819D01*
X182327976Y-83029819D02*
X182947023Y-83029819D01*
X182947023Y-83029819D02*
X182613690Y-83410771D01*
X182613690Y-83410771D02*
X182756547Y-83410771D01*
X182756547Y-83410771D02*
X182851785Y-83458390D01*
X182851785Y-83458390D02*
X182899404Y-83506009D01*
X182899404Y-83506009D02*
X182947023Y-83601247D01*
X182947023Y-83601247D02*
X182947023Y-83839342D01*
X182947023Y-83839342D02*
X182899404Y-83934580D01*
X182899404Y-83934580D02*
X182851785Y-83982200D01*
X182851785Y-83982200D02*
X182756547Y-84029819D01*
X182756547Y-84029819D02*
X182470833Y-84029819D01*
X182470833Y-84029819D02*
X182375595Y-83982200D01*
X182375595Y-83982200D02*
X182327976Y-83934580D01*
%TO.C,Q2*%
X195904761Y-64950057D02*
X195809523Y-64902438D01*
X195809523Y-64902438D02*
X195714285Y-64807200D01*
X195714285Y-64807200D02*
X195571428Y-64664342D01*
X195571428Y-64664342D02*
X195476190Y-64616723D01*
X195476190Y-64616723D02*
X195380952Y-64616723D01*
X195428571Y-64854819D02*
X195333333Y-64807200D01*
X195333333Y-64807200D02*
X195238095Y-64711961D01*
X195238095Y-64711961D02*
X195190476Y-64521485D01*
X195190476Y-64521485D02*
X195190476Y-64188152D01*
X195190476Y-64188152D02*
X195238095Y-63997676D01*
X195238095Y-63997676D02*
X195333333Y-63902438D01*
X195333333Y-63902438D02*
X195428571Y-63854819D01*
X195428571Y-63854819D02*
X195619047Y-63854819D01*
X195619047Y-63854819D02*
X195714285Y-63902438D01*
X195714285Y-63902438D02*
X195809523Y-63997676D01*
X195809523Y-63997676D02*
X195857142Y-64188152D01*
X195857142Y-64188152D02*
X195857142Y-64521485D01*
X195857142Y-64521485D02*
X195809523Y-64711961D01*
X195809523Y-64711961D02*
X195714285Y-64807200D01*
X195714285Y-64807200D02*
X195619047Y-64854819D01*
X195619047Y-64854819D02*
X195428571Y-64854819D01*
X196238095Y-63950057D02*
X196285714Y-63902438D01*
X196285714Y-63902438D02*
X196380952Y-63854819D01*
X196380952Y-63854819D02*
X196619047Y-63854819D01*
X196619047Y-63854819D02*
X196714285Y-63902438D01*
X196714285Y-63902438D02*
X196761904Y-63950057D01*
X196761904Y-63950057D02*
X196809523Y-64045295D01*
X196809523Y-64045295D02*
X196809523Y-64140533D01*
X196809523Y-64140533D02*
X196761904Y-64283390D01*
X196761904Y-64283390D02*
X196190476Y-64854819D01*
X196190476Y-64854819D02*
X196809523Y-64854819D01*
%TO.C,R20*%
X157357142Y-75804819D02*
X157023809Y-75328628D01*
X156785714Y-75804819D02*
X156785714Y-74804819D01*
X156785714Y-74804819D02*
X157166666Y-74804819D01*
X157166666Y-74804819D02*
X157261904Y-74852438D01*
X157261904Y-74852438D02*
X157309523Y-74900057D01*
X157309523Y-74900057D02*
X157357142Y-74995295D01*
X157357142Y-74995295D02*
X157357142Y-75138152D01*
X157357142Y-75138152D02*
X157309523Y-75233390D01*
X157309523Y-75233390D02*
X157261904Y-75281009D01*
X157261904Y-75281009D02*
X157166666Y-75328628D01*
X157166666Y-75328628D02*
X156785714Y-75328628D01*
X157738095Y-74900057D02*
X157785714Y-74852438D01*
X157785714Y-74852438D02*
X157880952Y-74804819D01*
X157880952Y-74804819D02*
X158119047Y-74804819D01*
X158119047Y-74804819D02*
X158214285Y-74852438D01*
X158214285Y-74852438D02*
X158261904Y-74900057D01*
X158261904Y-74900057D02*
X158309523Y-74995295D01*
X158309523Y-74995295D02*
X158309523Y-75090533D01*
X158309523Y-75090533D02*
X158261904Y-75233390D01*
X158261904Y-75233390D02*
X157690476Y-75804819D01*
X157690476Y-75804819D02*
X158309523Y-75804819D01*
X158928571Y-74804819D02*
X159023809Y-74804819D01*
X159023809Y-74804819D02*
X159119047Y-74852438D01*
X159119047Y-74852438D02*
X159166666Y-74900057D01*
X159166666Y-74900057D02*
X159214285Y-74995295D01*
X159214285Y-74995295D02*
X159261904Y-75185771D01*
X159261904Y-75185771D02*
X159261904Y-75423866D01*
X159261904Y-75423866D02*
X159214285Y-75614342D01*
X159214285Y-75614342D02*
X159166666Y-75709580D01*
X159166666Y-75709580D02*
X159119047Y-75757200D01*
X159119047Y-75757200D02*
X159023809Y-75804819D01*
X159023809Y-75804819D02*
X158928571Y-75804819D01*
X158928571Y-75804819D02*
X158833333Y-75757200D01*
X158833333Y-75757200D02*
X158785714Y-75709580D01*
X158785714Y-75709580D02*
X158738095Y-75614342D01*
X158738095Y-75614342D02*
X158690476Y-75423866D01*
X158690476Y-75423866D02*
X158690476Y-75185771D01*
X158690476Y-75185771D02*
X158738095Y-74995295D01*
X158738095Y-74995295D02*
X158785714Y-74900057D01*
X158785714Y-74900057D02*
X158833333Y-74852438D01*
X158833333Y-74852438D02*
X158928571Y-74804819D01*
%TO.C,FB3*%
X176381009Y-114070833D02*
X176381009Y-114404166D01*
X176904819Y-114404166D02*
X175904819Y-114404166D01*
X175904819Y-114404166D02*
X175904819Y-113927976D01*
X176381009Y-113213690D02*
X176428628Y-113070833D01*
X176428628Y-113070833D02*
X176476247Y-113023214D01*
X176476247Y-113023214D02*
X176571485Y-112975595D01*
X176571485Y-112975595D02*
X176714342Y-112975595D01*
X176714342Y-112975595D02*
X176809580Y-113023214D01*
X176809580Y-113023214D02*
X176857200Y-113070833D01*
X176857200Y-113070833D02*
X176904819Y-113166071D01*
X176904819Y-113166071D02*
X176904819Y-113547023D01*
X176904819Y-113547023D02*
X175904819Y-113547023D01*
X175904819Y-113547023D02*
X175904819Y-113213690D01*
X175904819Y-113213690D02*
X175952438Y-113118452D01*
X175952438Y-113118452D02*
X176000057Y-113070833D01*
X176000057Y-113070833D02*
X176095295Y-113023214D01*
X176095295Y-113023214D02*
X176190533Y-113023214D01*
X176190533Y-113023214D02*
X176285771Y-113070833D01*
X176285771Y-113070833D02*
X176333390Y-113118452D01*
X176333390Y-113118452D02*
X176381009Y-113213690D01*
X176381009Y-113213690D02*
X176381009Y-113547023D01*
X175904819Y-112642261D02*
X175904819Y-112023214D01*
X175904819Y-112023214D02*
X176285771Y-112356547D01*
X176285771Y-112356547D02*
X176285771Y-112213690D01*
X176285771Y-112213690D02*
X176333390Y-112118452D01*
X176333390Y-112118452D02*
X176381009Y-112070833D01*
X176381009Y-112070833D02*
X176476247Y-112023214D01*
X176476247Y-112023214D02*
X176714342Y-112023214D01*
X176714342Y-112023214D02*
X176809580Y-112070833D01*
X176809580Y-112070833D02*
X176857200Y-112118452D01*
X176857200Y-112118452D02*
X176904819Y-112213690D01*
X176904819Y-112213690D02*
X176904819Y-112499404D01*
X176904819Y-112499404D02*
X176857200Y-112594642D01*
X176857200Y-112594642D02*
X176809580Y-112642261D01*
%TO.C,C2*%
X170833333Y-59679580D02*
X170785714Y-59727200D01*
X170785714Y-59727200D02*
X170642857Y-59774819D01*
X170642857Y-59774819D02*
X170547619Y-59774819D01*
X170547619Y-59774819D02*
X170404762Y-59727200D01*
X170404762Y-59727200D02*
X170309524Y-59631961D01*
X170309524Y-59631961D02*
X170261905Y-59536723D01*
X170261905Y-59536723D02*
X170214286Y-59346247D01*
X170214286Y-59346247D02*
X170214286Y-59203390D01*
X170214286Y-59203390D02*
X170261905Y-59012914D01*
X170261905Y-59012914D02*
X170309524Y-58917676D01*
X170309524Y-58917676D02*
X170404762Y-58822438D01*
X170404762Y-58822438D02*
X170547619Y-58774819D01*
X170547619Y-58774819D02*
X170642857Y-58774819D01*
X170642857Y-58774819D02*
X170785714Y-58822438D01*
X170785714Y-58822438D02*
X170833333Y-58870057D01*
X171214286Y-58870057D02*
X171261905Y-58822438D01*
X171261905Y-58822438D02*
X171357143Y-58774819D01*
X171357143Y-58774819D02*
X171595238Y-58774819D01*
X171595238Y-58774819D02*
X171690476Y-58822438D01*
X171690476Y-58822438D02*
X171738095Y-58870057D01*
X171738095Y-58870057D02*
X171785714Y-58965295D01*
X171785714Y-58965295D02*
X171785714Y-59060533D01*
X171785714Y-59060533D02*
X171738095Y-59203390D01*
X171738095Y-59203390D02*
X171166667Y-59774819D01*
X171166667Y-59774819D02*
X171785714Y-59774819D01*
%TO.C,R32*%
X167204819Y-82642857D02*
X166728628Y-82976190D01*
X167204819Y-83214285D02*
X166204819Y-83214285D01*
X166204819Y-83214285D02*
X166204819Y-82833333D01*
X166204819Y-82833333D02*
X166252438Y-82738095D01*
X166252438Y-82738095D02*
X166300057Y-82690476D01*
X166300057Y-82690476D02*
X166395295Y-82642857D01*
X166395295Y-82642857D02*
X166538152Y-82642857D01*
X166538152Y-82642857D02*
X166633390Y-82690476D01*
X166633390Y-82690476D02*
X166681009Y-82738095D01*
X166681009Y-82738095D02*
X166728628Y-82833333D01*
X166728628Y-82833333D02*
X166728628Y-83214285D01*
X166204819Y-82309523D02*
X166204819Y-81690476D01*
X166204819Y-81690476D02*
X166585771Y-82023809D01*
X166585771Y-82023809D02*
X166585771Y-81880952D01*
X166585771Y-81880952D02*
X166633390Y-81785714D01*
X166633390Y-81785714D02*
X166681009Y-81738095D01*
X166681009Y-81738095D02*
X166776247Y-81690476D01*
X166776247Y-81690476D02*
X167014342Y-81690476D01*
X167014342Y-81690476D02*
X167109580Y-81738095D01*
X167109580Y-81738095D02*
X167157200Y-81785714D01*
X167157200Y-81785714D02*
X167204819Y-81880952D01*
X167204819Y-81880952D02*
X167204819Y-82166666D01*
X167204819Y-82166666D02*
X167157200Y-82261904D01*
X167157200Y-82261904D02*
X167109580Y-82309523D01*
X166300057Y-81309523D02*
X166252438Y-81261904D01*
X166252438Y-81261904D02*
X166204819Y-81166666D01*
X166204819Y-81166666D02*
X166204819Y-80928571D01*
X166204819Y-80928571D02*
X166252438Y-80833333D01*
X166252438Y-80833333D02*
X166300057Y-80785714D01*
X166300057Y-80785714D02*
X166395295Y-80738095D01*
X166395295Y-80738095D02*
X166490533Y-80738095D01*
X166490533Y-80738095D02*
X166633390Y-80785714D01*
X166633390Y-80785714D02*
X167204819Y-81357142D01*
X167204819Y-81357142D02*
X167204819Y-80738095D01*
%TO.C,R4*%
X190333333Y-68204819D02*
X190000000Y-67728628D01*
X189761905Y-68204819D02*
X189761905Y-67204819D01*
X189761905Y-67204819D02*
X190142857Y-67204819D01*
X190142857Y-67204819D02*
X190238095Y-67252438D01*
X190238095Y-67252438D02*
X190285714Y-67300057D01*
X190285714Y-67300057D02*
X190333333Y-67395295D01*
X190333333Y-67395295D02*
X190333333Y-67538152D01*
X190333333Y-67538152D02*
X190285714Y-67633390D01*
X190285714Y-67633390D02*
X190238095Y-67681009D01*
X190238095Y-67681009D02*
X190142857Y-67728628D01*
X190142857Y-67728628D02*
X189761905Y-67728628D01*
X191190476Y-67538152D02*
X191190476Y-68204819D01*
X190952381Y-67157200D02*
X190714286Y-67871485D01*
X190714286Y-67871485D02*
X191333333Y-67871485D01*
%TO.C,R31*%
X192357142Y-88954819D02*
X192023809Y-88478628D01*
X191785714Y-88954819D02*
X191785714Y-87954819D01*
X191785714Y-87954819D02*
X192166666Y-87954819D01*
X192166666Y-87954819D02*
X192261904Y-88002438D01*
X192261904Y-88002438D02*
X192309523Y-88050057D01*
X192309523Y-88050057D02*
X192357142Y-88145295D01*
X192357142Y-88145295D02*
X192357142Y-88288152D01*
X192357142Y-88288152D02*
X192309523Y-88383390D01*
X192309523Y-88383390D02*
X192261904Y-88431009D01*
X192261904Y-88431009D02*
X192166666Y-88478628D01*
X192166666Y-88478628D02*
X191785714Y-88478628D01*
X192690476Y-87954819D02*
X193309523Y-87954819D01*
X193309523Y-87954819D02*
X192976190Y-88335771D01*
X192976190Y-88335771D02*
X193119047Y-88335771D01*
X193119047Y-88335771D02*
X193214285Y-88383390D01*
X193214285Y-88383390D02*
X193261904Y-88431009D01*
X193261904Y-88431009D02*
X193309523Y-88526247D01*
X193309523Y-88526247D02*
X193309523Y-88764342D01*
X193309523Y-88764342D02*
X193261904Y-88859580D01*
X193261904Y-88859580D02*
X193214285Y-88907200D01*
X193214285Y-88907200D02*
X193119047Y-88954819D01*
X193119047Y-88954819D02*
X192833333Y-88954819D01*
X192833333Y-88954819D02*
X192738095Y-88907200D01*
X192738095Y-88907200D02*
X192690476Y-88859580D01*
X194261904Y-88954819D02*
X193690476Y-88954819D01*
X193976190Y-88954819D02*
X193976190Y-87954819D01*
X193976190Y-87954819D02*
X193880952Y-88097676D01*
X193880952Y-88097676D02*
X193785714Y-88192914D01*
X193785714Y-88192914D02*
X193690476Y-88240533D01*
%TO.C,C8*%
X199179580Y-111716666D02*
X199227200Y-111764285D01*
X199227200Y-111764285D02*
X199274819Y-111907142D01*
X199274819Y-111907142D02*
X199274819Y-112002380D01*
X199274819Y-112002380D02*
X199227200Y-112145237D01*
X199227200Y-112145237D02*
X199131961Y-112240475D01*
X199131961Y-112240475D02*
X199036723Y-112288094D01*
X199036723Y-112288094D02*
X198846247Y-112335713D01*
X198846247Y-112335713D02*
X198703390Y-112335713D01*
X198703390Y-112335713D02*
X198512914Y-112288094D01*
X198512914Y-112288094D02*
X198417676Y-112240475D01*
X198417676Y-112240475D02*
X198322438Y-112145237D01*
X198322438Y-112145237D02*
X198274819Y-112002380D01*
X198274819Y-112002380D02*
X198274819Y-111907142D01*
X198274819Y-111907142D02*
X198322438Y-111764285D01*
X198322438Y-111764285D02*
X198370057Y-111716666D01*
X198703390Y-111145237D02*
X198655771Y-111240475D01*
X198655771Y-111240475D02*
X198608152Y-111288094D01*
X198608152Y-111288094D02*
X198512914Y-111335713D01*
X198512914Y-111335713D02*
X198465295Y-111335713D01*
X198465295Y-111335713D02*
X198370057Y-111288094D01*
X198370057Y-111288094D02*
X198322438Y-111240475D01*
X198322438Y-111240475D02*
X198274819Y-111145237D01*
X198274819Y-111145237D02*
X198274819Y-110954761D01*
X198274819Y-110954761D02*
X198322438Y-110859523D01*
X198322438Y-110859523D02*
X198370057Y-110811904D01*
X198370057Y-110811904D02*
X198465295Y-110764285D01*
X198465295Y-110764285D02*
X198512914Y-110764285D01*
X198512914Y-110764285D02*
X198608152Y-110811904D01*
X198608152Y-110811904D02*
X198655771Y-110859523D01*
X198655771Y-110859523D02*
X198703390Y-110954761D01*
X198703390Y-110954761D02*
X198703390Y-111145237D01*
X198703390Y-111145237D02*
X198751009Y-111240475D01*
X198751009Y-111240475D02*
X198798628Y-111288094D01*
X198798628Y-111288094D02*
X198893866Y-111335713D01*
X198893866Y-111335713D02*
X199084342Y-111335713D01*
X199084342Y-111335713D02*
X199179580Y-111288094D01*
X199179580Y-111288094D02*
X199227200Y-111240475D01*
X199227200Y-111240475D02*
X199274819Y-111145237D01*
X199274819Y-111145237D02*
X199274819Y-110954761D01*
X199274819Y-110954761D02*
X199227200Y-110859523D01*
X199227200Y-110859523D02*
X199179580Y-110811904D01*
X199179580Y-110811904D02*
X199084342Y-110764285D01*
X199084342Y-110764285D02*
X198893866Y-110764285D01*
X198893866Y-110764285D02*
X198798628Y-110811904D01*
X198798628Y-110811904D02*
X198751009Y-110859523D01*
X198751009Y-110859523D02*
X198703390Y-110954761D01*
%TO.C,R9*%
X194104819Y-56166666D02*
X193628628Y-56499999D01*
X194104819Y-56738094D02*
X193104819Y-56738094D01*
X193104819Y-56738094D02*
X193104819Y-56357142D01*
X193104819Y-56357142D02*
X193152438Y-56261904D01*
X193152438Y-56261904D02*
X193200057Y-56214285D01*
X193200057Y-56214285D02*
X193295295Y-56166666D01*
X193295295Y-56166666D02*
X193438152Y-56166666D01*
X193438152Y-56166666D02*
X193533390Y-56214285D01*
X193533390Y-56214285D02*
X193581009Y-56261904D01*
X193581009Y-56261904D02*
X193628628Y-56357142D01*
X193628628Y-56357142D02*
X193628628Y-56738094D01*
X194104819Y-55690475D02*
X194104819Y-55499999D01*
X194104819Y-55499999D02*
X194057200Y-55404761D01*
X194057200Y-55404761D02*
X194009580Y-55357142D01*
X194009580Y-55357142D02*
X193866723Y-55261904D01*
X193866723Y-55261904D02*
X193676247Y-55214285D01*
X193676247Y-55214285D02*
X193295295Y-55214285D01*
X193295295Y-55214285D02*
X193200057Y-55261904D01*
X193200057Y-55261904D02*
X193152438Y-55309523D01*
X193152438Y-55309523D02*
X193104819Y-55404761D01*
X193104819Y-55404761D02*
X193104819Y-55595237D01*
X193104819Y-55595237D02*
X193152438Y-55690475D01*
X193152438Y-55690475D02*
X193200057Y-55738094D01*
X193200057Y-55738094D02*
X193295295Y-55785713D01*
X193295295Y-55785713D02*
X193533390Y-55785713D01*
X193533390Y-55785713D02*
X193628628Y-55738094D01*
X193628628Y-55738094D02*
X193676247Y-55690475D01*
X193676247Y-55690475D02*
X193723866Y-55595237D01*
X193723866Y-55595237D02*
X193723866Y-55404761D01*
X193723866Y-55404761D02*
X193676247Y-55309523D01*
X193676247Y-55309523D02*
X193628628Y-55261904D01*
X193628628Y-55261904D02*
X193533390Y-55214285D01*
%TO.C,R33*%
X157444642Y-106204819D02*
X157111309Y-105728628D01*
X156873214Y-106204819D02*
X156873214Y-105204819D01*
X156873214Y-105204819D02*
X157254166Y-105204819D01*
X157254166Y-105204819D02*
X157349404Y-105252438D01*
X157349404Y-105252438D02*
X157397023Y-105300057D01*
X157397023Y-105300057D02*
X157444642Y-105395295D01*
X157444642Y-105395295D02*
X157444642Y-105538152D01*
X157444642Y-105538152D02*
X157397023Y-105633390D01*
X157397023Y-105633390D02*
X157349404Y-105681009D01*
X157349404Y-105681009D02*
X157254166Y-105728628D01*
X157254166Y-105728628D02*
X156873214Y-105728628D01*
X157777976Y-105204819D02*
X158397023Y-105204819D01*
X158397023Y-105204819D02*
X158063690Y-105585771D01*
X158063690Y-105585771D02*
X158206547Y-105585771D01*
X158206547Y-105585771D02*
X158301785Y-105633390D01*
X158301785Y-105633390D02*
X158349404Y-105681009D01*
X158349404Y-105681009D02*
X158397023Y-105776247D01*
X158397023Y-105776247D02*
X158397023Y-106014342D01*
X158397023Y-106014342D02*
X158349404Y-106109580D01*
X158349404Y-106109580D02*
X158301785Y-106157200D01*
X158301785Y-106157200D02*
X158206547Y-106204819D01*
X158206547Y-106204819D02*
X157920833Y-106204819D01*
X157920833Y-106204819D02*
X157825595Y-106157200D01*
X157825595Y-106157200D02*
X157777976Y-106109580D01*
X158730357Y-105204819D02*
X159349404Y-105204819D01*
X159349404Y-105204819D02*
X159016071Y-105585771D01*
X159016071Y-105585771D02*
X159158928Y-105585771D01*
X159158928Y-105585771D02*
X159254166Y-105633390D01*
X159254166Y-105633390D02*
X159301785Y-105681009D01*
X159301785Y-105681009D02*
X159349404Y-105776247D01*
X159349404Y-105776247D02*
X159349404Y-106014342D01*
X159349404Y-106014342D02*
X159301785Y-106109580D01*
X159301785Y-106109580D02*
X159254166Y-106157200D01*
X159254166Y-106157200D02*
X159158928Y-106204819D01*
X159158928Y-106204819D02*
X158873214Y-106204819D01*
X158873214Y-106204819D02*
X158777976Y-106157200D01*
X158777976Y-106157200D02*
X158730357Y-106109580D01*
%TO.C,Q1*%
X187842261Y-64950057D02*
X187747023Y-64902438D01*
X187747023Y-64902438D02*
X187651785Y-64807200D01*
X187651785Y-64807200D02*
X187508928Y-64664342D01*
X187508928Y-64664342D02*
X187413690Y-64616723D01*
X187413690Y-64616723D02*
X187318452Y-64616723D01*
X187366071Y-64854819D02*
X187270833Y-64807200D01*
X187270833Y-64807200D02*
X187175595Y-64711961D01*
X187175595Y-64711961D02*
X187127976Y-64521485D01*
X187127976Y-64521485D02*
X187127976Y-64188152D01*
X187127976Y-64188152D02*
X187175595Y-63997676D01*
X187175595Y-63997676D02*
X187270833Y-63902438D01*
X187270833Y-63902438D02*
X187366071Y-63854819D01*
X187366071Y-63854819D02*
X187556547Y-63854819D01*
X187556547Y-63854819D02*
X187651785Y-63902438D01*
X187651785Y-63902438D02*
X187747023Y-63997676D01*
X187747023Y-63997676D02*
X187794642Y-64188152D01*
X187794642Y-64188152D02*
X187794642Y-64521485D01*
X187794642Y-64521485D02*
X187747023Y-64711961D01*
X187747023Y-64711961D02*
X187651785Y-64807200D01*
X187651785Y-64807200D02*
X187556547Y-64854819D01*
X187556547Y-64854819D02*
X187366071Y-64854819D01*
X188747023Y-64854819D02*
X188175595Y-64854819D01*
X188461309Y-64854819D02*
X188461309Y-63854819D01*
X188461309Y-63854819D02*
X188366071Y-63997676D01*
X188366071Y-63997676D02*
X188270833Y-64092914D01*
X188270833Y-64092914D02*
X188175595Y-64140533D01*
%TO.C,C12*%
X174607142Y-89109580D02*
X174559523Y-89157200D01*
X174559523Y-89157200D02*
X174416666Y-89204819D01*
X174416666Y-89204819D02*
X174321428Y-89204819D01*
X174321428Y-89204819D02*
X174178571Y-89157200D01*
X174178571Y-89157200D02*
X174083333Y-89061961D01*
X174083333Y-89061961D02*
X174035714Y-88966723D01*
X174035714Y-88966723D02*
X173988095Y-88776247D01*
X173988095Y-88776247D02*
X173988095Y-88633390D01*
X173988095Y-88633390D02*
X174035714Y-88442914D01*
X174035714Y-88442914D02*
X174083333Y-88347676D01*
X174083333Y-88347676D02*
X174178571Y-88252438D01*
X174178571Y-88252438D02*
X174321428Y-88204819D01*
X174321428Y-88204819D02*
X174416666Y-88204819D01*
X174416666Y-88204819D02*
X174559523Y-88252438D01*
X174559523Y-88252438D02*
X174607142Y-88300057D01*
X175559523Y-89204819D02*
X174988095Y-89204819D01*
X175273809Y-89204819D02*
X175273809Y-88204819D01*
X175273809Y-88204819D02*
X175178571Y-88347676D01*
X175178571Y-88347676D02*
X175083333Y-88442914D01*
X175083333Y-88442914D02*
X174988095Y-88490533D01*
X175940476Y-88300057D02*
X175988095Y-88252438D01*
X175988095Y-88252438D02*
X176083333Y-88204819D01*
X176083333Y-88204819D02*
X176321428Y-88204819D01*
X176321428Y-88204819D02*
X176416666Y-88252438D01*
X176416666Y-88252438D02*
X176464285Y-88300057D01*
X176464285Y-88300057D02*
X176511904Y-88395295D01*
X176511904Y-88395295D02*
X176511904Y-88490533D01*
X176511904Y-88490533D02*
X176464285Y-88633390D01*
X176464285Y-88633390D02*
X175892857Y-89204819D01*
X175892857Y-89204819D02*
X176511904Y-89204819D01*
%TO.C,R23*%
X157357142Y-93804819D02*
X157023809Y-93328628D01*
X156785714Y-93804819D02*
X156785714Y-92804819D01*
X156785714Y-92804819D02*
X157166666Y-92804819D01*
X157166666Y-92804819D02*
X157261904Y-92852438D01*
X157261904Y-92852438D02*
X157309523Y-92900057D01*
X157309523Y-92900057D02*
X157357142Y-92995295D01*
X157357142Y-92995295D02*
X157357142Y-93138152D01*
X157357142Y-93138152D02*
X157309523Y-93233390D01*
X157309523Y-93233390D02*
X157261904Y-93281009D01*
X157261904Y-93281009D02*
X157166666Y-93328628D01*
X157166666Y-93328628D02*
X156785714Y-93328628D01*
X157738095Y-92900057D02*
X157785714Y-92852438D01*
X157785714Y-92852438D02*
X157880952Y-92804819D01*
X157880952Y-92804819D02*
X158119047Y-92804819D01*
X158119047Y-92804819D02*
X158214285Y-92852438D01*
X158214285Y-92852438D02*
X158261904Y-92900057D01*
X158261904Y-92900057D02*
X158309523Y-92995295D01*
X158309523Y-92995295D02*
X158309523Y-93090533D01*
X158309523Y-93090533D02*
X158261904Y-93233390D01*
X158261904Y-93233390D02*
X157690476Y-93804819D01*
X157690476Y-93804819D02*
X158309523Y-93804819D01*
X158642857Y-92804819D02*
X159261904Y-92804819D01*
X159261904Y-92804819D02*
X158928571Y-93185771D01*
X158928571Y-93185771D02*
X159071428Y-93185771D01*
X159071428Y-93185771D02*
X159166666Y-93233390D01*
X159166666Y-93233390D02*
X159214285Y-93281009D01*
X159214285Y-93281009D02*
X159261904Y-93376247D01*
X159261904Y-93376247D02*
X159261904Y-93614342D01*
X159261904Y-93614342D02*
X159214285Y-93709580D01*
X159214285Y-93709580D02*
X159166666Y-93757200D01*
X159166666Y-93757200D02*
X159071428Y-93804819D01*
X159071428Y-93804819D02*
X158785714Y-93804819D01*
X158785714Y-93804819D02*
X158690476Y-93757200D01*
X158690476Y-93757200D02*
X158642857Y-93709580D01*
%TO.C,D7*%
X162124405Y-79054819D02*
X162124405Y-78054819D01*
X162124405Y-78054819D02*
X162362500Y-78054819D01*
X162362500Y-78054819D02*
X162505357Y-78102438D01*
X162505357Y-78102438D02*
X162600595Y-78197676D01*
X162600595Y-78197676D02*
X162648214Y-78292914D01*
X162648214Y-78292914D02*
X162695833Y-78483390D01*
X162695833Y-78483390D02*
X162695833Y-78626247D01*
X162695833Y-78626247D02*
X162648214Y-78816723D01*
X162648214Y-78816723D02*
X162600595Y-78911961D01*
X162600595Y-78911961D02*
X162505357Y-79007200D01*
X162505357Y-79007200D02*
X162362500Y-79054819D01*
X162362500Y-79054819D02*
X162124405Y-79054819D01*
X163029167Y-78054819D02*
X163695833Y-78054819D01*
X163695833Y-78054819D02*
X163267262Y-79054819D01*
%TO.C,R35*%
X157357142Y-83804819D02*
X157023809Y-83328628D01*
X156785714Y-83804819D02*
X156785714Y-82804819D01*
X156785714Y-82804819D02*
X157166666Y-82804819D01*
X157166666Y-82804819D02*
X157261904Y-82852438D01*
X157261904Y-82852438D02*
X157309523Y-82900057D01*
X157309523Y-82900057D02*
X157357142Y-82995295D01*
X157357142Y-82995295D02*
X157357142Y-83138152D01*
X157357142Y-83138152D02*
X157309523Y-83233390D01*
X157309523Y-83233390D02*
X157261904Y-83281009D01*
X157261904Y-83281009D02*
X157166666Y-83328628D01*
X157166666Y-83328628D02*
X156785714Y-83328628D01*
X157690476Y-82804819D02*
X158309523Y-82804819D01*
X158309523Y-82804819D02*
X157976190Y-83185771D01*
X157976190Y-83185771D02*
X158119047Y-83185771D01*
X158119047Y-83185771D02*
X158214285Y-83233390D01*
X158214285Y-83233390D02*
X158261904Y-83281009D01*
X158261904Y-83281009D02*
X158309523Y-83376247D01*
X158309523Y-83376247D02*
X158309523Y-83614342D01*
X158309523Y-83614342D02*
X158261904Y-83709580D01*
X158261904Y-83709580D02*
X158214285Y-83757200D01*
X158214285Y-83757200D02*
X158119047Y-83804819D01*
X158119047Y-83804819D02*
X157833333Y-83804819D01*
X157833333Y-83804819D02*
X157738095Y-83757200D01*
X157738095Y-83757200D02*
X157690476Y-83709580D01*
X159214285Y-82804819D02*
X158738095Y-82804819D01*
X158738095Y-82804819D02*
X158690476Y-83281009D01*
X158690476Y-83281009D02*
X158738095Y-83233390D01*
X158738095Y-83233390D02*
X158833333Y-83185771D01*
X158833333Y-83185771D02*
X159071428Y-83185771D01*
X159071428Y-83185771D02*
X159166666Y-83233390D01*
X159166666Y-83233390D02*
X159214285Y-83281009D01*
X159214285Y-83281009D02*
X159261904Y-83376247D01*
X159261904Y-83376247D02*
X159261904Y-83614342D01*
X159261904Y-83614342D02*
X159214285Y-83709580D01*
X159214285Y-83709580D02*
X159166666Y-83757200D01*
X159166666Y-83757200D02*
X159071428Y-83804819D01*
X159071428Y-83804819D02*
X158833333Y-83804819D01*
X158833333Y-83804819D02*
X158738095Y-83757200D01*
X158738095Y-83757200D02*
X158690476Y-83709580D01*
%TO.C,R19*%
X157357142Y-79704819D02*
X157023809Y-79228628D01*
X156785714Y-79704819D02*
X156785714Y-78704819D01*
X156785714Y-78704819D02*
X157166666Y-78704819D01*
X157166666Y-78704819D02*
X157261904Y-78752438D01*
X157261904Y-78752438D02*
X157309523Y-78800057D01*
X157309523Y-78800057D02*
X157357142Y-78895295D01*
X157357142Y-78895295D02*
X157357142Y-79038152D01*
X157357142Y-79038152D02*
X157309523Y-79133390D01*
X157309523Y-79133390D02*
X157261904Y-79181009D01*
X157261904Y-79181009D02*
X157166666Y-79228628D01*
X157166666Y-79228628D02*
X156785714Y-79228628D01*
X158309523Y-79704819D02*
X157738095Y-79704819D01*
X158023809Y-79704819D02*
X158023809Y-78704819D01*
X158023809Y-78704819D02*
X157928571Y-78847676D01*
X157928571Y-78847676D02*
X157833333Y-78942914D01*
X157833333Y-78942914D02*
X157738095Y-78990533D01*
X158785714Y-79704819D02*
X158976190Y-79704819D01*
X158976190Y-79704819D02*
X159071428Y-79657200D01*
X159071428Y-79657200D02*
X159119047Y-79609580D01*
X159119047Y-79609580D02*
X159214285Y-79466723D01*
X159214285Y-79466723D02*
X159261904Y-79276247D01*
X159261904Y-79276247D02*
X159261904Y-78895295D01*
X159261904Y-78895295D02*
X159214285Y-78800057D01*
X159214285Y-78800057D02*
X159166666Y-78752438D01*
X159166666Y-78752438D02*
X159071428Y-78704819D01*
X159071428Y-78704819D02*
X158880952Y-78704819D01*
X158880952Y-78704819D02*
X158785714Y-78752438D01*
X158785714Y-78752438D02*
X158738095Y-78800057D01*
X158738095Y-78800057D02*
X158690476Y-78895295D01*
X158690476Y-78895295D02*
X158690476Y-79133390D01*
X158690476Y-79133390D02*
X158738095Y-79228628D01*
X158738095Y-79228628D02*
X158785714Y-79276247D01*
X158785714Y-79276247D02*
X158880952Y-79323866D01*
X158880952Y-79323866D02*
X159071428Y-79323866D01*
X159071428Y-79323866D02*
X159166666Y-79276247D01*
X159166666Y-79276247D02*
X159214285Y-79228628D01*
X159214285Y-79228628D02*
X159261904Y-79133390D01*
%TO.C,R28*%
X197357142Y-83104819D02*
X197023809Y-82628628D01*
X196785714Y-83104819D02*
X196785714Y-82104819D01*
X196785714Y-82104819D02*
X197166666Y-82104819D01*
X197166666Y-82104819D02*
X197261904Y-82152438D01*
X197261904Y-82152438D02*
X197309523Y-82200057D01*
X197309523Y-82200057D02*
X197357142Y-82295295D01*
X197357142Y-82295295D02*
X197357142Y-82438152D01*
X197357142Y-82438152D02*
X197309523Y-82533390D01*
X197309523Y-82533390D02*
X197261904Y-82581009D01*
X197261904Y-82581009D02*
X197166666Y-82628628D01*
X197166666Y-82628628D02*
X196785714Y-82628628D01*
X197738095Y-82200057D02*
X197785714Y-82152438D01*
X197785714Y-82152438D02*
X197880952Y-82104819D01*
X197880952Y-82104819D02*
X198119047Y-82104819D01*
X198119047Y-82104819D02*
X198214285Y-82152438D01*
X198214285Y-82152438D02*
X198261904Y-82200057D01*
X198261904Y-82200057D02*
X198309523Y-82295295D01*
X198309523Y-82295295D02*
X198309523Y-82390533D01*
X198309523Y-82390533D02*
X198261904Y-82533390D01*
X198261904Y-82533390D02*
X197690476Y-83104819D01*
X197690476Y-83104819D02*
X198309523Y-83104819D01*
X198880952Y-82533390D02*
X198785714Y-82485771D01*
X198785714Y-82485771D02*
X198738095Y-82438152D01*
X198738095Y-82438152D02*
X198690476Y-82342914D01*
X198690476Y-82342914D02*
X198690476Y-82295295D01*
X198690476Y-82295295D02*
X198738095Y-82200057D01*
X198738095Y-82200057D02*
X198785714Y-82152438D01*
X198785714Y-82152438D02*
X198880952Y-82104819D01*
X198880952Y-82104819D02*
X199071428Y-82104819D01*
X199071428Y-82104819D02*
X199166666Y-82152438D01*
X199166666Y-82152438D02*
X199214285Y-82200057D01*
X199214285Y-82200057D02*
X199261904Y-82295295D01*
X199261904Y-82295295D02*
X199261904Y-82342914D01*
X199261904Y-82342914D02*
X199214285Y-82438152D01*
X199214285Y-82438152D02*
X199166666Y-82485771D01*
X199166666Y-82485771D02*
X199071428Y-82533390D01*
X199071428Y-82533390D02*
X198880952Y-82533390D01*
X198880952Y-82533390D02*
X198785714Y-82581009D01*
X198785714Y-82581009D02*
X198738095Y-82628628D01*
X198738095Y-82628628D02*
X198690476Y-82723866D01*
X198690476Y-82723866D02*
X198690476Y-82914342D01*
X198690476Y-82914342D02*
X198738095Y-83009580D01*
X198738095Y-83009580D02*
X198785714Y-83057200D01*
X198785714Y-83057200D02*
X198880952Y-83104819D01*
X198880952Y-83104819D02*
X199071428Y-83104819D01*
X199071428Y-83104819D02*
X199166666Y-83057200D01*
X199166666Y-83057200D02*
X199214285Y-83009580D01*
X199214285Y-83009580D02*
X199261904Y-82914342D01*
X199261904Y-82914342D02*
X199261904Y-82723866D01*
X199261904Y-82723866D02*
X199214285Y-82628628D01*
X199214285Y-82628628D02*
X199166666Y-82581009D01*
X199166666Y-82581009D02*
X199071428Y-82533390D01*
%TO.C,C10*%
X197559580Y-119667857D02*
X197607200Y-119715476D01*
X197607200Y-119715476D02*
X197654819Y-119858333D01*
X197654819Y-119858333D02*
X197654819Y-119953571D01*
X197654819Y-119953571D02*
X197607200Y-120096428D01*
X197607200Y-120096428D02*
X197511961Y-120191666D01*
X197511961Y-120191666D02*
X197416723Y-120239285D01*
X197416723Y-120239285D02*
X197226247Y-120286904D01*
X197226247Y-120286904D02*
X197083390Y-120286904D01*
X197083390Y-120286904D02*
X196892914Y-120239285D01*
X196892914Y-120239285D02*
X196797676Y-120191666D01*
X196797676Y-120191666D02*
X196702438Y-120096428D01*
X196702438Y-120096428D02*
X196654819Y-119953571D01*
X196654819Y-119953571D02*
X196654819Y-119858333D01*
X196654819Y-119858333D02*
X196702438Y-119715476D01*
X196702438Y-119715476D02*
X196750057Y-119667857D01*
X197654819Y-118715476D02*
X197654819Y-119286904D01*
X197654819Y-119001190D02*
X196654819Y-119001190D01*
X196654819Y-119001190D02*
X196797676Y-119096428D01*
X196797676Y-119096428D02*
X196892914Y-119191666D01*
X196892914Y-119191666D02*
X196940533Y-119286904D01*
X196654819Y-118096428D02*
X196654819Y-118001190D01*
X196654819Y-118001190D02*
X196702438Y-117905952D01*
X196702438Y-117905952D02*
X196750057Y-117858333D01*
X196750057Y-117858333D02*
X196845295Y-117810714D01*
X196845295Y-117810714D02*
X197035771Y-117763095D01*
X197035771Y-117763095D02*
X197273866Y-117763095D01*
X197273866Y-117763095D02*
X197464342Y-117810714D01*
X197464342Y-117810714D02*
X197559580Y-117858333D01*
X197559580Y-117858333D02*
X197607200Y-117905952D01*
X197607200Y-117905952D02*
X197654819Y-118001190D01*
X197654819Y-118001190D02*
X197654819Y-118096428D01*
X197654819Y-118096428D02*
X197607200Y-118191666D01*
X197607200Y-118191666D02*
X197559580Y-118239285D01*
X197559580Y-118239285D02*
X197464342Y-118286904D01*
X197464342Y-118286904D02*
X197273866Y-118334523D01*
X197273866Y-118334523D02*
X197035771Y-118334523D01*
X197035771Y-118334523D02*
X196845295Y-118286904D01*
X196845295Y-118286904D02*
X196750057Y-118239285D01*
X196750057Y-118239285D02*
X196702438Y-118191666D01*
X196702438Y-118191666D02*
X196654819Y-118096428D01*
%TO.C,C7*%
X195179580Y-111716666D02*
X195227200Y-111764285D01*
X195227200Y-111764285D02*
X195274819Y-111907142D01*
X195274819Y-111907142D02*
X195274819Y-112002380D01*
X195274819Y-112002380D02*
X195227200Y-112145237D01*
X195227200Y-112145237D02*
X195131961Y-112240475D01*
X195131961Y-112240475D02*
X195036723Y-112288094D01*
X195036723Y-112288094D02*
X194846247Y-112335713D01*
X194846247Y-112335713D02*
X194703390Y-112335713D01*
X194703390Y-112335713D02*
X194512914Y-112288094D01*
X194512914Y-112288094D02*
X194417676Y-112240475D01*
X194417676Y-112240475D02*
X194322438Y-112145237D01*
X194322438Y-112145237D02*
X194274819Y-112002380D01*
X194274819Y-112002380D02*
X194274819Y-111907142D01*
X194274819Y-111907142D02*
X194322438Y-111764285D01*
X194322438Y-111764285D02*
X194370057Y-111716666D01*
X194274819Y-111383332D02*
X194274819Y-110716666D01*
X194274819Y-110716666D02*
X195274819Y-111145237D01*
%TO.C,R16*%
X178104819Y-93442857D02*
X177628628Y-93776190D01*
X178104819Y-94014285D02*
X177104819Y-94014285D01*
X177104819Y-94014285D02*
X177104819Y-93633333D01*
X177104819Y-93633333D02*
X177152438Y-93538095D01*
X177152438Y-93538095D02*
X177200057Y-93490476D01*
X177200057Y-93490476D02*
X177295295Y-93442857D01*
X177295295Y-93442857D02*
X177438152Y-93442857D01*
X177438152Y-93442857D02*
X177533390Y-93490476D01*
X177533390Y-93490476D02*
X177581009Y-93538095D01*
X177581009Y-93538095D02*
X177628628Y-93633333D01*
X177628628Y-93633333D02*
X177628628Y-94014285D01*
X178104819Y-92490476D02*
X178104819Y-93061904D01*
X178104819Y-92776190D02*
X177104819Y-92776190D01*
X177104819Y-92776190D02*
X177247676Y-92871428D01*
X177247676Y-92871428D02*
X177342914Y-92966666D01*
X177342914Y-92966666D02*
X177390533Y-93061904D01*
X177104819Y-91633333D02*
X177104819Y-91823809D01*
X177104819Y-91823809D02*
X177152438Y-91919047D01*
X177152438Y-91919047D02*
X177200057Y-91966666D01*
X177200057Y-91966666D02*
X177342914Y-92061904D01*
X177342914Y-92061904D02*
X177533390Y-92109523D01*
X177533390Y-92109523D02*
X177914342Y-92109523D01*
X177914342Y-92109523D02*
X178009580Y-92061904D01*
X178009580Y-92061904D02*
X178057200Y-92014285D01*
X178057200Y-92014285D02*
X178104819Y-91919047D01*
X178104819Y-91919047D02*
X178104819Y-91728571D01*
X178104819Y-91728571D02*
X178057200Y-91633333D01*
X178057200Y-91633333D02*
X178009580Y-91585714D01*
X178009580Y-91585714D02*
X177914342Y-91538095D01*
X177914342Y-91538095D02*
X177676247Y-91538095D01*
X177676247Y-91538095D02*
X177581009Y-91585714D01*
X177581009Y-91585714D02*
X177533390Y-91633333D01*
X177533390Y-91633333D02*
X177485771Y-91728571D01*
X177485771Y-91728571D02*
X177485771Y-91919047D01*
X177485771Y-91919047D02*
X177533390Y-92014285D01*
X177533390Y-92014285D02*
X177581009Y-92061904D01*
X177581009Y-92061904D02*
X177676247Y-92109523D01*
%TO.C,J12*%
X151590476Y-93644819D02*
X151590476Y-94359104D01*
X151590476Y-94359104D02*
X151542857Y-94501961D01*
X151542857Y-94501961D02*
X151447619Y-94597200D01*
X151447619Y-94597200D02*
X151304762Y-94644819D01*
X151304762Y-94644819D02*
X151209524Y-94644819D01*
X152590476Y-94644819D02*
X152019048Y-94644819D01*
X152304762Y-94644819D02*
X152304762Y-93644819D01*
X152304762Y-93644819D02*
X152209524Y-93787676D01*
X152209524Y-93787676D02*
X152114286Y-93882914D01*
X152114286Y-93882914D02*
X152019048Y-93930533D01*
X152971429Y-93740057D02*
X153019048Y-93692438D01*
X153019048Y-93692438D02*
X153114286Y-93644819D01*
X153114286Y-93644819D02*
X153352381Y-93644819D01*
X153352381Y-93644819D02*
X153447619Y-93692438D01*
X153447619Y-93692438D02*
X153495238Y-93740057D01*
X153495238Y-93740057D02*
X153542857Y-93835295D01*
X153542857Y-93835295D02*
X153542857Y-93930533D01*
X153542857Y-93930533D02*
X153495238Y-94073390D01*
X153495238Y-94073390D02*
X152923810Y-94644819D01*
X152923810Y-94644819D02*
X153542857Y-94644819D01*
%TO.C,R3*%
X170804819Y-81966666D02*
X170328628Y-82299999D01*
X170804819Y-82538094D02*
X169804819Y-82538094D01*
X169804819Y-82538094D02*
X169804819Y-82157142D01*
X169804819Y-82157142D02*
X169852438Y-82061904D01*
X169852438Y-82061904D02*
X169900057Y-82014285D01*
X169900057Y-82014285D02*
X169995295Y-81966666D01*
X169995295Y-81966666D02*
X170138152Y-81966666D01*
X170138152Y-81966666D02*
X170233390Y-82014285D01*
X170233390Y-82014285D02*
X170281009Y-82061904D01*
X170281009Y-82061904D02*
X170328628Y-82157142D01*
X170328628Y-82157142D02*
X170328628Y-82538094D01*
X169804819Y-81633332D02*
X169804819Y-81014285D01*
X169804819Y-81014285D02*
X170185771Y-81347618D01*
X170185771Y-81347618D02*
X170185771Y-81204761D01*
X170185771Y-81204761D02*
X170233390Y-81109523D01*
X170233390Y-81109523D02*
X170281009Y-81061904D01*
X170281009Y-81061904D02*
X170376247Y-81014285D01*
X170376247Y-81014285D02*
X170614342Y-81014285D01*
X170614342Y-81014285D02*
X170709580Y-81061904D01*
X170709580Y-81061904D02*
X170757200Y-81109523D01*
X170757200Y-81109523D02*
X170804819Y-81204761D01*
X170804819Y-81204761D02*
X170804819Y-81490475D01*
X170804819Y-81490475D02*
X170757200Y-81585713D01*
X170757200Y-81585713D02*
X170709580Y-81633332D01*
%TO.C,R11*%
X150357142Y-56954819D02*
X150023809Y-56478628D01*
X149785714Y-56954819D02*
X149785714Y-55954819D01*
X149785714Y-55954819D02*
X150166666Y-55954819D01*
X150166666Y-55954819D02*
X150261904Y-56002438D01*
X150261904Y-56002438D02*
X150309523Y-56050057D01*
X150309523Y-56050057D02*
X150357142Y-56145295D01*
X150357142Y-56145295D02*
X150357142Y-56288152D01*
X150357142Y-56288152D02*
X150309523Y-56383390D01*
X150309523Y-56383390D02*
X150261904Y-56431009D01*
X150261904Y-56431009D02*
X150166666Y-56478628D01*
X150166666Y-56478628D02*
X149785714Y-56478628D01*
X151309523Y-56954819D02*
X150738095Y-56954819D01*
X151023809Y-56954819D02*
X151023809Y-55954819D01*
X151023809Y-55954819D02*
X150928571Y-56097676D01*
X150928571Y-56097676D02*
X150833333Y-56192914D01*
X150833333Y-56192914D02*
X150738095Y-56240533D01*
X152261904Y-56954819D02*
X151690476Y-56954819D01*
X151976190Y-56954819D02*
X151976190Y-55954819D01*
X151976190Y-55954819D02*
X151880952Y-56097676D01*
X151880952Y-56097676D02*
X151785714Y-56192914D01*
X151785714Y-56192914D02*
X151690476Y-56240533D01*
%TO.C,FB5*%
X172916666Y-108181009D02*
X172583333Y-108181009D01*
X172583333Y-108704819D02*
X172583333Y-107704819D01*
X172583333Y-107704819D02*
X173059523Y-107704819D01*
X173773809Y-108181009D02*
X173916666Y-108228628D01*
X173916666Y-108228628D02*
X173964285Y-108276247D01*
X173964285Y-108276247D02*
X174011904Y-108371485D01*
X174011904Y-108371485D02*
X174011904Y-108514342D01*
X174011904Y-108514342D02*
X173964285Y-108609580D01*
X173964285Y-108609580D02*
X173916666Y-108657200D01*
X173916666Y-108657200D02*
X173821428Y-108704819D01*
X173821428Y-108704819D02*
X173440476Y-108704819D01*
X173440476Y-108704819D02*
X173440476Y-107704819D01*
X173440476Y-107704819D02*
X173773809Y-107704819D01*
X173773809Y-107704819D02*
X173869047Y-107752438D01*
X173869047Y-107752438D02*
X173916666Y-107800057D01*
X173916666Y-107800057D02*
X173964285Y-107895295D01*
X173964285Y-107895295D02*
X173964285Y-107990533D01*
X173964285Y-107990533D02*
X173916666Y-108085771D01*
X173916666Y-108085771D02*
X173869047Y-108133390D01*
X173869047Y-108133390D02*
X173773809Y-108181009D01*
X173773809Y-108181009D02*
X173440476Y-108181009D01*
X174916666Y-107704819D02*
X174440476Y-107704819D01*
X174440476Y-107704819D02*
X174392857Y-108181009D01*
X174392857Y-108181009D02*
X174440476Y-108133390D01*
X174440476Y-108133390D02*
X174535714Y-108085771D01*
X174535714Y-108085771D02*
X174773809Y-108085771D01*
X174773809Y-108085771D02*
X174869047Y-108133390D01*
X174869047Y-108133390D02*
X174916666Y-108181009D01*
X174916666Y-108181009D02*
X174964285Y-108276247D01*
X174964285Y-108276247D02*
X174964285Y-108514342D01*
X174964285Y-108514342D02*
X174916666Y-108609580D01*
X174916666Y-108609580D02*
X174869047Y-108657200D01*
X174869047Y-108657200D02*
X174773809Y-108704819D01*
X174773809Y-108704819D02*
X174535714Y-108704819D01*
X174535714Y-108704819D02*
X174440476Y-108657200D01*
X174440476Y-108657200D02*
X174392857Y-108609580D01*
%TO.C,C4*%
X187383333Y-72179580D02*
X187335714Y-72227200D01*
X187335714Y-72227200D02*
X187192857Y-72274819D01*
X187192857Y-72274819D02*
X187097619Y-72274819D01*
X187097619Y-72274819D02*
X186954762Y-72227200D01*
X186954762Y-72227200D02*
X186859524Y-72131961D01*
X186859524Y-72131961D02*
X186811905Y-72036723D01*
X186811905Y-72036723D02*
X186764286Y-71846247D01*
X186764286Y-71846247D02*
X186764286Y-71703390D01*
X186764286Y-71703390D02*
X186811905Y-71512914D01*
X186811905Y-71512914D02*
X186859524Y-71417676D01*
X186859524Y-71417676D02*
X186954762Y-71322438D01*
X186954762Y-71322438D02*
X187097619Y-71274819D01*
X187097619Y-71274819D02*
X187192857Y-71274819D01*
X187192857Y-71274819D02*
X187335714Y-71322438D01*
X187335714Y-71322438D02*
X187383333Y-71370057D01*
X188240476Y-71608152D02*
X188240476Y-72274819D01*
X188002381Y-71227200D02*
X187764286Y-71941485D01*
X187764286Y-71941485D02*
X188383333Y-71941485D01*
%TO.C,FB6*%
X171936009Y-103895833D02*
X171936009Y-104229166D01*
X172459819Y-104229166D02*
X171459819Y-104229166D01*
X171459819Y-104229166D02*
X171459819Y-103752976D01*
X171936009Y-103038690D02*
X171983628Y-102895833D01*
X171983628Y-102895833D02*
X172031247Y-102848214D01*
X172031247Y-102848214D02*
X172126485Y-102800595D01*
X172126485Y-102800595D02*
X172269342Y-102800595D01*
X172269342Y-102800595D02*
X172364580Y-102848214D01*
X172364580Y-102848214D02*
X172412200Y-102895833D01*
X172412200Y-102895833D02*
X172459819Y-102991071D01*
X172459819Y-102991071D02*
X172459819Y-103372023D01*
X172459819Y-103372023D02*
X171459819Y-103372023D01*
X171459819Y-103372023D02*
X171459819Y-103038690D01*
X171459819Y-103038690D02*
X171507438Y-102943452D01*
X171507438Y-102943452D02*
X171555057Y-102895833D01*
X171555057Y-102895833D02*
X171650295Y-102848214D01*
X171650295Y-102848214D02*
X171745533Y-102848214D01*
X171745533Y-102848214D02*
X171840771Y-102895833D01*
X171840771Y-102895833D02*
X171888390Y-102943452D01*
X171888390Y-102943452D02*
X171936009Y-103038690D01*
X171936009Y-103038690D02*
X171936009Y-103372023D01*
X171459819Y-101943452D02*
X171459819Y-102133928D01*
X171459819Y-102133928D02*
X171507438Y-102229166D01*
X171507438Y-102229166D02*
X171555057Y-102276785D01*
X171555057Y-102276785D02*
X171697914Y-102372023D01*
X171697914Y-102372023D02*
X171888390Y-102419642D01*
X171888390Y-102419642D02*
X172269342Y-102419642D01*
X172269342Y-102419642D02*
X172364580Y-102372023D01*
X172364580Y-102372023D02*
X172412200Y-102324404D01*
X172412200Y-102324404D02*
X172459819Y-102229166D01*
X172459819Y-102229166D02*
X172459819Y-102038690D01*
X172459819Y-102038690D02*
X172412200Y-101943452D01*
X172412200Y-101943452D02*
X172364580Y-101895833D01*
X172364580Y-101895833D02*
X172269342Y-101848214D01*
X172269342Y-101848214D02*
X172031247Y-101848214D01*
X172031247Y-101848214D02*
X171936009Y-101895833D01*
X171936009Y-101895833D02*
X171888390Y-101943452D01*
X171888390Y-101943452D02*
X171840771Y-102038690D01*
X171840771Y-102038690D02*
X171840771Y-102229166D01*
X171840771Y-102229166D02*
X171888390Y-102324404D01*
X171888390Y-102324404D02*
X171936009Y-102372023D01*
X171936009Y-102372023D02*
X172031247Y-102419642D01*
%TO.C,R24*%
X197357142Y-101204819D02*
X197023809Y-100728628D01*
X196785714Y-101204819D02*
X196785714Y-100204819D01*
X196785714Y-100204819D02*
X197166666Y-100204819D01*
X197166666Y-100204819D02*
X197261904Y-100252438D01*
X197261904Y-100252438D02*
X197309523Y-100300057D01*
X197309523Y-100300057D02*
X197357142Y-100395295D01*
X197357142Y-100395295D02*
X197357142Y-100538152D01*
X197357142Y-100538152D02*
X197309523Y-100633390D01*
X197309523Y-100633390D02*
X197261904Y-100681009D01*
X197261904Y-100681009D02*
X197166666Y-100728628D01*
X197166666Y-100728628D02*
X196785714Y-100728628D01*
X197738095Y-100300057D02*
X197785714Y-100252438D01*
X197785714Y-100252438D02*
X197880952Y-100204819D01*
X197880952Y-100204819D02*
X198119047Y-100204819D01*
X198119047Y-100204819D02*
X198214285Y-100252438D01*
X198214285Y-100252438D02*
X198261904Y-100300057D01*
X198261904Y-100300057D02*
X198309523Y-100395295D01*
X198309523Y-100395295D02*
X198309523Y-100490533D01*
X198309523Y-100490533D02*
X198261904Y-100633390D01*
X198261904Y-100633390D02*
X197690476Y-101204819D01*
X197690476Y-101204819D02*
X198309523Y-101204819D01*
X199166666Y-100538152D02*
X199166666Y-101204819D01*
X198928571Y-100157200D02*
X198690476Y-100871485D01*
X198690476Y-100871485D02*
X199309523Y-100871485D01*
%TO.C,J6*%
X166884819Y-51133333D02*
X167599104Y-51133333D01*
X167599104Y-51133333D02*
X167741961Y-51180952D01*
X167741961Y-51180952D02*
X167837200Y-51276190D01*
X167837200Y-51276190D02*
X167884819Y-51419047D01*
X167884819Y-51419047D02*
X167884819Y-51514285D01*
X166884819Y-50228571D02*
X166884819Y-50419047D01*
X166884819Y-50419047D02*
X166932438Y-50514285D01*
X166932438Y-50514285D02*
X166980057Y-50561904D01*
X166980057Y-50561904D02*
X167122914Y-50657142D01*
X167122914Y-50657142D02*
X167313390Y-50704761D01*
X167313390Y-50704761D02*
X167694342Y-50704761D01*
X167694342Y-50704761D02*
X167789580Y-50657142D01*
X167789580Y-50657142D02*
X167837200Y-50609523D01*
X167837200Y-50609523D02*
X167884819Y-50514285D01*
X167884819Y-50514285D02*
X167884819Y-50323809D01*
X167884819Y-50323809D02*
X167837200Y-50228571D01*
X167837200Y-50228571D02*
X167789580Y-50180952D01*
X167789580Y-50180952D02*
X167694342Y-50133333D01*
X167694342Y-50133333D02*
X167456247Y-50133333D01*
X167456247Y-50133333D02*
X167361009Y-50180952D01*
X167361009Y-50180952D02*
X167313390Y-50228571D01*
X167313390Y-50228571D02*
X167265771Y-50323809D01*
X167265771Y-50323809D02*
X167265771Y-50514285D01*
X167265771Y-50514285D02*
X167313390Y-50609523D01*
X167313390Y-50609523D02*
X167361009Y-50657142D01*
X167361009Y-50657142D02*
X167456247Y-50704761D01*
%TO.C,J13*%
X202390476Y-102114819D02*
X202390476Y-102829104D01*
X202390476Y-102829104D02*
X202342857Y-102971961D01*
X202342857Y-102971961D02*
X202247619Y-103067200D01*
X202247619Y-103067200D02*
X202104762Y-103114819D01*
X202104762Y-103114819D02*
X202009524Y-103114819D01*
X203390476Y-103114819D02*
X202819048Y-103114819D01*
X203104762Y-103114819D02*
X203104762Y-102114819D01*
X203104762Y-102114819D02*
X203009524Y-102257676D01*
X203009524Y-102257676D02*
X202914286Y-102352914D01*
X202914286Y-102352914D02*
X202819048Y-102400533D01*
X203723810Y-102114819D02*
X204342857Y-102114819D01*
X204342857Y-102114819D02*
X204009524Y-102495771D01*
X204009524Y-102495771D02*
X204152381Y-102495771D01*
X204152381Y-102495771D02*
X204247619Y-102543390D01*
X204247619Y-102543390D02*
X204295238Y-102591009D01*
X204295238Y-102591009D02*
X204342857Y-102686247D01*
X204342857Y-102686247D02*
X204342857Y-102924342D01*
X204342857Y-102924342D02*
X204295238Y-103019580D01*
X204295238Y-103019580D02*
X204247619Y-103067200D01*
X204247619Y-103067200D02*
X204152381Y-103114819D01*
X204152381Y-103114819D02*
X203866667Y-103114819D01*
X203866667Y-103114819D02*
X203771429Y-103067200D01*
X203771429Y-103067200D02*
X203723810Y-103019580D01*
%TO.C,R30*%
X171304819Y-90942857D02*
X170828628Y-91276190D01*
X171304819Y-91514285D02*
X170304819Y-91514285D01*
X170304819Y-91514285D02*
X170304819Y-91133333D01*
X170304819Y-91133333D02*
X170352438Y-91038095D01*
X170352438Y-91038095D02*
X170400057Y-90990476D01*
X170400057Y-90990476D02*
X170495295Y-90942857D01*
X170495295Y-90942857D02*
X170638152Y-90942857D01*
X170638152Y-90942857D02*
X170733390Y-90990476D01*
X170733390Y-90990476D02*
X170781009Y-91038095D01*
X170781009Y-91038095D02*
X170828628Y-91133333D01*
X170828628Y-91133333D02*
X170828628Y-91514285D01*
X170304819Y-90609523D02*
X170304819Y-89990476D01*
X170304819Y-89990476D02*
X170685771Y-90323809D01*
X170685771Y-90323809D02*
X170685771Y-90180952D01*
X170685771Y-90180952D02*
X170733390Y-90085714D01*
X170733390Y-90085714D02*
X170781009Y-90038095D01*
X170781009Y-90038095D02*
X170876247Y-89990476D01*
X170876247Y-89990476D02*
X171114342Y-89990476D01*
X171114342Y-89990476D02*
X171209580Y-90038095D01*
X171209580Y-90038095D02*
X171257200Y-90085714D01*
X171257200Y-90085714D02*
X171304819Y-90180952D01*
X171304819Y-90180952D02*
X171304819Y-90466666D01*
X171304819Y-90466666D02*
X171257200Y-90561904D01*
X171257200Y-90561904D02*
X171209580Y-90609523D01*
X170304819Y-89371428D02*
X170304819Y-89276190D01*
X170304819Y-89276190D02*
X170352438Y-89180952D01*
X170352438Y-89180952D02*
X170400057Y-89133333D01*
X170400057Y-89133333D02*
X170495295Y-89085714D01*
X170495295Y-89085714D02*
X170685771Y-89038095D01*
X170685771Y-89038095D02*
X170923866Y-89038095D01*
X170923866Y-89038095D02*
X171114342Y-89085714D01*
X171114342Y-89085714D02*
X171209580Y-89133333D01*
X171209580Y-89133333D02*
X171257200Y-89180952D01*
X171257200Y-89180952D02*
X171304819Y-89276190D01*
X171304819Y-89276190D02*
X171304819Y-89371428D01*
X171304819Y-89371428D02*
X171257200Y-89466666D01*
X171257200Y-89466666D02*
X171209580Y-89514285D01*
X171209580Y-89514285D02*
X171114342Y-89561904D01*
X171114342Y-89561904D02*
X170923866Y-89609523D01*
X170923866Y-89609523D02*
X170685771Y-89609523D01*
X170685771Y-89609523D02*
X170495295Y-89561904D01*
X170495295Y-89561904D02*
X170400057Y-89514285D01*
X170400057Y-89514285D02*
X170352438Y-89466666D01*
X170352438Y-89466666D02*
X170304819Y-89371428D01*
%TO.C,D4*%
X164804819Y-65738094D02*
X163804819Y-65738094D01*
X163804819Y-65738094D02*
X163804819Y-65499999D01*
X163804819Y-65499999D02*
X163852438Y-65357142D01*
X163852438Y-65357142D02*
X163947676Y-65261904D01*
X163947676Y-65261904D02*
X164042914Y-65214285D01*
X164042914Y-65214285D02*
X164233390Y-65166666D01*
X164233390Y-65166666D02*
X164376247Y-65166666D01*
X164376247Y-65166666D02*
X164566723Y-65214285D01*
X164566723Y-65214285D02*
X164661961Y-65261904D01*
X164661961Y-65261904D02*
X164757200Y-65357142D01*
X164757200Y-65357142D02*
X164804819Y-65499999D01*
X164804819Y-65499999D02*
X164804819Y-65738094D01*
X164138152Y-64309523D02*
X164804819Y-64309523D01*
X163757200Y-64547618D02*
X164471485Y-64785713D01*
X164471485Y-64785713D02*
X164471485Y-64166666D01*
%TO.C,R5*%
X194745833Y-68104819D02*
X194412500Y-67628628D01*
X194174405Y-68104819D02*
X194174405Y-67104819D01*
X194174405Y-67104819D02*
X194555357Y-67104819D01*
X194555357Y-67104819D02*
X194650595Y-67152438D01*
X194650595Y-67152438D02*
X194698214Y-67200057D01*
X194698214Y-67200057D02*
X194745833Y-67295295D01*
X194745833Y-67295295D02*
X194745833Y-67438152D01*
X194745833Y-67438152D02*
X194698214Y-67533390D01*
X194698214Y-67533390D02*
X194650595Y-67581009D01*
X194650595Y-67581009D02*
X194555357Y-67628628D01*
X194555357Y-67628628D02*
X194174405Y-67628628D01*
X195650595Y-67104819D02*
X195174405Y-67104819D01*
X195174405Y-67104819D02*
X195126786Y-67581009D01*
X195126786Y-67581009D02*
X195174405Y-67533390D01*
X195174405Y-67533390D02*
X195269643Y-67485771D01*
X195269643Y-67485771D02*
X195507738Y-67485771D01*
X195507738Y-67485771D02*
X195602976Y-67533390D01*
X195602976Y-67533390D02*
X195650595Y-67581009D01*
X195650595Y-67581009D02*
X195698214Y-67676247D01*
X195698214Y-67676247D02*
X195698214Y-67914342D01*
X195698214Y-67914342D02*
X195650595Y-68009580D01*
X195650595Y-68009580D02*
X195602976Y-68057200D01*
X195602976Y-68057200D02*
X195507738Y-68104819D01*
X195507738Y-68104819D02*
X195269643Y-68104819D01*
X195269643Y-68104819D02*
X195174405Y-68057200D01*
X195174405Y-68057200D02*
X195126786Y-68009580D01*
%TO.C,D8*%
X162399405Y-100004819D02*
X162399405Y-99004819D01*
X162399405Y-99004819D02*
X162637500Y-99004819D01*
X162637500Y-99004819D02*
X162780357Y-99052438D01*
X162780357Y-99052438D02*
X162875595Y-99147676D01*
X162875595Y-99147676D02*
X162923214Y-99242914D01*
X162923214Y-99242914D02*
X162970833Y-99433390D01*
X162970833Y-99433390D02*
X162970833Y-99576247D01*
X162970833Y-99576247D02*
X162923214Y-99766723D01*
X162923214Y-99766723D02*
X162875595Y-99861961D01*
X162875595Y-99861961D02*
X162780357Y-99957200D01*
X162780357Y-99957200D02*
X162637500Y-100004819D01*
X162637500Y-100004819D02*
X162399405Y-100004819D01*
X163542262Y-99433390D02*
X163447024Y-99385771D01*
X163447024Y-99385771D02*
X163399405Y-99338152D01*
X163399405Y-99338152D02*
X163351786Y-99242914D01*
X163351786Y-99242914D02*
X163351786Y-99195295D01*
X163351786Y-99195295D02*
X163399405Y-99100057D01*
X163399405Y-99100057D02*
X163447024Y-99052438D01*
X163447024Y-99052438D02*
X163542262Y-99004819D01*
X163542262Y-99004819D02*
X163732738Y-99004819D01*
X163732738Y-99004819D02*
X163827976Y-99052438D01*
X163827976Y-99052438D02*
X163875595Y-99100057D01*
X163875595Y-99100057D02*
X163923214Y-99195295D01*
X163923214Y-99195295D02*
X163923214Y-99242914D01*
X163923214Y-99242914D02*
X163875595Y-99338152D01*
X163875595Y-99338152D02*
X163827976Y-99385771D01*
X163827976Y-99385771D02*
X163732738Y-99433390D01*
X163732738Y-99433390D02*
X163542262Y-99433390D01*
X163542262Y-99433390D02*
X163447024Y-99481009D01*
X163447024Y-99481009D02*
X163399405Y-99528628D01*
X163399405Y-99528628D02*
X163351786Y-99623866D01*
X163351786Y-99623866D02*
X163351786Y-99814342D01*
X163351786Y-99814342D02*
X163399405Y-99909580D01*
X163399405Y-99909580D02*
X163447024Y-99957200D01*
X163447024Y-99957200D02*
X163542262Y-100004819D01*
X163542262Y-100004819D02*
X163732738Y-100004819D01*
X163732738Y-100004819D02*
X163827976Y-99957200D01*
X163827976Y-99957200D02*
X163875595Y-99909580D01*
X163875595Y-99909580D02*
X163923214Y-99814342D01*
X163923214Y-99814342D02*
X163923214Y-99623866D01*
X163923214Y-99623866D02*
X163875595Y-99528628D01*
X163875595Y-99528628D02*
X163827976Y-99481009D01*
X163827976Y-99481009D02*
X163732738Y-99433390D01*
%TO.C,C14*%
X181609580Y-94392857D02*
X181657200Y-94440476D01*
X181657200Y-94440476D02*
X181704819Y-94583333D01*
X181704819Y-94583333D02*
X181704819Y-94678571D01*
X181704819Y-94678571D02*
X181657200Y-94821428D01*
X181657200Y-94821428D02*
X181561961Y-94916666D01*
X181561961Y-94916666D02*
X181466723Y-94964285D01*
X181466723Y-94964285D02*
X181276247Y-95011904D01*
X181276247Y-95011904D02*
X181133390Y-95011904D01*
X181133390Y-95011904D02*
X180942914Y-94964285D01*
X180942914Y-94964285D02*
X180847676Y-94916666D01*
X180847676Y-94916666D02*
X180752438Y-94821428D01*
X180752438Y-94821428D02*
X180704819Y-94678571D01*
X180704819Y-94678571D02*
X180704819Y-94583333D01*
X180704819Y-94583333D02*
X180752438Y-94440476D01*
X180752438Y-94440476D02*
X180800057Y-94392857D01*
X181704819Y-93440476D02*
X181704819Y-94011904D01*
X181704819Y-93726190D02*
X180704819Y-93726190D01*
X180704819Y-93726190D02*
X180847676Y-93821428D01*
X180847676Y-93821428D02*
X180942914Y-93916666D01*
X180942914Y-93916666D02*
X180990533Y-94011904D01*
X181038152Y-92583333D02*
X181704819Y-92583333D01*
X180657200Y-92821428D02*
X181371485Y-93059523D01*
X181371485Y-93059523D02*
X181371485Y-92440476D01*
%TO.C,C16*%
X162357142Y-75679580D02*
X162309523Y-75727200D01*
X162309523Y-75727200D02*
X162166666Y-75774819D01*
X162166666Y-75774819D02*
X162071428Y-75774819D01*
X162071428Y-75774819D02*
X161928571Y-75727200D01*
X161928571Y-75727200D02*
X161833333Y-75631961D01*
X161833333Y-75631961D02*
X161785714Y-75536723D01*
X161785714Y-75536723D02*
X161738095Y-75346247D01*
X161738095Y-75346247D02*
X161738095Y-75203390D01*
X161738095Y-75203390D02*
X161785714Y-75012914D01*
X161785714Y-75012914D02*
X161833333Y-74917676D01*
X161833333Y-74917676D02*
X161928571Y-74822438D01*
X161928571Y-74822438D02*
X162071428Y-74774819D01*
X162071428Y-74774819D02*
X162166666Y-74774819D01*
X162166666Y-74774819D02*
X162309523Y-74822438D01*
X162309523Y-74822438D02*
X162357142Y-74870057D01*
X163309523Y-75774819D02*
X162738095Y-75774819D01*
X163023809Y-75774819D02*
X163023809Y-74774819D01*
X163023809Y-74774819D02*
X162928571Y-74917676D01*
X162928571Y-74917676D02*
X162833333Y-75012914D01*
X162833333Y-75012914D02*
X162738095Y-75060533D01*
X164166666Y-74774819D02*
X163976190Y-74774819D01*
X163976190Y-74774819D02*
X163880952Y-74822438D01*
X163880952Y-74822438D02*
X163833333Y-74870057D01*
X163833333Y-74870057D02*
X163738095Y-75012914D01*
X163738095Y-75012914D02*
X163690476Y-75203390D01*
X163690476Y-75203390D02*
X163690476Y-75584342D01*
X163690476Y-75584342D02*
X163738095Y-75679580D01*
X163738095Y-75679580D02*
X163785714Y-75727200D01*
X163785714Y-75727200D02*
X163880952Y-75774819D01*
X163880952Y-75774819D02*
X164071428Y-75774819D01*
X164071428Y-75774819D02*
X164166666Y-75727200D01*
X164166666Y-75727200D02*
X164214285Y-75679580D01*
X164214285Y-75679580D02*
X164261904Y-75584342D01*
X164261904Y-75584342D02*
X164261904Y-75346247D01*
X164261904Y-75346247D02*
X164214285Y-75251009D01*
X164214285Y-75251009D02*
X164166666Y-75203390D01*
X164166666Y-75203390D02*
X164071428Y-75155771D01*
X164071428Y-75155771D02*
X163880952Y-75155771D01*
X163880952Y-75155771D02*
X163785714Y-75203390D01*
X163785714Y-75203390D02*
X163738095Y-75251009D01*
X163738095Y-75251009D02*
X163690476Y-75346247D01*
%TO.C,J4*%
X202866666Y-116304819D02*
X202866666Y-117019104D01*
X202866666Y-117019104D02*
X202819047Y-117161961D01*
X202819047Y-117161961D02*
X202723809Y-117257200D01*
X202723809Y-117257200D02*
X202580952Y-117304819D01*
X202580952Y-117304819D02*
X202485714Y-117304819D01*
X203771428Y-116638152D02*
X203771428Y-117304819D01*
X203533333Y-116257200D02*
X203295238Y-116971485D01*
X203295238Y-116971485D02*
X203914285Y-116971485D01*
%TO.C,C21*%
X195357142Y-93609580D02*
X195309523Y-93657200D01*
X195309523Y-93657200D02*
X195166666Y-93704819D01*
X195166666Y-93704819D02*
X195071428Y-93704819D01*
X195071428Y-93704819D02*
X194928571Y-93657200D01*
X194928571Y-93657200D02*
X194833333Y-93561961D01*
X194833333Y-93561961D02*
X194785714Y-93466723D01*
X194785714Y-93466723D02*
X194738095Y-93276247D01*
X194738095Y-93276247D02*
X194738095Y-93133390D01*
X194738095Y-93133390D02*
X194785714Y-92942914D01*
X194785714Y-92942914D02*
X194833333Y-92847676D01*
X194833333Y-92847676D02*
X194928571Y-92752438D01*
X194928571Y-92752438D02*
X195071428Y-92704819D01*
X195071428Y-92704819D02*
X195166666Y-92704819D01*
X195166666Y-92704819D02*
X195309523Y-92752438D01*
X195309523Y-92752438D02*
X195357142Y-92800057D01*
X195738095Y-92800057D02*
X195785714Y-92752438D01*
X195785714Y-92752438D02*
X195880952Y-92704819D01*
X195880952Y-92704819D02*
X196119047Y-92704819D01*
X196119047Y-92704819D02*
X196214285Y-92752438D01*
X196214285Y-92752438D02*
X196261904Y-92800057D01*
X196261904Y-92800057D02*
X196309523Y-92895295D01*
X196309523Y-92895295D02*
X196309523Y-92990533D01*
X196309523Y-92990533D02*
X196261904Y-93133390D01*
X196261904Y-93133390D02*
X195690476Y-93704819D01*
X195690476Y-93704819D02*
X196309523Y-93704819D01*
X197261904Y-93704819D02*
X196690476Y-93704819D01*
X196976190Y-93704819D02*
X196976190Y-92704819D01*
X196976190Y-92704819D02*
X196880952Y-92847676D01*
X196880952Y-92847676D02*
X196785714Y-92942914D01*
X196785714Y-92942914D02*
X196690476Y-92990533D01*
%TO.C,R17*%
X157357142Y-71804819D02*
X157023809Y-71328628D01*
X156785714Y-71804819D02*
X156785714Y-70804819D01*
X156785714Y-70804819D02*
X157166666Y-70804819D01*
X157166666Y-70804819D02*
X157261904Y-70852438D01*
X157261904Y-70852438D02*
X157309523Y-70900057D01*
X157309523Y-70900057D02*
X157357142Y-70995295D01*
X157357142Y-70995295D02*
X157357142Y-71138152D01*
X157357142Y-71138152D02*
X157309523Y-71233390D01*
X157309523Y-71233390D02*
X157261904Y-71281009D01*
X157261904Y-71281009D02*
X157166666Y-71328628D01*
X157166666Y-71328628D02*
X156785714Y-71328628D01*
X158309523Y-71804819D02*
X157738095Y-71804819D01*
X158023809Y-71804819D02*
X158023809Y-70804819D01*
X158023809Y-70804819D02*
X157928571Y-70947676D01*
X157928571Y-70947676D02*
X157833333Y-71042914D01*
X157833333Y-71042914D02*
X157738095Y-71090533D01*
X158642857Y-70804819D02*
X159309523Y-70804819D01*
X159309523Y-70804819D02*
X158880952Y-71804819D01*
%TO.C,R18*%
X190604819Y-93442857D02*
X190128628Y-93776190D01*
X190604819Y-94014285D02*
X189604819Y-94014285D01*
X189604819Y-94014285D02*
X189604819Y-93633333D01*
X189604819Y-93633333D02*
X189652438Y-93538095D01*
X189652438Y-93538095D02*
X189700057Y-93490476D01*
X189700057Y-93490476D02*
X189795295Y-93442857D01*
X189795295Y-93442857D02*
X189938152Y-93442857D01*
X189938152Y-93442857D02*
X190033390Y-93490476D01*
X190033390Y-93490476D02*
X190081009Y-93538095D01*
X190081009Y-93538095D02*
X190128628Y-93633333D01*
X190128628Y-93633333D02*
X190128628Y-94014285D01*
X190604819Y-92490476D02*
X190604819Y-93061904D01*
X190604819Y-92776190D02*
X189604819Y-92776190D01*
X189604819Y-92776190D02*
X189747676Y-92871428D01*
X189747676Y-92871428D02*
X189842914Y-92966666D01*
X189842914Y-92966666D02*
X189890533Y-93061904D01*
X190033390Y-91919047D02*
X189985771Y-92014285D01*
X189985771Y-92014285D02*
X189938152Y-92061904D01*
X189938152Y-92061904D02*
X189842914Y-92109523D01*
X189842914Y-92109523D02*
X189795295Y-92109523D01*
X189795295Y-92109523D02*
X189700057Y-92061904D01*
X189700057Y-92061904D02*
X189652438Y-92014285D01*
X189652438Y-92014285D02*
X189604819Y-91919047D01*
X189604819Y-91919047D02*
X189604819Y-91728571D01*
X189604819Y-91728571D02*
X189652438Y-91633333D01*
X189652438Y-91633333D02*
X189700057Y-91585714D01*
X189700057Y-91585714D02*
X189795295Y-91538095D01*
X189795295Y-91538095D02*
X189842914Y-91538095D01*
X189842914Y-91538095D02*
X189938152Y-91585714D01*
X189938152Y-91585714D02*
X189985771Y-91633333D01*
X189985771Y-91633333D02*
X190033390Y-91728571D01*
X190033390Y-91728571D02*
X190033390Y-91919047D01*
X190033390Y-91919047D02*
X190081009Y-92014285D01*
X190081009Y-92014285D02*
X190128628Y-92061904D01*
X190128628Y-92061904D02*
X190223866Y-92109523D01*
X190223866Y-92109523D02*
X190414342Y-92109523D01*
X190414342Y-92109523D02*
X190509580Y-92061904D01*
X190509580Y-92061904D02*
X190557200Y-92014285D01*
X190557200Y-92014285D02*
X190604819Y-91919047D01*
X190604819Y-91919047D02*
X190604819Y-91728571D01*
X190604819Y-91728571D02*
X190557200Y-91633333D01*
X190557200Y-91633333D02*
X190509580Y-91585714D01*
X190509580Y-91585714D02*
X190414342Y-91538095D01*
X190414342Y-91538095D02*
X190223866Y-91538095D01*
X190223866Y-91538095D02*
X190128628Y-91585714D01*
X190128628Y-91585714D02*
X190081009Y-91633333D01*
X190081009Y-91633333D02*
X190033390Y-91728571D01*
%TO.C,C18*%
X192857142Y-103539580D02*
X192809523Y-103587200D01*
X192809523Y-103587200D02*
X192666666Y-103634819D01*
X192666666Y-103634819D02*
X192571428Y-103634819D01*
X192571428Y-103634819D02*
X192428571Y-103587200D01*
X192428571Y-103587200D02*
X192333333Y-103491961D01*
X192333333Y-103491961D02*
X192285714Y-103396723D01*
X192285714Y-103396723D02*
X192238095Y-103206247D01*
X192238095Y-103206247D02*
X192238095Y-103063390D01*
X192238095Y-103063390D02*
X192285714Y-102872914D01*
X192285714Y-102872914D02*
X192333333Y-102777676D01*
X192333333Y-102777676D02*
X192428571Y-102682438D01*
X192428571Y-102682438D02*
X192571428Y-102634819D01*
X192571428Y-102634819D02*
X192666666Y-102634819D01*
X192666666Y-102634819D02*
X192809523Y-102682438D01*
X192809523Y-102682438D02*
X192857142Y-102730057D01*
X193809523Y-103634819D02*
X193238095Y-103634819D01*
X193523809Y-103634819D02*
X193523809Y-102634819D01*
X193523809Y-102634819D02*
X193428571Y-102777676D01*
X193428571Y-102777676D02*
X193333333Y-102872914D01*
X193333333Y-102872914D02*
X193238095Y-102920533D01*
X194380952Y-103063390D02*
X194285714Y-103015771D01*
X194285714Y-103015771D02*
X194238095Y-102968152D01*
X194238095Y-102968152D02*
X194190476Y-102872914D01*
X194190476Y-102872914D02*
X194190476Y-102825295D01*
X194190476Y-102825295D02*
X194238095Y-102730057D01*
X194238095Y-102730057D02*
X194285714Y-102682438D01*
X194285714Y-102682438D02*
X194380952Y-102634819D01*
X194380952Y-102634819D02*
X194571428Y-102634819D01*
X194571428Y-102634819D02*
X194666666Y-102682438D01*
X194666666Y-102682438D02*
X194714285Y-102730057D01*
X194714285Y-102730057D02*
X194761904Y-102825295D01*
X194761904Y-102825295D02*
X194761904Y-102872914D01*
X194761904Y-102872914D02*
X194714285Y-102968152D01*
X194714285Y-102968152D02*
X194666666Y-103015771D01*
X194666666Y-103015771D02*
X194571428Y-103063390D01*
X194571428Y-103063390D02*
X194380952Y-103063390D01*
X194380952Y-103063390D02*
X194285714Y-103111009D01*
X194285714Y-103111009D02*
X194238095Y-103158628D01*
X194238095Y-103158628D02*
X194190476Y-103253866D01*
X194190476Y-103253866D02*
X194190476Y-103444342D01*
X194190476Y-103444342D02*
X194238095Y-103539580D01*
X194238095Y-103539580D02*
X194285714Y-103587200D01*
X194285714Y-103587200D02*
X194380952Y-103634819D01*
X194380952Y-103634819D02*
X194571428Y-103634819D01*
X194571428Y-103634819D02*
X194666666Y-103587200D01*
X194666666Y-103587200D02*
X194714285Y-103539580D01*
X194714285Y-103539580D02*
X194761904Y-103444342D01*
X194761904Y-103444342D02*
X194761904Y-103253866D01*
X194761904Y-103253866D02*
X194714285Y-103158628D01*
X194714285Y-103158628D02*
X194666666Y-103111009D01*
X194666666Y-103111009D02*
X194571428Y-103063390D01*
%TO.C,J2*%
X202866666Y-46454819D02*
X202866666Y-47169104D01*
X202866666Y-47169104D02*
X202819047Y-47311961D01*
X202819047Y-47311961D02*
X202723809Y-47407200D01*
X202723809Y-47407200D02*
X202580952Y-47454819D01*
X202580952Y-47454819D02*
X202485714Y-47454819D01*
X203295238Y-46550057D02*
X203342857Y-46502438D01*
X203342857Y-46502438D02*
X203438095Y-46454819D01*
X203438095Y-46454819D02*
X203676190Y-46454819D01*
X203676190Y-46454819D02*
X203771428Y-46502438D01*
X203771428Y-46502438D02*
X203819047Y-46550057D01*
X203819047Y-46550057D02*
X203866666Y-46645295D01*
X203866666Y-46645295D02*
X203866666Y-46740533D01*
X203866666Y-46740533D02*
X203819047Y-46883390D01*
X203819047Y-46883390D02*
X203247619Y-47454819D01*
X203247619Y-47454819D02*
X203866666Y-47454819D01*
%TO.C,C1*%
X154358333Y-69559580D02*
X154310714Y-69607200D01*
X154310714Y-69607200D02*
X154167857Y-69654819D01*
X154167857Y-69654819D02*
X154072619Y-69654819D01*
X154072619Y-69654819D02*
X153929762Y-69607200D01*
X153929762Y-69607200D02*
X153834524Y-69511961D01*
X153834524Y-69511961D02*
X153786905Y-69416723D01*
X153786905Y-69416723D02*
X153739286Y-69226247D01*
X153739286Y-69226247D02*
X153739286Y-69083390D01*
X153739286Y-69083390D02*
X153786905Y-68892914D01*
X153786905Y-68892914D02*
X153834524Y-68797676D01*
X153834524Y-68797676D02*
X153929762Y-68702438D01*
X153929762Y-68702438D02*
X154072619Y-68654819D01*
X154072619Y-68654819D02*
X154167857Y-68654819D01*
X154167857Y-68654819D02*
X154310714Y-68702438D01*
X154310714Y-68702438D02*
X154358333Y-68750057D01*
X155310714Y-69654819D02*
X154739286Y-69654819D01*
X155025000Y-69654819D02*
X155025000Y-68654819D01*
X155025000Y-68654819D02*
X154929762Y-68797676D01*
X154929762Y-68797676D02*
X154834524Y-68892914D01*
X154834524Y-68892914D02*
X154739286Y-68940533D01*
%TO.C,R34*%
X197444642Y-97604819D02*
X197111309Y-97128628D01*
X196873214Y-97604819D02*
X196873214Y-96604819D01*
X196873214Y-96604819D02*
X197254166Y-96604819D01*
X197254166Y-96604819D02*
X197349404Y-96652438D01*
X197349404Y-96652438D02*
X197397023Y-96700057D01*
X197397023Y-96700057D02*
X197444642Y-96795295D01*
X197444642Y-96795295D02*
X197444642Y-96938152D01*
X197444642Y-96938152D02*
X197397023Y-97033390D01*
X197397023Y-97033390D02*
X197349404Y-97081009D01*
X197349404Y-97081009D02*
X197254166Y-97128628D01*
X197254166Y-97128628D02*
X196873214Y-97128628D01*
X197777976Y-96604819D02*
X198397023Y-96604819D01*
X198397023Y-96604819D02*
X198063690Y-96985771D01*
X198063690Y-96985771D02*
X198206547Y-96985771D01*
X198206547Y-96985771D02*
X198301785Y-97033390D01*
X198301785Y-97033390D02*
X198349404Y-97081009D01*
X198349404Y-97081009D02*
X198397023Y-97176247D01*
X198397023Y-97176247D02*
X198397023Y-97414342D01*
X198397023Y-97414342D02*
X198349404Y-97509580D01*
X198349404Y-97509580D02*
X198301785Y-97557200D01*
X198301785Y-97557200D02*
X198206547Y-97604819D01*
X198206547Y-97604819D02*
X197920833Y-97604819D01*
X197920833Y-97604819D02*
X197825595Y-97557200D01*
X197825595Y-97557200D02*
X197777976Y-97509580D01*
X199254166Y-96938152D02*
X199254166Y-97604819D01*
X199016071Y-96557200D02*
X198777976Y-97271485D01*
X198777976Y-97271485D02*
X199397023Y-97271485D01*
D11*
%TO.C,R27*%
X197772936Y-76265000D02*
X198227064Y-76265000D01*
X197772936Y-77735000D02*
X198227064Y-77735000D01*
%TO.C,C19*%
X193311252Y-78735000D02*
X192788748Y-78735000D01*
X193311252Y-77265000D02*
X192788748Y-77265000D01*
%TO.C,FB9*%
X179560000Y-107100378D02*
X179560000Y-107899622D01*
X178440000Y-107100378D02*
X178440000Y-107899622D01*
%TO.C,C15*%
X184265000Y-93061252D02*
X184265000Y-92538748D01*
X185735000Y-93061252D02*
X185735000Y-92538748D01*
%TO.C,J11*%
X151070000Y-74870000D02*
X152400000Y-74870000D01*
X151070000Y-76200000D02*
X151070000Y-74870000D01*
X151070000Y-77470000D02*
X151070000Y-85150000D01*
X151070000Y-77470000D02*
X153730000Y-77470000D01*
X151070000Y-85150000D02*
X153730000Y-85150000D01*
X153730000Y-77470000D02*
X153730000Y-85150000D01*
%TO.C,D6*%
X174362500Y-54440000D02*
X172562500Y-54440000D01*
X174362500Y-54440000D02*
X175162500Y-54440000D01*
X174362500Y-57560000D02*
X173562500Y-57560000D01*
X174362500Y-57560000D02*
X175162500Y-57560000D01*
%TO.C,R8*%
X178822500Y-61772936D02*
X178822500Y-62227064D01*
X177352500Y-61772936D02*
X177352500Y-62227064D01*
%TO.C,R7*%
X192735000Y-61772936D02*
X192735000Y-62227064D01*
X191265000Y-61772936D02*
X191265000Y-62227064D01*
%TO.C,R6*%
X183735000Y-61772936D02*
X183735000Y-62227064D01*
X182265000Y-61772936D02*
X182265000Y-62227064D01*
%TO.C,D3*%
X186362500Y-54440000D02*
X184562500Y-54440000D01*
X186362500Y-54440000D02*
X187162500Y-54440000D01*
X186362500Y-57560000D02*
X185562500Y-57560000D01*
X186362500Y-57560000D02*
X187162500Y-57560000D01*
%TO.C,D5*%
X157000000Y-57360000D02*
X159000000Y-57360000D01*
X157000000Y-57360000D02*
X157000000Y-53350000D01*
X159000000Y-57360000D02*
X159000000Y-53350000D01*
%TO.C,U2*%
X182000000Y-67940000D02*
X180200000Y-67940000D01*
X182000000Y-67940000D02*
X182800000Y-67940000D01*
X182000000Y-71060000D02*
X181200000Y-71060000D01*
X182000000Y-71060000D02*
X182800000Y-71060000D01*
%TO.C,D10*%
X192862500Y-75510000D02*
X194662500Y-75510000D01*
X192862500Y-75510000D02*
X192062500Y-75510000D01*
X192862500Y-72390000D02*
X193662500Y-72390000D01*
X192862500Y-72390000D02*
X192062500Y-72390000D01*
%TO.C,C17*%
X162738748Y-97265000D02*
X163261252Y-97265000D01*
X162738748Y-98735000D02*
X163261252Y-98735000D01*
%TO.C,FB8*%
X178495000Y-103462122D02*
X178495000Y-102662878D01*
X179615000Y-103462122D02*
X179615000Y-102662878D01*
%TO.C,R22*%
X157772936Y-97265000D02*
X158227064Y-97265000D01*
X157772936Y-98735000D02*
X158227064Y-98735000D01*
%TO.C,C5*%
X155265000Y-112261252D02*
X155265000Y-111738748D01*
X156735000Y-112261252D02*
X156735000Y-111738748D01*
%TO.C,FB7*%
X175745000Y-103462122D02*
X175745000Y-102662878D01*
X176865000Y-103462122D02*
X176865000Y-102662878D01*
%TO.C,J14*%
X204530000Y-82610000D02*
X203200000Y-82610000D01*
X204530000Y-81280000D02*
X204530000Y-82610000D01*
X204530000Y-80010000D02*
X204530000Y-72330000D01*
X204530000Y-80010000D02*
X201870000Y-80010000D01*
X204530000Y-72330000D02*
X201870000Y-72330000D01*
X201870000Y-80010000D02*
X201870000Y-72330000D01*
%TO.C,C9*%
X161290000Y-124525000D02*
X161290000Y-123525000D01*
X160790000Y-124025000D02*
X161790000Y-124025000D01*
X160304437Y-123285000D02*
X162290000Y-123285000D01*
X160304437Y-123285000D02*
X159240000Y-122220563D01*
X166695563Y-123285000D02*
X164710000Y-123285000D01*
X166695563Y-123285000D02*
X167760000Y-122220563D01*
X159240000Y-122220563D02*
X159240000Y-114765000D01*
X167760000Y-122220563D02*
X167760000Y-114765000D01*
X159240000Y-114765000D02*
X162290000Y-114765000D01*
X167760000Y-114765000D02*
X164710000Y-114765000D01*
%TO.C,C13*%
X189288748Y-83065000D02*
X189811252Y-83065000D01*
X189288748Y-84535000D02*
X189811252Y-84535000D01*
%TO.C,D9*%
X193362500Y-99010000D02*
X195162500Y-99010000D01*
X193362500Y-99010000D02*
X192562500Y-99010000D01*
X193362500Y-95890000D02*
X194162500Y-95890000D01*
X193362500Y-95890000D02*
X192562500Y-95890000D01*
%TO.C,J9*%
X184370000Y-74170000D02*
X184370000Y-75500000D01*
X183040000Y-74170000D02*
X184370000Y-74170000D01*
X181770000Y-74170000D02*
X176630000Y-74170000D01*
X181770000Y-74170000D02*
X181770000Y-76830000D01*
X176630000Y-74170000D02*
X176630000Y-76830000D01*
X181770000Y-76830000D02*
X176630000Y-76830000D01*
%TO.C,R13*%
X182360436Y-64765000D02*
X182814564Y-64765000D01*
X182360436Y-66235000D02*
X182814564Y-66235000D01*
%TO.C,J7*%
X190560000Y-49470000D02*
X190560000Y-50800000D01*
X189230000Y-49470000D02*
X190560000Y-49470000D01*
X187960000Y-49470000D02*
X177740000Y-49470000D01*
X187960000Y-49470000D02*
X187960000Y-52130000D01*
X177740000Y-49470000D02*
X177740000Y-52130000D01*
X187960000Y-52130000D02*
X177740000Y-52130000D01*
%TO.C,C3*%
X170738748Y-64265000D02*
X171261252Y-64265000D01*
X170738748Y-65735000D02*
X171261252Y-65735000D01*
%TO.C,R2*%
X176227064Y-80535000D02*
X175772936Y-80535000D01*
X176227064Y-79065000D02*
X175772936Y-79065000D01*
%TO.C,FB1*%
X184060000Y-112775378D02*
X184060000Y-113574622D01*
X182940000Y-112775378D02*
X182940000Y-113574622D01*
%TO.C,FB2*%
X173560000Y-112775378D02*
X173560000Y-113574622D01*
X172440000Y-112775378D02*
X172440000Y-113574622D01*
%TO.C,R36*%
X198227064Y-73735000D02*
X197772936Y-73735000D01*
X198227064Y-72265000D02*
X197772936Y-72265000D01*
%TO.C,FB4*%
X181440000Y-103524622D02*
X181440000Y-102725378D01*
X182560000Y-103524622D02*
X182560000Y-102725378D01*
%TO.C,J8*%
X185420000Y-124460000D02*
X170180000Y-124460000D01*
X185420000Y-118110000D02*
X170180000Y-118110000D01*
X185420000Y-116840000D02*
X185420000Y-124460000D01*
X185420000Y-116840000D02*
X170180000Y-116840000D01*
X170180000Y-116840000D02*
X170180000Y-124460000D01*
%TO.C,R14*%
X169860436Y-85065000D02*
X170314564Y-85065000D01*
X169860436Y-86535000D02*
X170314564Y-86535000D01*
%TO.C,J10*%
X183410000Y-96795000D02*
X183410000Y-98125000D01*
X182080000Y-96795000D02*
X183410000Y-96795000D01*
X180810000Y-96795000D02*
X175670000Y-96795000D01*
X180810000Y-96795000D02*
X180810000Y-99455000D01*
X175670000Y-96795000D02*
X175670000Y-99455000D01*
X180810000Y-99455000D02*
X175670000Y-99455000D01*
%TO.C,R25*%
X198314564Y-103235000D02*
X197860436Y-103235000D01*
X198314564Y-101765000D02*
X197860436Y-101765000D01*
%TO.C,R26*%
X198314564Y-106735000D02*
X197860436Y-106735000D01*
X198314564Y-105265000D02*
X197860436Y-105265000D01*
%TO.C,C6*%
X151765000Y-112261252D02*
X151765000Y-111738748D01*
X153235000Y-112261252D02*
X153235000Y-111738748D01*
%TO.C,C20*%
X169735000Y-90088748D02*
X169735000Y-90611252D01*
X168265000Y-90088748D02*
X168265000Y-90611252D01*
%TO.C,C11*%
X189811252Y-88035000D02*
X189288748Y-88035000D01*
X189811252Y-86565000D02*
X189288748Y-86565000D01*
%TO.C,R29*%
X198139564Y-85735000D02*
X197685436Y-85735000D01*
X198139564Y-84265000D02*
X197685436Y-84265000D01*
%TO.C,R1*%
X180227064Y-80535000D02*
X179772936Y-80535000D01*
X180227064Y-79065000D02*
X179772936Y-79065000D01*
%TO.C,R10*%
X165265000Y-61227064D02*
X165265000Y-60772936D01*
X166735000Y-61227064D02*
X166735000Y-60772936D01*
%TO.C,R12*%
X187235000Y-66272936D02*
X187235000Y-66727064D01*
X185765000Y-66272936D02*
X185765000Y-66727064D01*
%TO.C,D2*%
X180362500Y-54440000D02*
X178562500Y-54440000D01*
X180362500Y-54440000D02*
X181162500Y-54440000D01*
X180362500Y-57560000D02*
X179562500Y-57560000D01*
X180362500Y-57560000D02*
X181162500Y-57560000D01*
%TO.C,R21*%
X158314564Y-101735000D02*
X157860436Y-101735000D01*
X158314564Y-100265000D02*
X157860436Y-100265000D01*
%TO.C,Q3*%
X163062500Y-54490000D02*
X161387500Y-54490000D01*
X163062500Y-54490000D02*
X163712500Y-54490000D01*
X163062500Y-57610000D02*
X162412500Y-57610000D01*
X163062500Y-57610000D02*
X163712500Y-57610000D01*
%TO.C,U3*%
X182137500Y-84290000D02*
X178537500Y-84290000D01*
X182137500Y-84290000D02*
X184337500Y-84290000D01*
X182137500Y-89760000D02*
X179937500Y-89760000D01*
X182137500Y-89760000D02*
X184337500Y-89760000D01*
%TO.C,Q2*%
X196000000Y-63560000D02*
X197675000Y-63560000D01*
X196000000Y-63560000D02*
X195350000Y-63560000D01*
X196000000Y-60440000D02*
X196650000Y-60440000D01*
X196000000Y-60440000D02*
X195350000Y-60440000D01*
%TO.C,R20*%
X157772936Y-76265000D02*
X158227064Y-76265000D01*
X157772936Y-77735000D02*
X158227064Y-77735000D01*
%TO.C,FB3*%
X177440000Y-113637122D02*
X177440000Y-112837878D01*
X178560000Y-113637122D02*
X178560000Y-112837878D01*
%TO.C,C2*%
X170738748Y-60265000D02*
X171261252Y-60265000D01*
X170738748Y-61735000D02*
X171261252Y-61735000D01*
%TO.C,R32*%
X169235000Y-81572936D02*
X169235000Y-82027064D01*
X167765000Y-81572936D02*
X167765000Y-82027064D01*
%TO.C,R4*%
X189772936Y-65265000D02*
X190227064Y-65265000D01*
X189772936Y-66735000D02*
X190227064Y-66735000D01*
%TO.C,R31*%
X192735000Y-90572936D02*
X192735000Y-91027064D01*
X191265000Y-90572936D02*
X191265000Y-91027064D01*
%TO.C,C8*%
X199765000Y-111811252D02*
X199765000Y-111288748D01*
X201235000Y-111811252D02*
X201235000Y-111288748D01*
%TO.C,R9*%
X192735000Y-55772936D02*
X192735000Y-56227064D01*
X191265000Y-55772936D02*
X191265000Y-56227064D01*
%TO.C,R33*%
X157860436Y-103265000D02*
X158314564Y-103265000D01*
X157860436Y-104735000D02*
X158314564Y-104735000D01*
%TO.C,Q1*%
X187937500Y-63560000D02*
X189612500Y-63560000D01*
X187937500Y-63560000D02*
X187287500Y-63560000D01*
X187937500Y-60440000D02*
X188587500Y-60440000D01*
X187937500Y-60440000D02*
X187287500Y-60440000D01*
%TO.C,C12*%
X174261252Y-87735000D02*
X173738748Y-87735000D01*
X174261252Y-86265000D02*
X173738748Y-86265000D01*
%TO.C,R23*%
X157772936Y-94265000D02*
X158227064Y-94265000D01*
X157772936Y-95735000D02*
X158227064Y-95735000D01*
%TO.C,D7*%
X162862500Y-79440000D02*
X161062500Y-79440000D01*
X162862500Y-79440000D02*
X163662500Y-79440000D01*
X162862500Y-82560000D02*
X162062500Y-82560000D01*
X162862500Y-82560000D02*
X163662500Y-82560000D01*
%TO.C,R35*%
X157772936Y-84265000D02*
X158227064Y-84265000D01*
X157772936Y-85735000D02*
X158227064Y-85735000D01*
%TO.C,R19*%
X158227064Y-81735000D02*
X157772936Y-81735000D01*
X158227064Y-80265000D02*
X157772936Y-80265000D01*
%TO.C,R28*%
X198227064Y-81735000D02*
X197772936Y-81735000D01*
X198227064Y-80265000D02*
X197772936Y-80265000D01*
%TO.C,C10*%
X194210000Y-113525000D02*
X194210000Y-114525000D01*
X194710000Y-114025000D02*
X193710000Y-114025000D01*
X195195563Y-114765000D02*
X193210000Y-114765000D01*
X195195563Y-114765000D02*
X196260000Y-115829437D01*
X188804437Y-114765000D02*
X190790000Y-114765000D01*
X188804437Y-114765000D02*
X187740000Y-115829437D01*
X196260000Y-115829437D02*
X196260000Y-123285000D01*
X187740000Y-115829437D02*
X187740000Y-123285000D01*
X196260000Y-123285000D02*
X193210000Y-123285000D01*
X187740000Y-123285000D02*
X190790000Y-123285000D01*
%TO.C,C7*%
X195765000Y-111811252D02*
X195765000Y-111288748D01*
X197235000Y-111811252D02*
X197235000Y-111288748D01*
%TO.C,R16*%
X176735000Y-92572936D02*
X176735000Y-93027064D01*
X175265000Y-92572936D02*
X175265000Y-93027064D01*
%TO.C,J12*%
X151070000Y-95190000D02*
X152400000Y-95190000D01*
X151070000Y-96520000D02*
X151070000Y-95190000D01*
X151070000Y-97790000D02*
X151070000Y-105470000D01*
X151070000Y-97790000D02*
X153730000Y-97790000D01*
X151070000Y-105470000D02*
X153730000Y-105470000D01*
X153730000Y-97790000D02*
X153730000Y-105470000D01*
%TO.C,R3*%
X171265000Y-82027064D02*
X171265000Y-81572936D01*
X172735000Y-82027064D02*
X172735000Y-81572936D01*
%TO.C,R11*%
X153685436Y-55765000D02*
X154139564Y-55765000D01*
X153685436Y-57235000D02*
X154139564Y-57235000D01*
%TO.C,FB5*%
X175399622Y-110060000D02*
X174600378Y-110060000D01*
X175399622Y-108940000D02*
X174600378Y-108940000D01*
%TO.C,C4*%
X187288748Y-72765000D02*
X187811252Y-72765000D01*
X187288748Y-74235000D02*
X187811252Y-74235000D01*
%TO.C,FB6*%
X172995000Y-103462122D02*
X172995000Y-102662878D01*
X174115000Y-103462122D02*
X174115000Y-102662878D01*
%TO.C,R24*%
X197860436Y-98265000D02*
X198314564Y-98265000D01*
X197860436Y-99735000D02*
X198314564Y-99735000D01*
%TO.C,J6*%
X166430000Y-49470000D02*
X166430000Y-50800000D01*
X165100000Y-49470000D02*
X166430000Y-49470000D01*
X163830000Y-49470000D02*
X161230000Y-49470000D01*
X163830000Y-49470000D02*
X163830000Y-52130000D01*
X161230000Y-49470000D02*
X161230000Y-52130000D01*
X163830000Y-52130000D02*
X161230000Y-52130000D01*
%TO.C,J13*%
X204530000Y-101660000D02*
X203200000Y-101660000D01*
X204530000Y-100330000D02*
X204530000Y-101660000D01*
X204530000Y-99060000D02*
X204530000Y-91380000D01*
X204530000Y-99060000D02*
X201870000Y-99060000D01*
X204530000Y-91380000D02*
X201870000Y-91380000D01*
X201870000Y-99060000D02*
X201870000Y-91380000D01*
%TO.C,R30*%
X171765000Y-90527064D02*
X171765000Y-90072936D01*
X173235000Y-90527064D02*
X173235000Y-90072936D01*
%TO.C,D4*%
X165040000Y-66685000D02*
X166960000Y-66685000D01*
X166960000Y-66685000D02*
X166960000Y-64000000D01*
X165040000Y-64000000D02*
X165040000Y-66685000D01*
%TO.C,R5*%
X195139564Y-66735000D02*
X194685436Y-66735000D01*
X195139564Y-65265000D02*
X194685436Y-65265000D01*
%TO.C,D8*%
X163137500Y-100390000D02*
X161337500Y-100390000D01*
X163137500Y-100390000D02*
X163937500Y-100390000D01*
X163137500Y-103510000D02*
X162337500Y-103510000D01*
X163137500Y-103510000D02*
X163937500Y-103510000D01*
%TO.C,C14*%
X178765000Y-93061252D02*
X178765000Y-92538748D01*
X180235000Y-93061252D02*
X180235000Y-92538748D01*
%TO.C,C16*%
X162738748Y-76265000D02*
X163261252Y-76265000D01*
X162738748Y-77735000D02*
X163261252Y-77735000D01*
%TO.C,C21*%
X194765000Y-91061252D02*
X194765000Y-90538748D01*
X196235000Y-91061252D02*
X196235000Y-90538748D01*
%TO.C,R17*%
X157772936Y-72265000D02*
X158227064Y-72265000D01*
X157772936Y-73735000D02*
X158227064Y-73735000D01*
%TO.C,R18*%
X189235000Y-92572936D02*
X189235000Y-93027064D01*
X187765000Y-92572936D02*
X187765000Y-93027064D01*
%TO.C,C18*%
X193761252Y-102235000D02*
X193238748Y-102235000D01*
X193761252Y-100765000D02*
X193238748Y-100765000D01*
%TO.C,C1*%
X160025000Y-66210000D02*
X159025000Y-66210000D01*
X159525000Y-66710000D02*
X159525000Y-65710000D01*
X158785000Y-67195563D02*
X158785000Y-65210000D01*
X158785000Y-67195563D02*
X157720563Y-68260000D01*
X158785000Y-60804437D02*
X158785000Y-62790000D01*
X158785000Y-60804437D02*
X157720563Y-59740000D01*
X157720563Y-68260000D02*
X150265000Y-68260000D01*
X157720563Y-59740000D02*
X150265000Y-59740000D01*
X150265000Y-68260000D02*
X150265000Y-65210000D01*
X150265000Y-59740000D02*
X150265000Y-62790000D01*
%TO.C,R34*%
X198314564Y-96235000D02*
X197860436Y-96235000D01*
X198314564Y-94765000D02*
X197860436Y-94765000D01*
%TD*%
M02*
