M48
; DRILL file {KiCad 7.0.5} date Sat Sep 16 15:31:59 2023
; FORMAT={-:-/ absolute / inch / decimal}
; #@! TF.CreationDate,2023-09-16T15:31:59-07:00
; #@! TF.GenerationSoftware,Kicad,Pcbnew,7.0.5
; #@! TF.FileFunction,Plated,1,2,PTH
FMAT,2
INCH
; #@! TA.AperFunction,Plated,PTH,ViaDrill
T1C0.0118
; #@! TA.AperFunction,Plated,PTH,ViaDrill
T2C0.0157
; #@! TA.AperFunction,Plated,PTH,ComponentDrill
T3C0.0394
; #@! TA.AperFunction,Plated,PTH,ComponentDrill
T4C0.0598
; #@! TA.AperFunction,Plated,PTH,ComponentDrill
T5C0.1260
%
G90
G05
T1
X6.116Y-3.1
X6.122Y-4.1
X6.1381Y-3.3
X6.1417Y-3.4449
X6.1417Y-3.9961
X6.1428Y-3.9
X6.2894Y-2.1654
X6.3189Y-3.1102
X6.3189Y-3.2677
X6.3189Y-3.7598
X6.3189Y-4.0551
X6.3386Y-3.937
X6.378Y-3.4252
X6.3976Y-4.2126
X6.4567Y-2.126
X6.4764Y-3.7795
X6.5354Y-3.3268
X6.5945Y-3.9567
X6.6142Y-3.3465
X6.6732Y-4.4882
X6.7126Y-3.1102
X6.752Y-2.1673
X6.752Y-4.2126
X6.752Y-4.3504
X6.7776Y-3.3327
X6.7913Y-3.1102
X6.811Y-2.3031
X6.811Y-3.6614
X6.8701Y-2.5591
X6.8799Y-3.3563
X6.8898Y-2.6476
X6.8898Y-3.7205
X6.8898Y-4.0157
X6.9094Y-2.4016
X6.9094Y-2.874
X6.9291Y-3.439
X6.9488Y-4.2126
X6.9552Y-4.3637
X6.9882Y-2.1654
X6.9882Y-2.2441
X7.0079Y-3.248
X7.0079Y-3.563
X7.0079Y-3.7402
X7.0472Y-2.6181
X7.0472Y-2.6969
X7.0472Y-2.7756
X7.0494Y-4.1535
X7.0866Y-2.3228
X7.1063Y-2.4803
X7.126Y-3.2087
X7.126Y-4.2028
X7.1457Y-3.4055
X7.185Y-3.5827
X7.2244Y-2.1654
X7.2244Y-2.2441
X7.2441Y-3.2874
X7.2835Y-2.7362
X7.2835Y-3.7598
X7.2835Y-4.2323
X7.2854Y-2.8327
X7.2933Y-3.1496
X7.3425Y-2.2933
X7.3425Y-3.2677
X7.3622Y-3.7598
X7.3622Y-4.4882
X7.4016Y-2.6181
X7.4213Y-2.9724
X7.4213Y-3.7402
X7.4252Y-3.248
X7.4409Y-2.7362
X7.4409Y-3.3858
X7.5Y-2.2244
X7.5Y-2.4803
X7.5Y-3.9961
X7.5197Y-3.6811
X7.5591Y-2.3031
X7.5591Y-3.1496
X7.5635Y-2.6772
X7.5787Y-2.5984
X7.6378Y-2.7559
X7.6772Y-2.8346
X7.6772Y-3.4449
X7.6772Y-4.0748
X7.687Y-4.2126
X7.6969Y-2.9528
X7.6969Y-3.7598
X7.6969Y-3.9173
X7.7756Y-3.5827
X7.7953Y-2.2835
X7.8169Y-2.4783
X7.8346Y-3.4843
X7.8726Y-3.9553
X7.8839Y-3.7106
X7.892Y-3.1282
X7.9134Y-2.2835
X8.0315Y-3.3071
X8.1102Y-3.8976
T2
X6.3189Y-2.313
X6.5453Y-2.2736
T3
X6.0Y-3.0
X6.0Y-3.1
X6.0Y-3.2
X6.0Y-3.3
X6.0Y-3.8
X6.0Y-3.9
X6.0Y-4.0
X6.0Y-4.1
X6.4Y-2.0
X6.5Y-2.0
X6.9685Y-3.8632
X7.0063Y-2.9724
X7.05Y-2.0
X7.0685Y-3.8632
X7.1063Y-2.9724
X7.15Y-2.0
X7.1685Y-3.8632
X7.2063Y-2.9724
X7.25Y-2.0
X7.35Y-2.0
X7.45Y-2.0
X8.0Y-2.9
X8.0Y-3.0
X8.0Y-3.1
X8.0Y-3.2
X8.0Y-3.65
X8.0Y-3.75
X8.0Y-3.85
X8.0Y-3.95
T4
X6.8Y-4.75
X7.0Y-4.75
X7.2Y-4.75
T5
X6.0Y-2.0
X6.0Y-4.75
X8.0Y-2.0
X8.0Y-4.75
T0
M30
